<svg width="78" height="96" viewBox="0 0 64 96" fill="none" xmlns="http://www.w3.org/2000/svg">
<g clip-path="url(#clip0_327_550)">
<g clip-path="url(#clip1_327_550)">
<path d="M1.1387 40.4783C0.384155 37.7304 0 34.8763 0 32.0016C0 18.8788 8.24168 6.87991 20.5099 2.14819L22.1184 6.31115C11.5582 10.385 4.46553 20.7084 4.46553 32.0016C4.46553 34.4788 4.79477 36.932 5.443 39.2962L1.1387 40.4783Z" fill="#58D09E"/>
<path d="M20.2955 2.25038C22.9495 1.21274 25.7478 0.532349 28.6067 0.231864C41.6576 -1.13984 54.4523 5.80246 60.4405 17.5088L56.4685 19.5437C51.3131 9.46722 40.3048 3.49247 29.0735 4.67293C26.6099 4.93187 24.2045 5.51574 21.9211 6.40753L20.2955 2.25038Z" fill="#58D09E"/>
<path d="M46.6472 55.2684C55.3616 49.7136 60.2154 39.8556 59.3136 29.5473C58.994 25.8949 57.9803 22.4065 56.3056 19.1859L60.2626 17.1217C62.2101 20.8659 63.3898 24.9147 63.7611 29.1582C64.8088 41.1338 59.1724 52.582 49.0473 59.035L46.6472 55.2684Z" fill="black"/>
<path d="M22.5026 25.3991C25.0919 25.3991 27.2013 26.7799 28.2851 29.1886L28.3709 29.3771L32.7197 27.9003L32.6271 27.6776C30.9431 23.5763 27.0641 21.0271 22.5026 21.0271C19.2957 21.0271 16.6891 22.0551 14.5353 24.1656C12.395 26.2626 11.3113 28.9008 11.3113 32.0084C11.3113 35.0887 12.395 37.7132 14.5353 39.8102C16.6891 41.9208 19.2957 42.9487 22.5026 42.9487C27.0641 42.9487 30.9431 40.3995 32.6271 36.3016L32.7197 36.079L28.3639 34.5987L28.2817 34.794C27.311 37.1616 25.1503 38.5767 22.5026 38.5767C20.6985 38.5767 19.1757 37.9463 17.9683 36.7059C16.7474 35.4484 16.1301 33.869 16.1301 32.0119C16.1301 30.1411 16.7337 28.5924 17.9683 27.2767C19.1722 26.0296 20.6985 25.3991 22.5026 25.3991Z" fill="black"/>
<path d="M49.7415 21.4316L43.544 37.1138L37.3054 21.4316H32.2019L40.9511 42.8358L34.7262 57.932L39.1883 58.8195L54.5638 21.4316H49.7415Z" fill="black"/>
<path d="M35.5245 55.9859L34.4373 58.6174C34.2212 59.1382 33.7273 59.491 33.1717 59.515C32.8048 59.5287 32.4344 59.539 32.0605 59.539C19.2641 59.5322 7.94257 50.5107 5.13704 38.0801L0.78125 39.0634C2.35551 46.0359 6.30659 52.3643 11.9073 56.8871C17.5733 61.4611 24.7105 63.9863 32.0125 64.0001C32.0228 64.0001 32.0776 64.0001 32.0776 64.0001C32.5064 64.0001 32.9316 63.9898 33.3569 63.9727C35.648 63.8767 37.6956 62.4411 38.5701 60.3134L39.99 56.8734L35.5245 55.9859Z" fill="black"/>
</g>
<path d="M11.2727 82H9.86364C9.7803 81.5947 9.63447 81.2386 9.42614 80.9318C9.22159 80.625 8.97159 80.3674 8.67614 80.1591C8.38447 79.947 8.06061 79.7879 7.70455 79.6818C7.34849 79.5758 6.97727 79.5227 6.59091 79.5227C5.88636 79.5227 5.24811 79.7008 4.67614 80.0568C4.10795 80.4129 3.6553 80.9375 3.31818 81.6307C2.98485 82.3239 2.81818 83.1742 2.81818 84.1818C2.81818 85.1894 2.98485 86.0398 3.31818 86.733C3.6553 87.4261 4.10795 87.9508 4.67614 88.3068C5.24811 88.6629 5.88636 88.8409 6.59091 88.8409C6.97727 88.8409 7.34849 88.7879 7.70455 88.6818C8.06061 88.5758 8.38447 88.4186 8.67614 88.2102C8.97159 87.9981 9.22159 87.7386 9.42614 87.4318C9.63447 87.1212 9.7803 86.7652 9.86364 86.3636H11.2727C11.1667 86.9583 10.9735 87.4905 10.6932 87.9602C10.4129 88.4299 10.0644 88.8295 9.64773 89.1591C9.23106 89.4848 8.76326 89.733 8.24432 89.9034C7.72917 90.0739 7.17803 90.1591 6.59091 90.1591C5.59849 90.1591 4.71591 89.9167 3.94318 89.4318C3.17045 88.947 2.5625 88.2576 2.11932 87.3636C1.67614 86.4697 1.45455 85.4091 1.45455 84.1818C1.45455 82.9545 1.67614 81.8939 2.11932 81C2.5625 80.1061 3.17045 79.4167 3.94318 78.9318C4.71591 78.447 5.59849 78.2045 6.59091 78.2045C7.17803 78.2045 7.72917 78.2898 8.24432 78.4602C8.76326 78.6307 9.23106 78.8807 9.64773 79.2102C10.0644 79.536 10.4129 79.9337 10.6932 80.4034C10.9735 80.8693 11.1667 81.4015 11.2727 82ZM14.2315 93.2727C14.0043 93.2727 13.8016 93.2538 13.6236 93.2159C13.4455 93.1818 13.3224 93.1477 13.2543 93.1136L13.5952 91.9318C13.9209 92.0152 14.2088 92.0455 14.4588 92.0227C14.7088 92 14.9304 91.8883 15.1236 91.6875C15.3205 91.4905 15.5005 91.1705 15.6634 90.7273L15.9134 90.0455L12.6861 81.2727H14.1406L16.5497 88.2273H16.6406L19.0497 81.2727H20.5043L16.7997 91.2727C16.633 91.7235 16.4266 92.0966 16.1804 92.392C15.9342 92.6913 15.6482 92.9129 15.3224 93.0568C15.0005 93.2008 14.6368 93.2727 14.2315 93.2727ZM22.2741 93.2727V81.2727H23.5696V82.6591H23.7287C23.8272 82.5076 23.9635 82.3144 24.1378 82.0795C24.3158 81.8409 24.5696 81.6288 24.8991 81.4432C25.2325 81.2538 25.6832 81.1591 26.2514 81.1591C26.9863 81.1591 27.634 81.3428 28.1946 81.7102C28.7552 82.0777 29.1927 82.5985 29.5071 83.2727C29.8215 83.947 29.9787 84.7424 29.9787 85.6591C29.9787 86.5833 29.8215 87.3845 29.5071 88.0625C29.1927 88.7367 28.7571 89.2595 28.2003 89.6307C27.6435 89.9981 27.0014 90.1818 26.2741 90.1818C25.7135 90.1818 25.2647 90.089 24.9276 89.9034C24.5904 89.714 24.331 89.5 24.1491 89.2614C23.9673 89.0189 23.8272 88.8182 23.7287 88.6591H23.6151V93.2727H22.2741ZM23.5923 85.6364C23.5923 86.2955 23.6889 86.8769 23.8821 87.3807C24.0753 87.8807 24.3575 88.2727 24.7287 88.5568C25.0999 88.8371 25.5545 88.9773 26.0923 88.9773C26.6529 88.9773 27.1207 88.8295 27.4957 88.5341C27.8745 88.2348 28.1586 87.8333 28.348 87.3295C28.5412 86.822 28.6378 86.2576 28.6378 85.6364C28.6378 85.0227 28.5431 84.4697 28.3537 83.9773C28.1681 83.4811 27.8859 83.089 27.5071 82.8011C27.1321 82.5095 26.6605 82.3636 26.0923 82.3636C25.5469 82.3636 25.0885 82.5019 24.7173 82.7784C24.3461 83.0511 24.0658 83.4337 23.8764 83.9261C23.687 84.4148 23.5923 84.9848 23.5923 85.6364ZM32.0241 90V81.2727H33.3196V82.5909H33.4105C33.5696 82.1591 33.8575 81.8087 34.2741 81.5398C34.6908 81.2708 35.1605 81.1364 35.6832 81.1364C35.7817 81.1364 35.9048 81.1383 36.0526 81.142C36.2003 81.1458 36.312 81.1515 36.3878 81.1591V82.5227C36.3423 82.5114 36.2382 82.4943 36.0753 82.4716C35.9162 82.4451 35.7476 82.4318 35.5696 82.4318C35.1454 82.4318 34.7666 82.5208 34.4332 82.6989C34.1037 82.8731 33.8423 83.1155 33.6491 83.4261C33.4598 83.733 33.3651 84.0833 33.3651 84.4773V90H32.0241ZM41.3707 90.1818C40.5298 90.1818 39.8045 89.9962 39.1946 89.625C38.5885 89.25 38.1207 88.7273 37.7912 88.0568C37.4654 87.3826 37.3026 86.5985 37.3026 85.7045C37.3026 84.8106 37.4654 84.0227 37.7912 83.3409C38.1207 82.6553 38.5791 82.1212 39.1662 81.7386C39.7571 81.3523 40.4465 81.1591 41.2344 81.1591C41.6889 81.1591 42.1378 81.2348 42.581 81.3864C43.0241 81.5379 43.4276 81.7841 43.7912 82.125C44.1548 82.4621 44.4446 82.9091 44.6605 83.4659C44.8764 84.0227 44.9844 84.7083 44.9844 85.5227V86.0909H38.2571V84.9318H43.6207C43.6207 84.4394 43.5223 84 43.3253 83.6136C43.1321 83.2273 42.8556 82.9223 42.4957 82.6989C42.1397 82.4754 41.7192 82.3636 41.2344 82.3636C40.7003 82.3636 40.2382 82.4962 39.848 82.7614C39.4616 83.0227 39.1643 83.3636 38.956 83.7841C38.7476 84.2045 38.6435 84.6553 38.6435 85.1364V85.9091C38.6435 86.5682 38.7571 87.1269 38.9844 87.5852C39.2154 88.0398 39.5355 88.3864 39.9446 88.625C40.3537 88.8598 40.8291 88.9773 41.3707 88.9773C41.723 88.9773 42.0412 88.928 42.3253 88.8295C42.6132 88.7273 42.8613 88.5758 43.0696 88.375C43.2779 88.1705 43.4389 87.9167 43.5526 87.6136L44.848 87.9773C44.7116 88.4167 44.4825 88.803 44.1605 89.1364C43.8385 89.4659 43.4408 89.7235 42.9673 89.9091C42.4938 90.0909 41.9616 90.1818 41.3707 90.1818ZM53.206 83.2273L52.0014 83.5682C51.9257 83.3674 51.8139 83.1723 51.6662 82.983C51.5223 82.7898 51.3253 82.6307 51.0753 82.5057C50.8253 82.3807 50.5052 82.3182 50.1151 82.3182C49.581 82.3182 49.1359 82.4413 48.7798 82.6875C48.4276 82.9299 48.2514 83.2386 48.2514 83.6136C48.2514 83.947 48.3726 84.2102 48.6151 84.4034C48.8575 84.5966 49.2363 84.7576 49.7514 84.8864L51.0469 85.2045C51.8272 85.3939 52.4086 85.6837 52.7912 86.0739C53.1738 86.4602 53.3651 86.9583 53.3651 87.5682C53.3651 88.0682 53.2211 88.5152 52.9332 88.9091C52.6491 89.303 52.2514 89.6136 51.7401 89.8409C51.2287 90.0682 50.634 90.1818 49.956 90.1818C49.0658 90.1818 48.3291 89.9886 47.7457 89.6023C47.1624 89.2159 46.7931 88.6515 46.6378 87.9091L47.9105 87.5909C48.0317 88.0606 48.2609 88.4129 48.598 88.6477C48.9389 88.8826 49.384 89 49.9332 89C50.5582 89 51.0545 88.8674 51.4219 88.6023C51.7931 88.3333 51.9787 88.0114 51.9787 87.6364C51.9787 87.3333 51.8726 87.0795 51.6605 86.875C51.4484 86.6667 51.1226 86.5114 50.6832 86.4091L49.2287 86.0682C48.4295 85.8788 47.8423 85.5852 47.4673 85.1875C47.0961 84.786 46.9105 84.2841 46.9105 83.6818C46.9105 83.1894 47.0488 82.7538 47.3253 82.375C47.6056 81.9962 47.9863 81.6989 48.4673 81.483C48.9522 81.267 49.5014 81.1591 50.1151 81.1591C50.9787 81.1591 51.6567 81.3485 52.1491 81.7273C52.6454 82.1061 52.9976 82.6061 53.206 83.2273ZM61.5653 83.2273L60.3608 83.5682C60.285 83.3674 60.1733 83.1723 60.0256 82.983C59.8816 82.7898 59.6847 82.6307 59.4347 82.5057C59.1847 82.3807 58.8646 82.3182 58.4744 82.3182C57.9403 82.3182 57.4953 82.4413 57.1392 82.6875C56.7869 82.9299 56.6108 83.2386 56.6108 83.6136C56.6108 83.947 56.732 84.2102 56.9744 84.4034C57.2169 84.5966 57.5956 84.7576 58.1108 84.8864L59.4062 85.2045C60.1866 85.3939 60.768 85.6837 61.1506 86.0739C61.5331 86.4602 61.7244 86.9583 61.7244 87.5682C61.7244 88.0682 61.5805 88.5152 61.2926 88.9091C61.0085 89.303 60.6108 89.6136 60.0994 89.8409C59.5881 90.0682 58.9934 90.1818 58.3153 90.1818C57.4252 90.1818 56.6884 89.9886 56.1051 89.6023C55.5218 89.2159 55.1525 88.6515 54.9972 87.9091L56.2699 87.5909C56.3911 88.0606 56.6203 88.4129 56.9574 88.6477C57.2983 88.8826 57.7434 89 58.2926 89C58.9176 89 59.4138 88.8674 59.7812 88.6023C60.1525 88.3333 60.3381 88.0114 60.3381 87.6364C60.3381 87.3333 60.232 87.0795 60.0199 86.875C59.8078 86.6667 59.482 86.5114 59.0426 86.4091L57.5881 86.0682C56.7888 85.8788 56.2017 85.5852 55.8267 85.1875C55.4555 84.786 55.2699 84.2841 55.2699 83.6818C55.2699 83.1894 55.4081 82.7538 55.6847 82.375C55.965 81.9962 56.3456 81.6989 56.8267 81.483C57.3116 81.267 57.8608 81.1591 58.4744 81.1591C59.3381 81.1591 60.0161 81.3485 60.5085 81.7273C61.0047 82.1061 61.357 82.6061 61.5653 83.2273Z" fill="#4B5563"/>
</g>
<defs>
<clipPath id="clip0_327_550">
<rect width="64" height="96" fill="white"/>
</clipPath>
<clipPath id="clip1_327_550">
<rect width="64" height="64" fill="white"/>
</clipPath>
</defs>
</svg>
