<svg width="78" height="96" viewBox="0 0 77 100" fill="none" xmlns="http://www.w3.org/2000/svg">
<g clip-path="url(#clip0_327_510)">
<path d="M70.5 51.59C68.172 52.182 66.732 51.616 65.44 49.676L56.252 36.964L54.924 35.204L44.194 49.718C42.968 51.464 41.682 52.224 39.394 51.606L53.134 33.162L40.342 16.502C42.542 16.074 44.062 16.292 45.412 18.262L54.942 31.132L64.542 18.332C65.772 16.586 67.094 15.922 69.302 16.566L64.342 23.142L57.622 31.892C56.822 32.892 56.932 33.576 57.668 34.542L70.5 51.59ZM6.516 32.854L7.64 27.326C10.7 16.386 23.24 11.84 31.888 18.6C36.942 22.576 38.198 28.2 37.948 34.5H9.46C9.032 45.84 17.194 52.684 27.6 49.192C31.25 47.966 33.4 45.108 34.476 41.532C35.022 39.74 35.926 39.46 37.61 39.972C36.75 44.444 34.81 48.18 30.71 50.518C24.584 54.018 15.84 52.886 11.24 48.022C8.5 45.2 7.368 41.624 6.86 37.8C6.78 37.168 6.62 36.566 6.5 35.96C6.51067 34.9254 6.516 33.8907 6.516 32.856V32.854ZM9.512 32.094H35.256C35.088 23.894 29.982 18.07 23.004 18.02C15.344 17.96 9.844 23.646 9.512 32.094Z" fill="black"/>
</g>
<path d="M1.40909 92V80.3636H8.43182V81.6136H2.81818V85.5455H8.06818V86.7955H2.81818V90.75H8.52273V92H1.40909ZM11.7898 83.2727L13.8807 86.8409L15.9716 83.2727H17.517L14.6989 87.6364L17.517 92H15.9716L13.8807 88.6136L11.7898 92H10.2443L13.017 87.6364L10.2443 83.2727H11.7898ZM19.4304 95.2727V83.2727H20.7259V84.6591H20.8849C20.9834 84.5076 21.1198 84.3144 21.294 84.0795C21.4721 83.8409 21.7259 83.6288 22.0554 83.4432C22.3887 83.2538 22.8395 83.1591 23.4077 83.1591C24.1425 83.1591 24.7902 83.3428 25.3509 83.7102C25.9115 84.0777 26.349 84.5985 26.6634 85.2727C26.9777 85.947 27.1349 86.7424 27.1349 87.6591C27.1349 88.5833 26.9777 89.3845 26.6634 90.0625C26.349 90.7367 25.9134 91.2595 25.3565 91.6307C24.7997 91.9981 24.1577 92.1818 23.4304 92.1818C22.8698 92.1818 22.4209 92.089 22.0838 91.9034C21.7467 91.714 21.4872 91.5 21.3054 91.2614C21.1236 91.0189 20.9834 90.8182 20.8849 90.6591H20.7713V95.2727H19.4304ZM20.7486 87.6364C20.7486 88.2955 20.8452 88.8769 21.0384 89.3807C21.2315 89.8807 21.5137 90.2727 21.8849 90.5568C22.2562 90.8371 22.7107 90.9773 23.2486 90.9773C23.8092 90.9773 24.277 90.8295 24.652 90.5341C25.0308 90.2348 25.3149 89.8333 25.5043 89.3295C25.6974 88.822 25.794 88.2576 25.794 87.6364C25.794 87.0227 25.6993 86.4697 25.5099 85.9773C25.3243 85.4811 25.0421 85.089 24.6634 84.8011C24.2884 84.5095 23.8168 84.3636 23.2486 84.3636C22.7031 84.3636 22.2448 84.5019 21.8736 84.7784C21.5024 85.0511 21.2221 85.4337 21.0327 85.9261C20.8433 86.4148 20.7486 86.9848 20.7486 87.6364ZM29.1804 92V83.2727H30.4759V84.5909H30.5668C30.7259 84.1591 31.0137 83.8087 31.4304 83.5398C31.8471 83.2708 32.3168 83.1364 32.8395 83.1364C32.938 83.1364 33.0611 83.1383 33.2088 83.142C33.3565 83.1458 33.4683 83.1515 33.544 83.1591V84.5227C33.4986 84.5114 33.3944 84.4943 33.2315 84.4716C33.0724 84.4451 32.9039 84.4318 32.7259 84.4318C32.3016 84.4318 31.9228 84.5208 31.5895 84.6989C31.2599 84.8731 30.9986 85.1155 30.8054 85.4261C30.616 85.733 30.5213 86.0833 30.5213 86.4773V92H29.1804ZM38.527 92.1818C37.6861 92.1818 36.9607 91.9962 36.3509 91.625C35.7448 91.25 35.277 90.7273 34.9474 90.0568C34.6217 89.3826 34.4588 88.5985 34.4588 87.7045C34.4588 86.8106 34.6217 86.0227 34.9474 85.3409C35.277 84.6553 35.7353 84.1212 36.3224 83.7386C36.9134 83.3523 37.6027 83.1591 38.3906 83.1591C38.8452 83.1591 39.294 83.2348 39.7372 83.3864C40.1804 83.5379 40.5838 83.7841 40.9474 84.125C41.3111 84.4621 41.6009 84.9091 41.8168 85.4659C42.0327 86.0227 42.1406 86.7083 42.1406 87.5227V88.0909H35.4134V86.9318H40.777C40.777 86.4394 40.6785 86 40.4815 85.6136C40.2884 85.2273 40.0118 84.9223 39.652 84.6989C39.2959 84.4754 38.8755 84.3636 38.3906 84.3636C37.8565 84.3636 37.3944 84.4962 37.0043 84.7614C36.6179 85.0227 36.3205 85.3636 36.1122 85.7841C35.9039 86.2045 35.7997 86.6553 35.7997 87.1364V87.9091C35.7997 88.5682 35.9134 89.1269 36.1406 89.5852C36.3717 90.0398 36.6918 90.3864 37.1009 90.625C37.5099 90.8598 37.9853 90.9773 38.527 90.9773C38.8793 90.9773 39.1974 90.928 39.4815 90.8295C39.7694 90.7273 40.0175 90.5758 40.2259 90.375C40.4342 90.1705 40.5952 89.9167 40.7088 89.6136L42.0043 89.9773C41.8679 90.4167 41.6387 90.803 41.3168 91.1364C40.9948 91.4659 40.5971 91.7235 40.1236 91.9091C39.6501 92.0909 39.1179 92.1818 38.527 92.1818ZM50.3622 85.2273L49.1577 85.5682C49.0819 85.3674 48.9702 85.1723 48.8224 84.983C48.6785 84.7898 48.4815 84.6307 48.2315 84.5057C47.9815 84.3807 47.6615 84.3182 47.2713 84.3182C46.7372 84.3182 46.2921 84.4413 45.9361 84.6875C45.5838 84.9299 45.4077 85.2386 45.4077 85.6136C45.4077 85.947 45.5289 86.2102 45.7713 86.4034C46.0137 86.5966 46.3925 86.7576 46.9077 86.8864L48.2031 87.2045C48.9834 87.3939 49.5649 87.6837 49.9474 88.0739C50.33 88.4602 50.5213 88.9583 50.5213 89.5682C50.5213 90.0682 50.3774 90.5152 50.0895 90.9091C49.8054 91.303 49.4077 91.6136 48.8963 91.8409C48.3849 92.0682 47.7902 92.1818 47.1122 92.1818C46.2221 92.1818 45.4853 91.9886 44.902 91.6023C44.3187 91.2159 43.9493 90.6515 43.794 89.9091L45.0668 89.5909C45.188 90.0606 45.4171 90.4129 45.7543 90.6477C46.0952 90.8826 46.5402 91 47.0895 91C47.7145 91 48.2107 90.8674 48.5781 90.6023C48.9493 90.3333 49.1349 90.0114 49.1349 89.6364C49.1349 89.3333 49.0289 89.0795 48.8168 88.875C48.6046 88.6667 48.2789 88.5114 47.8395 88.4091L46.3849 88.0682C45.5857 87.8788 44.9986 87.5852 44.6236 87.1875C44.2524 86.786 44.0668 86.2841 44.0668 85.6818C44.0668 85.1894 44.205 84.7538 44.4815 84.375C44.7618 83.9962 45.1425 83.6989 45.6236 83.483C46.1084 83.267 46.6577 83.1591 47.2713 83.1591C48.1349 83.1591 48.813 83.3485 49.3054 83.7273C49.8016 84.1061 50.1539 84.6061 50.3622 85.2273ZM58.7216 85.2273L57.517 85.5682C57.4413 85.3674 57.3295 85.1723 57.1818 84.983C57.0379 84.7898 56.8409 84.6307 56.5909 84.5057C56.3409 84.3807 56.0208 84.3182 55.6307 84.3182C55.0966 84.3182 54.6515 84.4413 54.2955 84.6875C53.9432 84.9299 53.767 85.2386 53.767 85.6136C53.767 85.947 53.8883 86.2102 54.1307 86.4034C54.3731 86.5966 54.7519 86.7576 55.267 86.8864L56.5625 87.2045C57.3428 87.3939 57.9242 87.6837 58.3068 88.0739C58.6894 88.4602 58.8807 88.9583 58.8807 89.5682C58.8807 90.0682 58.7367 90.5152 58.4489 90.9091C58.1648 91.303 57.767 91.6136 57.2557 91.8409C56.7443 92.0682 56.1496 92.1818 55.4716 92.1818C54.5814 92.1818 53.8447 91.9886 53.2614 91.6023C52.678 91.2159 52.3087 90.6515 52.1534 89.9091L53.4261 89.5909C53.5473 90.0606 53.7765 90.4129 54.1136 90.6477C54.4545 90.8826 54.8996 91 55.4489 91C56.0739 91 56.5701 90.8674 56.9375 90.6023C57.3087 90.3333 57.4943 90.0114 57.4943 89.6364C57.4943 89.3333 57.3883 89.0795 57.1761 88.875C56.964 88.6667 56.6383 88.5114 56.1989 88.4091L54.7443 88.0682C53.9451 87.8788 53.358 87.5852 52.983 87.1875C52.6117 86.786 52.4261 86.2841 52.4261 85.6818C52.4261 85.1894 52.5644 84.7538 52.8409 84.375C53.1212 83.9962 53.5019 83.6989 53.983 83.483C54.4678 83.267 55.017 83.1591 55.6307 83.1591C56.4943 83.1591 57.1723 83.3485 57.6648 83.7273C58.161 84.1061 58.5133 84.6061 58.7216 85.2273ZM61.8764 92.0909C61.5961 92.0909 61.3556 91.9905 61.1548 91.7898C60.9541 91.589 60.8537 91.3485 60.8537 91.0682C60.8537 90.7879 60.9541 90.5473 61.1548 90.3466C61.3556 90.1458 61.5961 90.0455 61.8764 90.0455C62.1567 90.0455 62.3973 90.1458 62.598 90.3466C62.7988 90.5473 62.8991 90.7879 62.8991 91.0682C62.8991 91.2538 62.8518 91.4242 62.7571 91.5795C62.6662 91.7348 62.5431 91.8598 62.3878 91.9545C62.2363 92.0455 62.0658 92.0909 61.8764 92.0909ZM65.3054 83.2727H66.6463V92.6364C66.6463 93.1742 66.5535 93.6402 66.3679 94.0341C66.1861 94.428 65.9096 94.733 65.5384 94.9489C65.1709 95.1648 64.7069 95.2727 64.1463 95.2727C64.1009 95.2727 64.0554 95.2727 64.0099 95.2727C63.9645 95.2727 63.919 95.2727 63.8736 95.2727V94.0227C63.919 94.0227 63.9607 94.0227 63.9986 94.0227C64.0365 94.0227 64.0781 94.0227 64.1236 94.0227C64.5327 94.0227 64.8319 93.9015 65.0213 93.6591C65.2107 93.4205 65.3054 93.0795 65.3054 92.6364V83.2727ZM65.9645 81.8182C65.7031 81.8182 65.4777 81.7292 65.2884 81.5511C65.1027 81.3731 65.0099 81.1591 65.0099 80.9091C65.0099 80.6591 65.1027 80.4451 65.2884 80.267C65.4777 80.089 65.7031 80 65.9645 80C66.2259 80 66.4493 80.089 66.6349 80.267C66.8243 80.4451 66.919 80.6591 66.919 80.9091C66.919 81.1591 66.8243 81.3731 66.6349 81.5511C66.4493 81.7292 66.2259 81.8182 65.9645 81.8182ZM75.2841 85.2273L74.0795 85.5682C74.0038 85.3674 73.892 85.1723 73.7443 84.983C73.6004 84.7898 73.4034 84.6307 73.1534 84.5057C72.9034 84.3807 72.5833 84.3182 72.1932 84.3182C71.6591 84.3182 71.214 84.4413 70.858 84.6875C70.5057 84.9299 70.3295 85.2386 70.3295 85.6136C70.3295 85.947 70.4508 86.2102 70.6932 86.4034C70.9356 86.5966 71.3144 86.7576 71.8295 86.8864L73.125 87.2045C73.9053 87.3939 74.4867 87.6837 74.8693 88.0739C75.2519 88.4602 75.4432 88.9583 75.4432 89.5682C75.4432 90.0682 75.2992 90.5152 75.0114 90.9091C74.7273 91.303 74.3295 91.6136 73.8182 91.8409C73.3068 92.0682 72.7121 92.1818 72.0341 92.1818C71.1439 92.1818 70.4072 91.9886 69.8239 91.6023C69.2405 91.2159 68.8712 90.6515 68.7159 89.9091L69.9886 89.5909C70.1098 90.0606 70.339 90.4129 70.6761 90.6477C71.017 90.8826 71.4621 91 72.0114 91C72.6364 91 73.1326 90.8674 73.5 90.6023C73.8712 90.3333 74.0568 90.0114 74.0568 89.6364C74.0568 89.3333 73.9508 89.0795 73.7386 88.875C73.5265 88.6667 73.2008 88.5114 72.7614 88.4091L71.3068 88.0682C70.5076 87.8788 69.9205 87.5852 69.5455 87.1875C69.1742 86.786 68.9886 86.2841 68.9886 85.6818C68.9886 85.1894 69.1269 84.7538 69.4034 84.375C69.6837 83.9962 70.0644 83.6989 70.5455 83.483C71.0303 83.267 71.5795 83.1591 72.1932 83.1591C73.0568 83.1591 73.7348 83.3485 74.2273 83.7273C74.7235 84.1061 75.0758 84.6061 75.2841 85.2273Z" fill="#4B5563"/>
<defs>
<clipPath id="clip0_327_510">
<rect width="64" height="64" fill="white" transform="translate(6.5 2)"/>
</clipPath>
</defs>
</svg>
