<svg width="78" height="96" viewBox="0 0 46 96" fill="none" xmlns="http://www.w3.org/2000/svg">
<g clip-path="url(#clip0_327_542)">
<g clip-path="url(#clip1_327_542)">
<path d="M23 31.9999C23 29.1709 24.1238 26.4578 26.1242 24.4574C28.1246 22.4571 30.8377 21.3333 33.6667 21.3333C36.4956 21.3333 39.2087 22.4571 41.2091 24.4574C43.2095 26.4578 44.3333 29.1709 44.3333 31.9999C44.3333 34.8289 43.2095 37.542 41.2091 39.5424C39.2087 41.5428 36.4956 42.6666 33.6667 42.6666C30.8377 42.6666 28.1246 41.5428 26.1242 39.5424C24.1238 37.542 23 34.8289 23 31.9999Z" fill="#1ABCFE"/>
<path d="M1.66675 53.3334C1.66675 50.5044 2.79055 47.7913 4.79094 45.7909C6.79133 43.7906 9.50444 42.6667 12.3334 42.6667H23.0001V53.3334C23.0001 56.1624 21.8763 58.8755 19.8759 60.8759C17.8755 62.8763 15.1624 64.0001 12.3334 64.0001C9.50444 64.0001 6.79133 62.8763 4.79094 60.8759C2.79055 58.8755 1.66675 56.1624 1.66675 53.3334Z" fill="#0ACF83"/>
<path d="M23 0V21.3333H33.6667C36.4956 21.3333 39.2087 20.2095 41.2091 18.2091C43.2095 16.2087 44.3333 13.4956 44.3333 10.6667C44.3333 7.83769 43.2095 5.12458 41.2091 3.12419C39.2087 1.12381 36.4956 0 33.6667 0L23 0Z" fill="#FF7262"/>
<path d="M1.66675 10.6667C1.66675 13.4956 2.79055 16.2087 4.79094 18.2091C6.79133 20.2095 9.50444 21.3333 12.3334 21.3333H23.0001V0H12.3334C9.50444 0 6.79133 1.12381 4.79094 3.12419C2.79055 5.12458 1.66675 7.83769 1.66675 10.6667Z" fill="#F24E1E"/>
<path d="M1.66675 31.9999C1.66675 34.8289 2.79055 37.542 4.79094 39.5424C6.79133 41.5428 9.50444 42.6666 12.3334 42.6666H23.0001V21.3333H12.3334C9.50444 21.3333 6.79133 22.4571 4.79094 24.4574C2.79055 26.4578 1.66675 29.1709 1.66675 31.9999Z" fill="#A259FF"/>
</g>
<path d="M1.40909 90V78.3636H8.38636V79.6136H2.81818V83.5455H7.86364V84.7955H2.81818V90H1.40909ZM10.6179 90V81.2727H11.9588V90H10.6179ZM11.2997 79.8182C11.0384 79.8182 10.813 79.7292 10.6236 79.5511C10.438 79.3731 10.3452 79.1591 10.3452 78.9091C10.3452 78.6591 10.438 78.4451 10.6236 78.267C10.813 78.089 11.0384 78 11.2997 78C11.5611 78 11.7846 78.089 11.9702 78.267C12.1596 78.4451 12.2543 78.6591 12.2543 78.9091C12.2543 79.1591 12.1596 79.3731 11.9702 79.5511C11.7846 79.7292 11.5611 79.8182 11.2997 79.8182ZM17.9375 93.4545C17.2898 93.4545 16.733 93.3712 16.267 93.2045C15.8011 93.0417 15.4129 92.8258 15.1023 92.5568C14.7955 92.2917 14.5511 92.0076 14.3693 91.7045L15.4375 90.9545C15.5587 91.1136 15.7121 91.2955 15.8977 91.5C16.0833 91.7083 16.3371 91.8883 16.6591 92.0398C16.9848 92.1951 17.411 92.2727 17.9375 92.2727C18.642 92.2727 19.2235 92.1023 19.6818 91.7614C20.1402 91.4205 20.3693 90.8864 20.3693 90.1591V88.3864H20.2557C20.1572 88.5455 20.017 88.7424 19.8352 88.9773C19.6572 89.2083 19.3996 89.4148 19.0625 89.5966C18.7292 89.7746 18.2784 89.8636 17.7102 89.8636C17.0057 89.8636 16.3731 89.697 15.8125 89.3636C15.2557 89.0303 14.8144 88.5455 14.4886 87.9091C14.1667 87.2727 14.0057 86.5 14.0057 85.5909C14.0057 84.697 14.1629 83.9186 14.4773 83.2557C14.7917 82.589 15.2292 82.0739 15.7898 81.7102C16.3504 81.3428 16.9981 81.1591 17.733 81.1591C18.3011 81.1591 18.7519 81.2538 19.0852 81.4432C19.4223 81.6288 19.6799 81.8409 19.858 82.0795C20.0398 82.3144 20.1799 82.5076 20.2784 82.6591H20.4148V81.2727H21.7102V90.25C21.7102 91 21.5398 91.6098 21.1989 92.0795C20.8617 92.553 20.4072 92.8996 19.8352 93.1193C19.267 93.3428 18.6345 93.4545 17.9375 93.4545ZM17.892 88.6591C18.4299 88.6591 18.8845 88.536 19.2557 88.2898C19.6269 88.0436 19.9091 87.6894 20.1023 87.2273C20.2955 86.7652 20.392 86.2121 20.392 85.5682C20.392 84.9394 20.2973 84.3845 20.108 83.9034C19.9186 83.4223 19.6383 83.0455 19.267 82.7727C18.8958 82.5 18.4375 82.3636 17.892 82.3636C17.3239 82.3636 16.8504 82.5076 16.4716 82.7955C16.0966 83.0833 15.8144 83.4697 15.625 83.9545C15.4394 84.4394 15.3466 84.9773 15.3466 85.5682C15.3466 86.1742 15.4413 86.7102 15.6307 87.1761C15.8239 87.6383 16.108 88.0019 16.483 88.267C16.8617 88.5284 17.3314 88.6591 17.892 88.6591ZM24.1648 90V81.2727H25.4602V82.6364H25.5739C25.7557 82.1705 26.0492 81.8087 26.4545 81.5511C26.8598 81.2898 27.3466 81.1591 27.9148 81.1591C28.4905 81.1591 28.9697 81.2898 29.3523 81.5511C29.7386 81.8087 30.0398 82.1705 30.2557 82.6364H30.3466C30.5701 82.1856 30.9053 81.8277 31.3523 81.5625C31.7992 81.2936 32.3352 81.1591 32.9602 81.1591C33.7405 81.1591 34.3788 81.4034 34.875 81.892C35.3712 82.3769 35.6193 83.1326 35.6193 84.1591V90H34.2784V84.1591C34.2784 83.5152 34.1023 83.0549 33.75 82.7784C33.3977 82.5019 32.983 82.3636 32.5057 82.3636C31.892 82.3636 31.4167 82.5492 31.0795 82.9205C30.7424 83.2879 30.5739 83.7538 30.5739 84.3182V90H29.2102V84.0227C29.2102 83.5265 29.0492 83.1269 28.7273 82.8239C28.4053 82.517 27.9905 82.3636 27.483 82.3636C27.1345 82.3636 26.8087 82.4564 26.5057 82.642C26.2064 82.8277 25.964 83.0852 25.7784 83.4148C25.5966 83.7405 25.5057 84.1174 25.5057 84.5455V90H24.1648ZM40.6392 90.2045C40.0862 90.2045 39.5843 90.1004 39.1335 89.892C38.6828 89.6799 38.3248 89.375 38.0597 88.9773C37.7945 88.5758 37.6619 88.0909 37.6619 87.5227C37.6619 87.0227 37.7604 86.6174 37.9574 86.3068C38.1544 85.9924 38.4176 85.7462 38.7472 85.5682C39.0767 85.3902 39.4403 85.2576 39.8381 85.1705C40.2396 85.0795 40.643 85.0076 41.0483 84.9545C41.5786 84.8864 42.0085 84.8352 42.3381 84.8011C42.6714 84.7633 42.9138 84.7008 43.0653 84.6136C43.2206 84.5265 43.2983 84.375 43.2983 84.1591V84.1136C43.2983 83.553 43.1449 83.1174 42.8381 82.8068C42.535 82.4962 42.0748 82.3409 41.4574 82.3409C40.8172 82.3409 40.3153 82.4811 39.9517 82.7614C39.5881 83.0417 39.3324 83.3409 39.1847 83.6591L37.9119 83.2045C38.1392 82.6742 38.4422 82.2614 38.821 81.9659C39.2036 81.6667 39.6203 81.4583 40.071 81.3409C40.5256 81.2197 40.9725 81.1591 41.4119 81.1591C41.6922 81.1591 42.0142 81.1932 42.3778 81.2614C42.7453 81.3258 43.0994 81.4602 43.4403 81.6648C43.785 81.8693 44.071 82.178 44.2983 82.5909C44.5256 83.0038 44.6392 83.5568 44.6392 84.25V90H43.2983V88.8182H43.2301C43.1392 89.0076 42.9877 89.2102 42.7756 89.4261C42.5634 89.642 42.2813 89.8258 41.929 89.9773C41.5767 90.1288 41.1468 90.2045 40.6392 90.2045ZM40.8438 89C41.3741 89 41.821 88.8958 42.1847 88.6875C42.5521 88.4792 42.8286 88.2102 43.0142 87.8807C43.2036 87.5511 43.2983 87.2045 43.2983 86.8409V85.6136C43.2415 85.6818 43.1165 85.7443 42.9233 85.8011C42.7339 85.8542 42.5142 85.9015 42.2642 85.9432C42.018 85.9811 41.7775 86.0152 41.5426 86.0455C41.3116 86.072 41.1241 86.0947 40.9801 86.1136C40.6316 86.1591 40.3059 86.233 40.0028 86.3352C39.7036 86.4337 39.4612 86.5833 39.2756 86.7841C39.0938 86.9811 39.0028 87.25 39.0028 87.5909C39.0028 88.0568 39.1752 88.4091 39.5199 88.6477C39.8684 88.8826 40.3097 89 40.8438 89Z" fill="#4B5563"/>
</g>
<defs>
<clipPath id="clip0_327_542">
<rect width="46" height="96" fill="white"/>
</clipPath>
<clipPath id="clip1_327_542">
<rect width="42.6667" height="64" fill="white" transform="translate(1.66675)"/>
</clipPath>
</defs>
</svg>
