<svg width="78" height="96" viewBox="0 0 64 96" fill="none" xmlns="http://www.w3.org/2000/svg">
<g clip-path="url(#clip0_327_564)">
<path d="M56.2668 29.4667L34.5334 7.73342C33.8667 7.06675 32.9334 6.66675 32.0001 6.66675C31.0667 6.66675 30.1334 7.06675 29.4667 7.73342L24.8001 12.4001L30.2668 17.8667C30.8001 17.6001 31.3334 17.4667 32.0001 17.4667C34.2667 17.4667 36.0001 19.2001 36.0001 21.4667C36.0001 22.1334 35.8668 22.6667 35.6001 23.2001L40.9334 28.5334C41.4668 28.2667 42.0001 28.1334 42.6667 28.1334C44.9334 28.1334 46.6667 29.8667 46.6667 32.1334C46.6667 34.4001 44.9334 36.1334 42.6667 36.1334C40.4001 36.1334 38.6667 34.4001 38.6667 32.1334C38.6667 31.4667 38.8001 30.9334 39.0667 30.4001L33.7334 25.0667C33.6001 25.0667 33.4667 25.2001 33.3334 25.2001V39.0667C34.9334 39.6001 36.0001 41.0667 36.0001 42.8001C36.0001 45.0667 34.2667 46.8001 32.0001 46.8001C29.7334 46.8001 28.0001 45.0667 28.0001 42.8001C28.0001 41.0667 29.0667 39.6001 30.6667 39.0667V25.0667C29.0667 24.5334 28.0001 23.0667 28.0001 21.3334C28.0001 20.6667 28.1334 20.1334 28.4001 19.6001L22.9334 14.1334L7.73342 29.4667C7.06675 30.1334 6.66675 31.0667 6.66675 32.0001C6.66675 32.9334 7.06675 33.8667 7.73342 34.5334L29.4667 56.2668C30.1334 56.9334 31.0667 57.3334 32.0001 57.3334C32.9334 57.3334 33.8667 56.9334 34.5334 56.2668L56.2668 34.5334C56.9334 33.8667 57.3334 32.9334 57.3334 32.0001C57.3334 31.0667 56.9334 30.1334 56.2668 29.4667Z" fill="#F4511E"/>
<path d="M29.8636 82C29.7386 81.6174 29.5739 81.2746 29.3693 80.9716C29.1686 80.6648 28.928 80.4034 28.6477 80.1875C28.3712 79.9716 28.0568 79.8068 27.7045 79.6932C27.3523 79.5795 26.9659 79.5227 26.5455 79.5227C25.8561 79.5227 25.2292 79.7008 24.6648 80.0568C24.1004 80.4129 23.6515 80.9375 23.3182 81.6307C22.9848 82.3239 22.8182 83.1742 22.8182 84.1818C22.8182 85.1894 22.9867 86.0398 23.3239 86.733C23.661 87.4261 24.1174 87.9508 24.6932 88.3068C25.2689 88.6629 25.9167 88.8409 26.6364 88.8409C27.303 88.8409 27.8902 88.6989 28.3977 88.4148C28.9091 88.1269 29.3068 87.7216 29.5909 87.1989C29.8788 86.6723 30.0227 86.053 30.0227 85.3409L30.4545 85.4318H26.9545V84.1818H31.3864V85.4318C31.3864 86.3902 31.1818 87.2235 30.7727 87.9318C30.3674 88.6402 29.8068 89.1894 29.0909 89.5795C28.3788 89.9659 27.5606 90.1591 26.6364 90.1591C25.6061 90.1591 24.7008 89.9167 23.9205 89.4318C23.1439 88.947 22.5379 88.2576 22.1023 87.3636C21.6705 86.4697 21.4545 85.4091 21.4545 84.1818C21.4545 83.2614 21.5777 82.4337 21.8239 81.6989C22.0739 80.9602 22.4261 80.3314 22.8807 79.8125C23.3352 79.2936 23.8731 78.8958 24.4943 78.6193C25.1155 78.3428 25.7992 78.2045 26.5455 78.2045C27.1591 78.2045 27.7311 78.2973 28.2614 78.483C28.7955 78.6648 29.2708 78.9242 29.6875 79.2614C30.108 79.5947 30.4583 79.9943 30.7386 80.4602C31.0189 80.9223 31.2121 81.4356 31.3182 82H29.8636ZM34.1648 90V81.2727H35.5057V90H34.1648ZM34.8466 79.8182C34.5852 79.8182 34.3598 79.7292 34.1705 79.5511C33.9848 79.3731 33.892 79.1591 33.892 78.9091C33.892 78.6591 33.9848 78.4451 34.1705 78.267C34.3598 78.089 34.5852 78 34.8466 78C35.108 78 35.3314 78.089 35.517 78.267C35.7064 78.4451 35.8011 78.6591 35.8011 78.9091C35.8011 79.1591 35.7064 79.3731 35.517 79.5511C35.3314 79.7292 35.108 79.8182 34.8466 79.8182ZM41.7571 81.2727V82.4091H37.2344V81.2727H41.7571ZM38.5526 79.1818H39.8935V87.5C39.8935 87.8788 39.9484 88.1629 40.0582 88.3523C40.1719 88.5379 40.3158 88.6629 40.4901 88.7273C40.6681 88.7879 40.8556 88.8182 41.0526 88.8182C41.2003 88.8182 41.3215 88.8106 41.4162 88.7955C41.5109 88.7765 41.5866 88.7614 41.6435 88.75L41.9162 89.9545C41.8253 89.9886 41.6984 90.0227 41.5355 90.0568C41.3726 90.0947 41.1662 90.1136 40.9162 90.1136C40.5374 90.1136 40.1662 90.0322 39.8026 89.8693C39.4427 89.7064 39.1435 89.4583 38.9048 89.125C38.67 88.7917 38.5526 88.3712 38.5526 87.8636V79.1818Z" fill="#4B5563"/>
</g>
<defs>
<clipPath id="clip0_327_564">
<rect width="64" height="96" fill="white"/>
</clipPath>
</defs>
</svg>
