<svg width="78" height="96" viewBox="0 0 75 96" fill="none" xmlns="http://www.w3.org/2000/svg">
<g clip-path="url(#clip0_327_526)">
<g clip-path="url(#clip1_327_526)">
<path d="M43.2076 7.13325C40.5096 3.94632 38.1864 0.709589 37.7118 0.0373468C37.6618 -0.0124489 37.5868 -0.0124489 37.5369 0.0373468C37.0622 0.709589 34.739 3.94632 32.041 7.13325C8.88365 36.5376 35.6883 56.3813 35.6883 56.3813L35.9131 56.5306C36.1129 59.5932 36.6126 64 36.6126 64H37.6118H38.6111C38.6111 64 39.1107 59.618 39.3105 56.5306L39.5353 56.3565C39.5603 56.3565 66.3649 36.5376 43.2076 7.13325ZM37.6118 55.933C37.6118 55.933 36.4127 54.9123 36.088 54.3893V54.3397L37.5369 22.3209C37.5369 22.2213 37.6868 22.2213 37.6868 22.3209L39.1357 54.3397V54.3893C38.8109 54.9123 37.6118 55.933 37.6118 55.933Z" fill="#00684A"/>
</g>
<path d="M1.40909 78.3636H3.09091L7.04545 88.0227H7.18182L11.1364 78.3636H12.8182V90H11.5V81.1591H11.3864L7.75 90H6.47727L2.84091 81.1591H2.72727V90H1.40909V78.3636ZM19.0071 90.1818C18.2192 90.1818 17.5279 89.9943 16.9332 89.6193C16.3423 89.2443 15.8802 88.7197 15.5469 88.0455C15.2173 87.3712 15.0526 86.5833 15.0526 85.6818C15.0526 84.7727 15.2173 83.9792 15.5469 83.3011C15.8802 82.6231 16.3423 82.0966 16.9332 81.7216C17.5279 81.3466 18.2192 81.1591 19.0071 81.1591C19.795 81.1591 20.4844 81.3466 21.0753 81.7216C21.67 82.0966 22.1321 82.6231 22.4616 83.3011C22.795 83.9792 22.9616 84.7727 22.9616 85.6818C22.9616 86.5833 22.795 87.3712 22.4616 88.0455C22.1321 88.7197 21.67 89.2443 21.0753 89.6193C20.4844 89.9943 19.795 90.1818 19.0071 90.1818ZM19.0071 88.9773C19.6056 88.9773 20.098 88.8239 20.4844 88.517C20.8707 88.2102 21.1567 87.8068 21.3423 87.3068C21.5279 86.8068 21.6207 86.2652 21.6207 85.6818C21.6207 85.0985 21.5279 84.5549 21.3423 84.0511C21.1567 83.5473 20.8707 83.1402 20.4844 82.8295C20.098 82.5189 19.6056 82.3636 19.0071 82.3636C18.4086 82.3636 17.9162 82.5189 17.5298 82.8295C17.1435 83.1402 16.8575 83.5473 16.6719 84.0511C16.4863 84.5549 16.3935 85.0985 16.3935 85.6818C16.3935 86.2652 16.4863 86.8068 16.6719 87.3068C16.8575 87.8068 17.1435 88.2102 17.5298 88.517C17.9162 88.8239 18.4086 88.9773 19.0071 88.9773ZM26.3494 84.75V90H25.0085V81.2727H26.304V82.6364H26.4176C26.6222 82.1932 26.9328 81.8371 27.3494 81.5682C27.7661 81.2955 28.304 81.1591 28.9631 81.1591C29.554 81.1591 30.071 81.2803 30.5142 81.5227C30.9574 81.7614 31.3021 82.125 31.5483 82.6136C31.7945 83.0985 31.9176 83.7121 31.9176 84.4545V90H30.5767V84.5455C30.5767 83.8598 30.3987 83.3258 30.0426 82.9432C29.6866 82.5568 29.1979 82.3636 28.5767 82.3636C28.1487 82.3636 27.7661 82.4564 27.429 82.642C27.0956 82.8277 26.8324 83.0985 26.6392 83.4545C26.446 83.8106 26.3494 84.2424 26.3494 84.75ZM37.8906 93.4545C37.2429 93.4545 36.6861 93.3712 36.2202 93.2045C35.7543 93.0417 35.366 92.8258 35.0554 92.5568C34.7486 92.2917 34.5043 92.0076 34.3224 91.7045L35.3906 90.9545C35.5118 91.1136 35.6652 91.2955 35.8509 91.5C36.0365 91.7083 36.2902 91.8883 36.6122 92.0398C36.938 92.1951 37.3641 92.2727 37.8906 92.2727C38.5952 92.2727 39.1766 92.1023 39.6349 91.7614C40.0933 91.4205 40.3224 90.8864 40.3224 90.1591V88.3864H40.2088C40.1103 88.5455 39.9702 88.7424 39.7884 88.9773C39.6103 89.2083 39.3527 89.4148 39.0156 89.5966C38.6823 89.7746 38.2315 89.8636 37.6634 89.8636C36.9588 89.8636 36.3262 89.697 35.7656 89.3636C35.2088 89.0303 34.7675 88.5455 34.4418 87.9091C34.1198 87.2727 33.9588 86.5 33.9588 85.5909C33.9588 84.697 34.116 83.9186 34.4304 83.2557C34.7448 82.589 35.1823 82.0739 35.7429 81.7102C36.3035 81.3428 36.9512 81.1591 37.6861 81.1591C38.2543 81.1591 38.705 81.2538 39.0384 81.4432C39.3755 81.6288 39.633 81.8409 39.8111 82.0795C39.9929 82.3144 40.133 82.5076 40.2315 82.6591H40.3679V81.2727H41.6634V90.25C41.6634 91 41.4929 91.6098 41.152 92.0795C40.8149 92.553 40.3603 92.8996 39.7884 93.1193C39.2202 93.3428 38.5876 93.4545 37.8906 93.4545ZM37.8452 88.6591C38.383 88.6591 38.8376 88.536 39.2088 88.2898C39.58 88.0436 39.8622 87.6894 40.0554 87.2273C40.2486 86.7652 40.3452 86.2121 40.3452 85.5682C40.3452 84.9394 40.2505 84.3845 40.0611 83.9034C39.8717 83.4223 39.5914 83.0455 39.2202 82.7727C38.849 82.5 38.3906 82.3636 37.8452 82.3636C37.277 82.3636 36.8035 82.5076 36.4247 82.7955C36.0497 83.0833 35.7675 83.4697 35.5781 83.9545C35.3925 84.4394 35.2997 84.9773 35.2997 85.5682C35.2997 86.1742 35.3944 86.7102 35.5838 87.1761C35.777 87.6383 36.0611 88.0019 36.4361 88.267C36.8149 88.5284 37.2846 88.6591 37.8452 88.6591ZM47.6634 90.1818C46.8755 90.1818 46.1842 89.9943 45.5895 89.6193C44.9986 89.2443 44.5365 88.7197 44.2031 88.0455C43.8736 87.3712 43.7088 86.5833 43.7088 85.6818C43.7088 84.7727 43.8736 83.9792 44.2031 83.3011C44.5365 82.6231 44.9986 82.0966 45.5895 81.7216C46.1842 81.3466 46.8755 81.1591 47.6634 81.1591C48.4512 81.1591 49.1406 81.3466 49.7315 81.7216C50.3262 82.0966 50.7884 82.6231 51.1179 83.3011C51.4512 83.9792 51.6179 84.7727 51.6179 85.6818C51.6179 86.5833 51.4512 87.3712 51.1179 88.0455C50.7884 88.7197 50.3262 89.2443 49.7315 89.6193C49.1406 89.9943 48.4512 90.1818 47.6634 90.1818ZM47.6634 88.9773C48.2618 88.9773 48.7543 88.8239 49.1406 88.517C49.527 88.2102 49.813 87.8068 49.9986 87.3068C50.1842 86.8068 50.277 86.2652 50.277 85.6818C50.277 85.0985 50.1842 84.5549 49.9986 84.0511C49.813 83.5473 49.527 83.1402 49.1406 82.8295C48.7543 82.5189 48.2618 82.3636 47.6634 82.3636C47.0649 82.3636 46.5724 82.5189 46.1861 82.8295C45.7997 83.1402 45.5137 83.5473 45.3281 84.0511C45.1425 84.5549 45.0497 85.0985 45.0497 85.6818C45.0497 86.2652 45.1425 86.8068 45.3281 87.3068C45.5137 87.8068 45.7997 88.2102 46.1861 88.517C46.5724 88.8239 47.0649 88.9773 47.6634 88.9773ZM57.4375 90H53.8466V78.3636H57.5966C58.7254 78.3636 59.6913 78.5966 60.4943 79.0625C61.2973 79.5246 61.9129 80.1894 62.3409 81.0568C62.7689 81.9205 62.983 82.9545 62.983 84.1591C62.983 85.3712 62.767 86.4148 62.3352 87.2898C61.9034 88.161 61.2746 88.8314 60.4489 89.3011C59.6231 89.767 58.6193 90 57.4375 90ZM55.2557 88.75H57.3466C58.3087 88.75 59.1061 88.5644 59.7386 88.1932C60.3712 87.822 60.8428 87.2936 61.1534 86.608C61.464 85.9223 61.6193 85.1061 61.6193 84.1591C61.6193 83.2197 61.4659 82.411 61.1591 81.733C60.8523 81.0511 60.3939 80.5284 59.7841 80.1648C59.1742 79.7973 58.4148 79.6136 57.5057 79.6136H55.2557V88.75ZM65.3466 90V78.3636H69.4148C70.2254 78.3636 70.8939 78.5038 71.4205 78.7841C71.947 79.0606 72.339 79.4337 72.5966 79.9034C72.8542 80.3693 72.983 80.8864 72.983 81.4545C72.983 81.9545 72.8939 82.3674 72.7159 82.6932C72.5417 83.0189 72.3106 83.2765 72.0227 83.4659C71.7386 83.6553 71.4299 83.7955 71.0966 83.8864V84C71.4527 84.0227 71.8106 84.1477 72.1705 84.375C72.5303 84.6023 72.8314 84.928 73.0739 85.3523C73.3163 85.7765 73.4375 86.2955 73.4375 86.9091C73.4375 87.4924 73.3049 88.017 73.0398 88.483C72.7746 88.9489 72.3561 89.3182 71.7841 89.5909C71.2121 89.8636 70.4678 90 69.5511 90H65.3466ZM66.7557 88.75H69.5511C70.4716 88.75 71.125 88.572 71.5114 88.2159C71.9015 87.8561 72.0966 87.4205 72.0966 86.9091C72.0966 86.5152 71.9962 86.1515 71.7955 85.8182C71.5947 85.4811 71.3087 85.2121 70.9375 85.0114C70.5663 84.8068 70.1269 84.7045 69.6193 84.7045H66.7557V88.75ZM66.7557 83.4773H69.3693C69.7936 83.4773 70.1761 83.3939 70.517 83.2273C70.8617 83.0606 71.1345 82.8258 71.3352 82.5227C71.5398 82.2197 71.642 81.8636 71.642 81.4545C71.642 80.9432 71.464 80.5095 71.108 80.1534C70.7519 79.7936 70.1875 79.6136 69.4148 79.6136H66.7557V83.4773Z" fill="#4B5563"/>
</g>
<defs>
<clipPath id="clip0_327_526">
<rect width="75" height="96" fill="white"/>
</clipPath>
<clipPath id="clip1_327_526">
<rect width="29.7674" height="64" fill="white" transform="translate(22.6162)"/>
</clipPath>
</defs>
</svg>
