<svg width="78" height="96" viewBox="0 0 67 100" fill="none" xmlns="http://www.w3.org/2000/svg">
<g clip-path="url(#clip0_327_514)">
<path fill-rule="evenodd" clip-rule="evenodd" d="M38.2875 3.06177C37.8357 3.06177 37.4162 3.15886 37.029 3.2883C37.8519 3.83845 38.3036 4.5666 38.5295 5.39183C38.5457 5.50509 38.5779 5.586 38.5941 5.69926C38.6103 5.79635 38.6263 5.89344 38.6263 5.99053C38.6909 7.41445 38.2552 7.59244 37.9487 8.43385C37.4808 9.51798 37.6098 10.683 38.1746 11.6215C38.223 11.7348 38.2875 11.8642 38.3682 11.9775C37.7551 7.8837 41.1595 7.26882 41.7888 5.99053C41.8372 4.87404 40.9175 4.12971 40.1914 3.61192C39.4976 3.19122 38.8684 3.06177 38.2875 3.06177ZM43.4184 3.98408C43.3539 4.35624 43.4023 4.25916 43.3862 4.45333C43.3701 4.58278 43.3701 4.74459 43.354 4.87404C43.3217 5.00348 43.2894 5.13293 43.241 5.26238C43.2088 5.39183 43.1603 5.52128 43.1119 5.65072C43.0474 5.78018 42.999 5.89344 42.9344 6.02288C42.886 6.08764 42.8538 6.15233 42.8054 6.21706C42.7731 6.2656 42.7408 6.31414 42.7086 6.36269C42.6279 6.47596 42.5472 6.58922 42.4665 6.6863C42.3697 6.78339 42.289 6.89666 42.1761 6.97757V6.99377C42.0793 7.07467 41.9825 7.17176 41.8695 7.25266C41.5307 7.51155 41.1435 7.70573 40.7885 7.94844C40.6755 8.02935 40.5626 8.09407 40.4658 8.19116C40.3528 8.27206 40.256 8.35296 40.1592 8.45005C40.0463 8.54714 39.9656 8.64423 39.8688 8.75749C39.7881 8.85458 39.6913 8.96784 39.6268 9.08111C39.5461 9.19438 39.4654 9.30765 39.4009 9.42091C39.3363 9.55035 39.2879 9.66363 39.2234 9.79307C39.175 9.92252 39.1266 10.0358 39.0943 10.1652C39.0459 10.3109 39.0136 10.4403 38.9814 10.5698C38.9652 10.6345 38.9652 10.7154 38.9491 10.7801C38.9329 10.8449 38.9329 10.9096 38.9169 10.9743C38.9169 11.1037 38.9007 11.2494 38.9007 11.3788C38.9007 11.4759 38.9007 11.573 38.9169 11.6701C38.9169 11.7995 38.933 11.929 38.9653 12.0746C38.9814 12.204 39.0137 12.3335 39.046 12.4629C39.0944 12.5924 39.1266 12.7218 39.175 12.8513C39.2073 12.9322 39.2557 13.0131 39.288 13.0778L35.5769 11.6377C34.9477 11.4597 34.3345 11.2979 33.7053 11.1523C33.3664 11.0714 33.0276 10.9905 32.6888 10.9096C31.7206 10.7154 30.7364 10.5698 29.7522 10.4727C29.7199 10.4727 29.7038 10.4565 29.6715 10.4565C28.7034 10.3594 27.7514 10.3108 26.7833 10.3108C26.0734 10.3108 25.3634 10.3432 24.6696 10.3917C23.6854 10.4565 22.7012 10.5859 21.7169 10.7477C21.4749 10.7801 21.2329 10.8286 20.9908 10.8772C20.4907 10.9743 20.0066 11.0875 19.5387 11.2008C19.2967 11.2656 19.0546 11.3302 18.8126 11.395C18.5706 11.4921 18.3447 11.6053 18.1188 11.7024C17.9413 11.7833 17.7638 11.8642 17.5864 11.9451C17.5541 11.9613 17.5218 11.9613 17.5057 11.9775C17.3443 12.0584 17.1991 12.1231 17.0539 12.204C17.0055 12.2202 16.9732 12.2363 16.941 12.2525C16.7635 12.3334 16.586 12.4305 16.4408 12.5114C16.3278 12.56 16.2149 12.6247 16.1181 12.6732C16.0697 12.7056 16.0051 12.738 15.9729 12.7541C15.8276 12.8351 15.6824 12.916 15.5533 12.9969C15.4081 13.0778 15.279 13.1587 15.1661 13.2396C15.0532 13.3205 14.9402 13.3852 14.8434 13.4661C14.8272 13.4823 14.8112 13.4823 14.795 13.4984C14.6982 13.5632 14.5852 13.6441 14.4884 13.725C14.4884 13.725 14.4723 13.7412 14.4562 13.7573C14.3755 13.8221 14.2948 13.8868 14.2142 13.9515C14.1819 13.9677 14.1496 14 14.1174 14.0162C14.0367 14.081 13.956 14.1619 13.8753 14.2266C13.8592 14.2589 13.8269 14.2751 13.8108 14.2913C13.714 14.3884 13.6171 14.4693 13.5203 14.5664C13.5042 14.5664 13.5042 14.5826 13.4881 14.5988C13.3913 14.6797 13.2945 14.7767 13.1977 14.8738C13.1815 14.89 13.1815 14.9062 13.1654 14.9062C13.0847 14.9871 13.0041 15.068 12.9234 15.1651C12.8911 15.1974 12.8427 15.2298 12.8104 15.2621C12.7298 15.3592 12.633 15.4563 12.5361 15.5534C12.52 15.5857 12.4877 15.6019 12.4716 15.6343C12.3425 15.7638 12.2296 15.8932 12.1005 16.0227C12.0843 16.0389 12.0682 16.055 12.0521 16.0712C11.7939 16.3463 11.5196 16.6213 11.2292 16.8641C10.9388 17.123 10.6322 17.3657 10.3256 17.576C10.0029 17.8026 9.69635 17.9967 9.35752 18.1909C9.03481 18.3689 8.69598 18.5307 8.34101 18.6763C8.00217 18.822 7.6472 18.9514 7.29223 19.0647C6.61456 19.2103 5.92075 19.4854 5.32376 19.5339C5.19468 19.5339 5.04946 19.5663 4.92038 19.5825C4.77517 19.6148 4.64609 19.6472 4.51701 19.6796C4.38793 19.7281 4.25884 19.7766 4.12977 19.8252C4.00069 19.8737 3.87161 19.9384 3.74253 20.0032C3.62958 20.0841 3.5005 20.1488 3.38755 20.2297C3.27461 20.3106 3.16166 20.4077 3.06485 20.5048C2.95191 20.5857 2.83896 20.699 2.74215 20.796C2.64534 20.9093 2.54853 21.0064 2.46786 21.1197C2.38718 21.2491 2.29037 21.3624 2.22583 21.4918C2.14516 21.6051 2.06448 21.7345 1.99994 21.864C1.93537 22.0096 1.87086 22.1391 1.82246 22.2847C1.77405 22.4141 1.72564 22.5598 1.67724 22.7054C1.64499 22.8348 1.61267 22.9643 1.59657 23.0937C1.59657 23.11 1.58041 23.1261 1.58041 23.1423C1.54816 23.2879 1.54816 23.4821 1.532 23.5792C1.51584 23.6924 1.49976 23.7895 1.49976 23.9028C1.49976 23.9675 1.49976 24.0484 1.51592 24.1131C1.53208 24.2264 1.54816 24.3235 1.58048 24.4206C1.61273 24.5177 1.64505 24.6147 1.69342 24.7118V24.728C1.74183 24.8251 1.80637 24.9222 1.87091 25.0193C1.93547 25.1164 1.99999 25.2135 2.08067 25.3106C2.16134 25.3915 2.25815 25.4885 2.35496 25.5695C2.45177 25.6665 2.54858 25.7474 2.66152 25.8283C3.04877 26.1681 3.14558 26.2814 3.64576 26.5403C3.72644 26.5889 3.80712 26.6212 3.90393 26.6698C3.92009 26.6698 3.93617 26.686 3.95233 26.686C3.95233 26.7183 3.95233 26.7345 3.9685 26.7669C3.98466 26.8963 4.0169 27.0258 4.04917 27.1552C4.08141 27.3008 4.12985 27.4303 4.17826 27.5436C4.22666 27.6406 4.25893 27.7377 4.30733 27.8348C4.32349 27.8672 4.33958 27.8996 4.35574 27.9157C4.42031 28.0452 4.48482 28.1584 4.54935 28.2717C4.63004 28.385 4.71071 28.4982 4.79138 28.6115C4.87206 28.7086 4.96887 28.8219 5.06568 28.9189C5.16249 29.016 5.2593 29.0969 5.37225 29.194C5.37225 29.194 5.38841 29.2102 5.40449 29.2102C5.5013 29.2911 5.59811 29.3721 5.69493 29.4368C5.80787 29.5177 5.92081 29.5824 6.04989 29.6471C6.16284 29.7119 6.29192 29.7766 6.421 29.8251C6.51781 29.8737 6.63075 29.906 6.7437 29.9384C6.75986 29.9546 6.77594 29.9546 6.80827 29.9707C6.87283 29.987 6.95347 30.0031 7.01802 30.0193C6.96961 30.893 6.95345 31.7183 7.08258 32.0095C7.22779 32.3331 7.93774 31.3461 8.64768 30.2134C8.55087 31.3299 8.48633 32.6406 8.64768 33.0289C8.82516 33.4334 9.79327 32.1713 10.6323 30.7798C22.072 28.1261 32.5114 36.0548 33.6086 47.252C33.3988 45.5044 31.2529 44.5336 30.2686 44.7763C29.7846 45.9737 28.9617 47.5109 27.6386 48.4656C27.7516 47.3976 27.7032 46.2973 27.4773 45.2294C27.1223 46.718 26.4285 48.1096 25.4765 49.307C23.9437 49.4202 22.4109 48.6759 21.6041 47.5594C21.5395 47.5109 21.5234 47.4138 21.475 47.3491C21.4266 47.2358 21.3782 47.1226 21.3459 47.0093C21.2975 46.896 21.2653 46.7827 21.2491 46.6695C21.233 46.5562 21.233 46.4429 21.233 46.3135C21.233 46.2326 21.233 46.1517 21.233 46.0708C21.2491 45.9575 21.2814 45.8442 21.3136 45.731C21.3459 45.6177 21.3782 45.5044 21.4266 45.3912C21.4912 45.2779 21.5395 45.1646 21.6202 45.0514C21.8945 44.2747 21.8945 43.6436 21.3943 43.2715C21.2975 43.2067 21.2007 43.1582 21.0878 43.1097C21.0232 43.0935 20.9425 43.0611 20.878 43.0449C20.8296 43.0287 20.7973 43.0126 20.7489 42.9964C20.636 42.964 20.523 42.9316 20.4101 42.9155C20.2971 42.8831 20.1842 42.8669 20.0713 42.8669C19.9583 42.8507 19.8292 42.8346 19.7163 42.8346C19.6356 42.8346 19.5549 42.8508 19.4743 42.8508C19.3452 42.8508 19.2322 42.867 19.1193 42.8993C19.0063 42.9156 18.8934 42.9317 18.7804 42.9641C18.6675 42.9964 18.5546 43.0288 18.4416 43.0774C18.3287 43.1259 18.2319 43.1744 18.1189 43.223C18.0221 43.2715 17.9253 43.3362 17.8123 43.3848C14.0529 45.8443 16.2957 51.6047 18.8611 53.2714C17.893 53.4493 16.9088 53.6597 16.6345 53.8701C16.6183 53.8863 16.6022 53.9024 16.6022 53.9024C17.2961 54.3231 18.0221 54.6791 18.7805 54.9865C19.8131 55.3263 20.9103 55.6338 21.3944 55.7632V55.7794C22.7336 56.0545 24.0889 56.1516 25.4604 56.0707C32.6082 55.5691 38.4652 50.1161 39.5301 42.9317C39.5624 43.0773 39.5947 43.2068 39.6269 43.3524C39.6754 43.6437 39.7399 43.9511 39.7722 44.2586V44.2748C39.8044 44.4204 39.8206 44.566 39.8367 44.6955V44.7602C39.8529 44.9059 39.869 45.0515 39.869 45.1809C39.8851 45.3589 39.9012 45.5369 39.9012 45.7149V45.9738C39.9012 46.0547 39.9174 46.1518 39.9174 46.2327C39.9174 46.3298 39.9012 46.4269 39.9012 46.524V46.7505C39.9012 46.8638 39.885 46.9608 39.885 47.0741C39.885 47.1389 39.885 47.2036 39.8689 47.2845C39.8689 47.3977 39.8527 47.511 39.8527 47.6404C39.8365 47.689 39.8365 47.7375 39.8365 47.7861C39.8204 47.9155 39.8043 48.0288 39.7881 48.1582C39.7881 48.2068 39.7881 48.2553 39.772 48.3039C39.7558 48.4657 39.7236 48.6113 39.7074 48.7731V48.7893V48.8055C39.6752 48.9512 39.6428 49.113 39.6106 49.2586V49.3072C39.5784 49.4528 39.546 49.5984 39.5138 49.744C39.5138 49.7603 39.4976 49.7926 39.4976 49.8088C39.4654 49.9544 39.4331 50.1 39.3847 50.2457V50.2942C39.3363 50.456 39.2879 50.6016 39.2556 50.7473C39.2395 50.7635 39.2395 50.7796 39.2395 50.7796C39.1911 50.9414 39.1427 51.1032 39.0942 51.265C39.0297 51.4269 38.9813 51.5725 38.9168 51.7343C38.8522 51.8961 38.8038 52.0579 38.7393 52.2035C38.6747 52.3654 38.6102 52.511 38.5457 52.6728H38.5295C38.4649 52.8184 38.4004 52.9802 38.3197 53.1259C38.3036 53.1744 38.2875 53.2068 38.2713 53.2391C38.2552 53.2553 38.2552 53.2715 38.2391 53.2877C37.1903 55.4074 35.6413 57.2682 33.7051 58.7245C33.576 58.8054 33.447 58.9025 33.3179 58.9995C33.2856 59.0319 33.2372 59.0481 33.2049 59.0804C33.092 59.1614 32.979 59.2423 32.85 59.3232L32.8984 59.4203H32.9145C33.1404 59.3879 33.3663 59.3555 33.5922 59.3232H33.6084C34.0279 59.2584 34.4474 59.1775 34.8669 59.0966C34.9798 59.0804 35.1089 59.0481 35.2219 59.0157C35.3025 58.9995 35.3671 58.9834 35.4478 58.9672C35.5607 58.951 35.6736 58.9186 35.7866 58.9024C35.8834 58.8701 35.9802 58.8539 36.077 58.8215C37.6905 58.4332 39.2556 57.8992 40.7562 57.2682C38.1907 60.7794 34.7539 63.6111 30.7363 65.4719C32.5919 65.3425 34.4474 65.035 36.2384 64.5172C42.7408 62.5917 48.2106 58.2066 51.486 52.3006C50.8244 56.0384 49.34 59.5982 47.1457 62.705C48.7108 61.6694 50.1468 60.472 51.4537 59.1128C55.068 55.3264 57.4398 50.5207 58.2466 45.359C58.7951 47.9156 58.9565 50.5531 58.7145 53.1582C70.364 36.8639 59.6826 19.971 55.2132 15.5213C55.197 15.4889 55.1809 15.4727 55.1809 15.4404C55.1647 15.4566 55.1647 15.4566 55.1647 15.4727C55.1647 15.4565 55.1647 15.4565 55.1486 15.4404C55.1486 15.6345 55.1324 15.8287 55.1163 16.0229C55.0679 16.395 55.0195 16.751 54.955 17.107C54.8743 17.463 54.7775 17.8189 54.6807 18.1749C54.5678 18.5147 54.4387 18.8707 54.2935 19.2105C54.1482 19.5341 53.9869 19.8739 53.8094 20.1976C53.6319 20.505 53.4383 20.8286 53.2285 21.1199C53.0188 21.4273 52.7929 21.7186 52.567 21.9936C52.325 22.2849 52.0668 22.5438 51.8087 22.8027C51.6473 22.9483 51.5021 23.0778 51.3407 23.2072C51.2117 23.3205 51.0987 23.4176 50.9696 23.5308C50.6792 23.7574 50.3888 23.9677 50.0661 24.1619C49.7595 24.3561 49.4368 24.5502 49.1141 24.712C48.7753 24.8739 48.4364 25.0195 48.0976 25.1651C47.7588 25.2946 47.4038 25.4078 47.0488 25.5049C46.6939 25.602 46.3228 25.6829 45.9678 25.7476C45.5967 25.8124 45.2256 25.8447 44.8706 25.8771C44.6124 25.8933 44.3543 25.9094 44.0961 25.9094C43.725 25.9094 43.3539 25.8771 42.9989 25.8447C42.6278 25.8123 42.2567 25.7638 41.9018 25.6828C41.5306 25.6181 41.1757 25.521 40.8207 25.4078H40.8046C41.1595 25.3754 41.5145 25.343 41.8695 25.2783C42.2406 25.2136 42.5955 25.1327 42.9505 25.0356C43.3055 24.9385 43.6604 24.8253 43.9993 24.6958C44.3543 24.5664 44.6931 24.4046 45.0158 24.2427C45.3546 24.0809 45.6612 23.9029 45.9839 23.7088C46.2905 23.4984 46.597 23.2881 46.8875 23.0615C47.1779 22.835 47.4522 22.5923 47.7103 22.3334C47.9846 22.0907 48.2267 21.8156 48.4687 21.5405C48.7107 21.2493 48.9366 20.958 49.1464 20.6667C49.1786 20.6182 49.2109 20.5535 49.2432 20.5049C49.4045 20.246 49.5659 19.9871 49.7111 19.7282C49.8886 19.4046 50.0499 19.081 50.1951 18.7412C50.3404 18.4014 50.4694 18.0616 50.5824 17.7056C50.6953 17.3658 50.776 17.0098 50.8567 16.6539C50.9212 16.2817 50.9858 15.9257 51.018 15.5697C51.0503 15.1976 51.0826 14.8254 51.0826 14.4694C51.0826 14.2105 51.0664 13.9516 51.0503 13.6928C51.0181 13.3206 50.9697 12.9646 50.9213 12.6086C50.8567 12.2365 50.7761 11.8805 50.6792 11.5245C50.5663 11.1847 50.4533 10.8287 50.3243 10.4889C50.1952 10.1491 50.0338 9.80932 49.8725 9.4857C49.695 9.16208 49.5175 8.83846 49.3239 8.53103C49.1141 8.22359 48.9044 7.93233 48.6785 7.64107C48.4365 7.36599 48.1944 7.09092 47.9363 6.81584C47.8072 6.6864 47.662 6.54077 47.5168 6.41132C46.7907 5.84498 46.0323 5.31101 45.274 4.82558C45.1611 4.76084 45.0643 4.71232 44.9513 4.66377C44.4188 4.32397 43.9186 4.14589 43.4184 3.98408Z" fill="#E0234E"/>
<path d="M17.1686 80.3636V92H15.805L9.46404 82.8636H9.35041V92H7.94132V80.3636H9.30495L15.6686 89.5227H15.7822V80.3636H17.1686ZM23.4655 92.1818C22.6246 92.1818 21.8992 91.9962 21.2893 91.625C20.6833 91.25 20.2155 90.7273 19.8859 90.0568C19.5602 89.3826 19.3973 88.5985 19.3973 87.7045C19.3973 86.8106 19.5602 86.0227 19.8859 85.3409C20.2155 84.6553 20.6738 84.1212 21.2609 83.7386C21.8518 83.3523 22.5412 83.1591 23.3291 83.1591C23.7836 83.1591 24.2325 83.2348 24.6757 83.3864C25.1189 83.5379 25.5223 83.7841 25.8859 84.125C26.2496 84.4621 26.5393 84.9091 26.7552 85.4659C26.9711 86.0227 27.0791 86.7083 27.0791 87.5227V88.0909H20.3518V86.9318H25.7155C25.7155 86.4394 25.617 86 25.42 85.6136C25.2268 85.2273 24.9503 84.9223 24.5905 84.6989C24.2344 84.4754 23.814 84.3636 23.3291 84.3636C22.795 84.3636 22.3329 84.4962 21.9427 84.7614C21.5564 85.0227 21.259 85.3636 21.0507 85.7841C20.8424 86.2045 20.7382 86.6553 20.7382 87.1364V87.9091C20.7382 88.5682 20.8518 89.1269 21.0791 89.5852C21.3102 90.0398 21.6302 90.3864 22.0393 90.625C22.4484 90.8598 22.9238 90.9773 23.4655 90.9773C23.8177 90.9773 24.1359 90.928 24.42 90.8295C24.7079 90.7273 24.956 90.5758 25.1643 90.375C25.3727 90.1705 25.5336 89.9167 25.6473 89.6136L26.9427 89.9773C26.8064 90.4167 26.5772 90.803 26.2552 91.1364C25.9333 91.4659 25.5355 91.7235 25.0621 91.9091C24.5886 92.0909 24.0564 92.1818 23.4655 92.1818ZM35.3007 85.2273L34.0961 85.5682C34.0204 85.3674 33.9086 85.1723 33.7609 84.983C33.617 84.7898 33.42 84.6307 33.17 84.5057C32.92 84.3807 32.5999 84.3182 32.2098 84.3182C31.6757 84.3182 31.2306 84.4413 30.8746 84.6875C30.5223 84.9299 30.3461 85.2386 30.3461 85.6136C30.3461 85.947 30.4674 86.2102 30.7098 86.4034C30.9522 86.5966 31.331 86.7576 31.8461 86.8864L33.1416 87.2045C33.9219 87.3939 34.5033 87.6837 34.8859 88.0739C35.2685 88.4602 35.4598 88.9583 35.4598 89.5682C35.4598 90.0682 35.3158 90.5152 35.028 90.9091C34.7439 91.303 34.3461 91.6136 33.8348 91.8409C33.3234 92.0682 32.7287 92.1818 32.0507 92.1818C31.1605 92.1818 30.4238 91.9886 29.8405 91.6023C29.2571 91.2159 28.8878 90.6515 28.7325 89.9091L30.0052 89.5909C30.1265 90.0606 30.3556 90.4129 30.6927 90.6477C31.0336 90.8826 31.4787 91 32.028 91C32.653 91 33.1492 90.8674 33.5166 90.6023C33.8878 90.3333 34.0734 90.0114 34.0734 89.6364C34.0734 89.3333 33.9674 89.0795 33.7552 88.875C33.5431 88.6667 33.2174 88.5114 32.778 88.4091L31.3234 88.0682C30.5242 87.8788 29.9371 87.5852 29.5621 87.1875C29.1908 86.786 29.0052 86.2841 29.0052 85.6818C29.0052 85.1894 29.1435 84.7538 29.42 84.375C29.7003 83.9962 30.081 83.6989 30.5621 83.483C31.0469 83.267 31.5961 83.1591 32.2098 83.1591C33.0734 83.1591 33.7515 83.3485 34.2439 83.7273C34.7401 84.1061 35.0924 84.6061 35.3007 85.2273ZM41.2737 83.2727V84.4091H36.751V83.2727H41.2737ZM38.0692 81.1818H39.4101V89.5C39.4101 89.8788 39.465 90.1629 39.5748 90.3523C39.6885 90.5379 39.8324 90.6629 40.0067 90.7273C40.1847 90.7879 40.3722 90.8182 40.5692 90.8182C40.7169 90.8182 40.8381 90.8106 40.9328 90.7955C41.0275 90.7765 41.1032 90.7614 41.1601 90.75L41.4328 91.9545C41.3419 91.9886 41.215 92.0227 41.0521 92.0568C40.8892 92.0947 40.6828 92.1136 40.4328 92.1136C40.054 92.1136 39.6828 92.0322 39.3192 91.8693C38.9593 91.7064 38.6601 91.4583 38.4214 91.125C38.1866 90.7917 38.0692 90.3712 38.0692 89.8636V81.1818ZM44.268 92.0909C43.9877 92.0909 43.7472 91.9905 43.5464 91.7898C43.3457 91.589 43.2453 91.3485 43.2453 91.0682C43.2453 90.7879 43.3457 90.5473 43.5464 90.3466C43.7472 90.1458 43.9877 90.0455 44.268 90.0455C44.5483 90.0455 44.7889 90.1458 44.9896 90.3466C45.1904 90.5473 45.2907 90.7879 45.2907 91.0682C45.2907 91.2538 45.2434 91.4242 45.1487 91.5795C45.0578 91.7348 44.9347 91.8598 44.7794 91.9545C44.6279 92.0455 44.4574 92.0909 44.268 92.0909ZM47.697 83.2727H49.0379V92.6364C49.0379 93.1742 48.9451 93.6402 48.7595 94.0341C48.5777 94.428 48.3012 94.733 47.93 94.9489C47.5625 95.1648 47.0985 95.2727 46.5379 95.2727C46.4925 95.2727 46.447 95.2727 46.4015 95.2727C46.3561 95.2727 46.3106 95.2727 46.2652 95.2727V94.0227C46.3106 94.0227 46.3523 94.0227 46.3902 94.0227C46.4281 94.0227 46.4697 94.0227 46.5152 94.0227C46.9243 94.0227 47.2235 93.9015 47.4129 93.6591C47.6023 93.4205 47.697 93.0795 47.697 92.6364V83.2727ZM48.3561 81.8182C48.0947 81.8182 47.8693 81.7292 47.68 81.5511C47.4943 81.3731 47.4015 81.1591 47.4015 80.9091C47.4015 80.6591 47.4943 80.4451 47.68 80.267C47.8693 80.089 48.0947 80 48.3561 80C48.6175 80 48.8409 80.089 49.0265 80.267C49.2159 80.4451 49.3106 80.6591 49.3106 80.9091C49.3106 81.1591 49.2159 81.3731 49.0265 81.5511C48.8409 81.7292 48.6175 81.8182 48.3561 81.8182ZM57.6757 85.2273L56.4711 85.5682C56.3954 85.3674 56.2836 85.1723 56.1359 84.983C55.992 84.7898 55.795 84.6307 55.545 84.5057C55.295 84.3807 54.9749 84.3182 54.5848 84.3182C54.0507 84.3182 53.6056 84.4413 53.2496 84.6875C52.8973 84.9299 52.7211 85.2386 52.7211 85.6136C52.7211 85.947 52.8424 86.2102 53.0848 86.4034C53.3272 86.5966 53.706 86.7576 54.2211 86.8864L55.5166 87.2045C56.2969 87.3939 56.8783 87.6837 57.2609 88.0739C57.6435 88.4602 57.8348 88.9583 57.8348 89.5682C57.8348 90.0682 57.6908 90.5152 57.403 90.9091C57.1189 91.303 56.7211 91.6136 56.2098 91.8409C55.6984 92.0682 55.1037 92.1818 54.4257 92.1818C53.5355 92.1818 52.7988 91.9886 52.2155 91.6023C51.6321 91.2159 51.2628 90.6515 51.1075 89.9091L52.3802 89.5909C52.5015 90.0606 52.7306 90.4129 53.0677 90.6477C53.4086 90.8826 53.8537 91 54.403 91C55.028 91 55.5242 90.8674 55.8916 90.6023C56.2628 90.3333 56.4484 90.0114 56.4484 89.6364C56.4484 89.3333 56.3424 89.0795 56.1302 88.875C55.9181 88.6667 55.5924 88.5114 55.153 88.4091L53.6984 88.0682C52.8992 87.8788 52.3121 87.5852 51.9371 87.1875C51.5658 86.786 51.3802 86.2841 51.3802 85.6818C51.3802 85.1894 51.5185 84.7538 51.795 84.375C52.0753 83.9962 52.456 83.6989 52.9371 83.483C53.4219 83.267 53.9711 83.1591 54.5848 83.1591C55.4484 83.1591 56.1265 83.3485 56.6189 83.7273C57.1151 84.1061 57.4674 84.6061 57.6757 85.2273Z" fill="#4B5563"/>
</g>
<defs>
<clipPath id="clip0_327_514">
<rect width="66.0645" height="100" fill="white"/>
</clipPath>
</defs>
</svg>
