<svg width="78" height="96" viewBox="0 0 64 100" fill="none" xmlns="http://www.w3.org/2000/svg">
<g clip-path="url(#clip0_327_495)">
<mask id="mask0_327_495" style="mask-type:alpha" maskUnits="userSpaceOnUse" x="0" y="2" width="64" height="64">
<path d="M32 66C49.6731 66 64 51.6731 64 34C64 16.3269 49.6731 2 32 2C14.3269 2 0 16.3269 0 34C0 51.6731 14.3269 66 32 66Z" fill="black"/>
</mask>
<g mask="url(#mask0_327_495)">
<path d="M32 64.9333C49.084 64.9333 62.9333 51.084 62.9333 34C62.9333 16.916 49.084 3.06665 32 3.06665C14.916 3.06665 1.06665 16.916 1.06665 34C1.06665 51.084 14.916 64.9333 32 64.9333Z" fill="black" stroke="white" stroke-width="6"/>
<path d="M53.1584 58.0071L24.5838 21.2H19.2V46.7893H23.507V26.6697L49.7774 60.6115C50.9628 59.8183 52.092 58.9475 53.1584 58.0071Z" fill="url(#paint0_linear_327_495)"/>
<path d="M45.1556 21.2H40.8889V46.8H45.1556V21.2Z" fill="url(#paint1_linear_327_495)"/>
</g>
</g>
<path d="M16.1364 80.3636V92H14.7727L8.43182 82.8636H8.31818V92H6.90909V80.3636H8.27273L14.6364 89.5227H14.75V80.3636H16.1364ZM22.4332 92.1818C21.5923 92.1818 20.867 91.9962 20.2571 91.625C19.651 91.25 19.1832 90.7273 18.8537 90.0568C18.5279 89.3826 18.3651 88.5985 18.3651 87.7045C18.3651 86.8106 18.5279 86.0227 18.8537 85.3409C19.1832 84.6553 19.6416 84.1212 20.2287 83.7386C20.8196 83.3523 21.509 83.1591 22.2969 83.1591C22.7514 83.1591 23.2003 83.2348 23.6435 83.3864C24.0866 83.5379 24.4901 83.7841 24.8537 84.125C25.2173 84.4621 25.5071 84.9091 25.723 85.4659C25.9389 86.0227 26.0469 86.7083 26.0469 87.5227V88.0909H19.3196V86.9318H24.6832C24.6832 86.4394 24.5848 86 24.3878 85.6136C24.1946 85.2273 23.9181 84.9223 23.5582 84.6989C23.2022 84.4754 22.7817 84.3636 22.2969 84.3636C21.7628 84.3636 21.3007 84.4962 20.9105 84.7614C20.5241 85.0227 20.2268 85.3636 20.0185 85.7841C19.8101 86.2045 19.706 86.6553 19.706 87.1364V87.9091C19.706 88.5682 19.8196 89.1269 20.0469 89.5852C20.2779 90.0398 20.598 90.3864 21.0071 90.625C21.4162 90.8598 21.8916 90.9773 22.4332 90.9773C22.7855 90.9773 23.1037 90.928 23.3878 90.8295C23.6757 90.7273 23.9238 90.5758 24.1321 90.375C24.3404 90.1705 24.5014 89.9167 24.6151 89.6136L25.9105 89.9773C25.7741 90.4167 25.545 90.803 25.223 91.1364C24.901 91.4659 24.5033 91.7235 24.0298 91.9091C23.5563 92.0909 23.0241 92.1818 22.4332 92.1818ZM28.8523 83.2727L30.9432 86.8409L33.0341 83.2727H34.5795L31.7614 87.6364L34.5795 92H33.0341L30.9432 88.6136L28.8523 92H27.3068L30.0795 87.6364L27.3068 83.2727H28.8523ZM40.2884 83.2727V84.4091H35.7656V83.2727H40.2884ZM37.0838 81.1818H38.4247V89.5C38.4247 89.8788 38.4796 90.1629 38.5895 90.3523C38.7031 90.5379 38.8471 90.6629 39.0213 90.7273C39.1993 90.7879 39.3868 90.8182 39.5838 90.8182C39.7315 90.8182 39.8527 90.8106 39.9474 90.7955C40.0421 90.7765 40.1179 90.7614 40.1747 90.75L40.4474 91.9545C40.3565 91.9886 40.2296 92.0227 40.0668 92.0568C39.9039 92.0947 39.6974 92.1136 39.4474 92.1136C39.0687 92.1136 38.6974 92.0322 38.3338 91.8693C37.974 91.7064 37.6747 91.4583 37.4361 91.125C37.2012 90.7917 37.0838 90.3712 37.0838 89.8636V81.1818ZM43.2827 92.0909C43.0024 92.0909 42.7618 91.9905 42.5611 91.7898C42.3603 91.589 42.2599 91.3485 42.2599 91.0682C42.2599 90.7879 42.3603 90.5473 42.5611 90.3466C42.7618 90.1458 43.0024 90.0455 43.2827 90.0455C43.563 90.0455 43.8035 90.1458 44.0043 90.3466C44.205 90.5473 44.3054 90.7879 44.3054 91.0682C44.3054 91.2538 44.258 91.4242 44.1634 91.5795C44.0724 91.7348 43.9493 91.8598 43.794 91.9545C43.6425 92.0455 43.4721 92.0909 43.2827 92.0909ZM46.7116 83.2727H48.0526V92.6364C48.0526 93.1742 47.9598 93.6402 47.7741 94.0341C47.5923 94.428 47.3158 94.733 46.9446 94.9489C46.5772 95.1648 46.1132 95.2727 45.5526 95.2727C45.5071 95.2727 45.4616 95.2727 45.4162 95.2727C45.3707 95.2727 45.3253 95.2727 45.2798 95.2727V94.0227C45.3253 94.0227 45.367 94.0227 45.4048 94.0227C45.4427 94.0227 45.4844 94.0227 45.5298 94.0227C45.9389 94.0227 46.2382 93.9015 46.4276 93.6591C46.617 93.4205 46.7116 93.0795 46.7116 92.6364V83.2727ZM47.3707 81.8182C47.1094 81.8182 46.884 81.7292 46.6946 81.5511C46.509 81.3731 46.4162 81.1591 46.4162 80.9091C46.4162 80.6591 46.509 80.4451 46.6946 80.267C46.884 80.089 47.1094 80 47.3707 80C47.6321 80 47.8556 80.089 48.0412 80.267C48.2306 80.4451 48.3253 80.6591 48.3253 80.9091C48.3253 81.1591 48.2306 81.3731 48.0412 81.5511C47.8556 81.7292 47.6321 81.8182 47.3707 81.8182ZM56.6903 85.2273L55.4858 85.5682C55.41 85.3674 55.2983 85.1723 55.1506 84.983C55.0066 84.7898 54.8097 84.6307 54.5597 84.5057C54.3097 84.3807 53.9896 84.3182 53.5994 84.3182C53.0653 84.3182 52.6203 84.4413 52.2642 84.6875C51.9119 84.9299 51.7358 85.2386 51.7358 85.6136C51.7358 85.947 51.857 86.2102 52.0994 86.4034C52.3419 86.5966 52.7206 86.7576 53.2358 86.8864L54.5312 87.2045C55.3116 87.3939 55.893 87.6837 56.2756 88.0739C56.6581 88.4602 56.8494 88.9583 56.8494 89.5682C56.8494 90.0682 56.7055 90.5152 56.4176 90.9091C56.1335 91.303 55.7358 91.6136 55.2244 91.8409C54.7131 92.0682 54.1184 92.1818 53.4403 92.1818C52.5502 92.1818 51.8134 91.9886 51.2301 91.6023C50.6468 91.2159 50.2775 90.6515 50.1222 89.9091L51.3949 89.5909C51.5161 90.0606 51.7453 90.4129 52.0824 90.6477C52.4233 90.8826 52.8684 91 53.4176 91C54.0426 91 54.5388 90.8674 54.9062 90.6023C55.2775 90.3333 55.4631 90.0114 55.4631 89.6364C55.4631 89.3333 55.357 89.0795 55.1449 88.875C54.9328 88.6667 54.607 88.5114 54.1676 88.4091L52.7131 88.0682C51.9138 87.8788 51.3267 87.5852 50.9517 87.1875C50.5805 86.786 50.3949 86.2841 50.3949 85.6818C50.3949 85.1894 50.5331 84.7538 50.8097 84.375C51.09 83.9962 51.4706 83.6989 51.9517 83.483C52.4366 83.267 52.9858 83.1591 53.5994 83.1591C54.4631 83.1591 55.1411 83.3485 55.6335 83.7273C56.1297 84.1061 56.482 84.6061 56.6903 85.2273Z" fill="#4B5563"/>
<defs>
<linearGradient id="paint0_linear_327_495" x1="38.7555" y1="43.4222" x2="51.3777" y2="59.0666" gradientUnits="userSpaceOnUse">
<stop stop-color="white"/>
<stop offset="1" stop-color="white" stop-opacity="0"/>
</linearGradient>
<linearGradient id="paint1_linear_327_495" x1="43.0222" y1="21.2" x2="42.9508" y2="40" gradientUnits="userSpaceOnUse">
<stop stop-color="white"/>
<stop offset="1" stop-color="white" stop-opacity="0"/>
</linearGradient>
<clipPath id="clip0_327_495">
<rect width="64" height="64" fill="white" transform="translate(0 2)"/>
</clipPath>
</defs>
</svg>
