<svg width="78" height="96" viewBox="0 0 58 100" fill="none" xmlns="http://www.w3.org/2000/svg">
<g clip-path="url(#clip0_327_505)">
<path d="M29.0995 66C28.2415 66 27.4407 65.7668 26.6972 65.3586L19.0898 60.7517C17.9459 60.1102 18.5178 59.877 18.8611 59.7603C20.4054 59.2355 20.6914 59.1189 22.2929 58.1859C22.4645 58.0692 22.6933 58.1275 22.8649 58.2442L28.6991 61.8014C28.9279 61.918 29.2139 61.918 29.3855 61.8014L52.2074 48.3307C52.4362 48.214 52.5506 47.9808 52.5506 47.6892V20.806C52.5506 20.5145 52.4362 20.2812 52.2074 20.1646L29.3855 6.75223C29.1567 6.63561 28.8706 6.63561 28.6991 6.75223L5.87713 20.1646C5.64834 20.2812 5.53394 20.5728 5.53394 20.806V47.6892C5.53394 47.9224 5.64834 48.214 5.87713 48.3307L12.1117 52.0045C15.4864 53.7539 17.6027 51.7129 17.6027 49.6719V23.1386C17.6027 22.7888 17.8887 22.4389 18.2891 22.4389H21.2062C21.5494 22.4389 21.8925 22.7305 21.8925 23.1386V49.6719C21.8925 54.2788 19.433 56.9613 15.1432 56.9613C13.8276 56.9613 12.7981 56.9613 9.88096 55.5034L3.87521 52.0045C2.38807 51.1297 1.4729 49.4969 1.4729 47.7475V20.8644C1.4729 19.115 2.38807 17.4822 3.87521 16.6074L26.6972 3.13672C28.1271 2.32031 30.0718 2.32031 31.5018 3.13672L54.3237 16.6074C55.8109 17.4822 56.726 19.115 56.726 20.8644V47.7475C56.726 49.4969 55.8109 51.1297 54.3237 52.0045L31.5018 65.4752C30.8154 65.7668 29.9575 66 29.0995 66Z" fill="#5FA04E"/>
<path d="M36.192 47.5143C26.1824 47.5143 24.1233 42.8491 24.1233 38.8837C24.1233 38.5339 24.4093 38.184 24.8096 38.184H27.7839C28.1271 38.184 28.4131 38.4172 28.4131 38.7671C28.8707 41.8577 30.1863 43.374 36.2492 43.374C41.0538 43.374 43.113 42.266 43.113 39.6418C43.113 38.1256 42.541 37.0176 35.048 36.2595C28.8135 35.6181 24.9241 34.2186 24.9241 29.1451C24.9241 24.4216 28.8135 21.6226 35.3341 21.6226C42.6553 21.6226 46.2588 24.1884 46.7164 29.7866C46.7164 29.9616 46.6592 30.1365 46.5448 30.3115C46.4305 30.4281 46.2588 30.5447 46.0872 30.5447H43.0558C42.7697 30.5447 42.4838 30.3115 42.4266 30.0198C41.7402 26.8126 39.9671 25.7629 35.2769 25.7629C30.0146 25.7629 29.3855 27.629 29.3855 29.0285C29.3855 30.7196 30.1291 31.2445 37.2216 32.1775C44.2569 33.1106 47.5744 34.4518 47.5744 39.4669C47.5744 44.5986 43.3989 47.5143 36.192 47.5143Z" fill="#5FA04E"/>
</g>
<path d="M10.6364 80.3636V92H9.27273L2.93182 82.8636H2.81818V92H1.40909V80.3636H2.77273L9.13636 89.5227H9.25V80.3636H10.6364ZM16.8196 92.1818C16.0317 92.1818 15.3404 91.9943 14.7457 91.6193C14.1548 91.2443 13.6927 90.7197 13.3594 90.0455C13.0298 89.3712 12.8651 88.5833 12.8651 87.6818C12.8651 86.7727 13.0298 85.9792 13.3594 85.3011C13.6927 84.6231 14.1548 84.0966 14.7457 83.7216C15.3404 83.3466 16.0317 83.1591 16.8196 83.1591C17.6075 83.1591 18.2969 83.3466 18.8878 83.7216C19.4825 84.0966 19.9446 84.6231 20.2741 85.3011C20.6075 85.9792 20.7741 86.7727 20.7741 87.6818C20.7741 88.5833 20.6075 89.3712 20.2741 90.0455C19.9446 90.7197 19.4825 91.2443 18.8878 91.6193C18.2969 91.9943 17.6075 92.1818 16.8196 92.1818ZM16.8196 90.9773C17.4181 90.9773 17.9105 90.8239 18.2969 90.517C18.6832 90.2102 18.9692 89.8068 19.1548 89.3068C19.3404 88.8068 19.4332 88.2652 19.4332 87.6818C19.4332 87.0985 19.3404 86.5549 19.1548 86.0511C18.9692 85.5473 18.6832 85.1402 18.2969 84.8295C17.9105 84.5189 17.4181 84.3636 16.8196 84.3636C16.2211 84.3636 15.7287 84.5189 15.3423 84.8295C14.956 85.1402 14.67 85.5473 14.4844 86.0511C14.2988 86.5549 14.206 87.0985 14.206 87.6818C14.206 88.2652 14.2988 88.8068 14.4844 89.3068C14.67 89.8068 14.956 90.2102 15.3423 90.517C15.7287 90.8239 16.2211 90.9773 16.8196 90.9773ZM26.1165 92.1818C25.3892 92.1818 24.7472 91.9981 24.1903 91.6307C23.6335 91.2595 23.1979 90.7367 22.8835 90.0625C22.5691 89.3845 22.4119 88.5833 22.4119 87.6591C22.4119 86.7424 22.5691 85.947 22.8835 85.2727C23.1979 84.5985 23.6354 84.0777 24.196 83.7102C24.7566 83.3428 25.4044 83.1591 26.1392 83.1591C26.7074 83.1591 27.1563 83.2538 27.4858 83.4432C27.8191 83.6288 28.0729 83.8409 28.2472 84.0795C28.4252 84.3144 28.5634 84.5076 28.6619 84.6591H28.7756V80.3636H30.1165V92H28.821V90.6591H28.6619C28.5634 90.8182 28.4233 91.0189 28.2415 91.2614C28.0597 91.5 27.8002 91.714 27.4631 91.9034C27.1259 92.089 26.6771 92.1818 26.1165 92.1818ZM26.2983 90.9773C26.8362 90.9773 27.2907 90.8371 27.6619 90.5568C28.0331 90.2727 28.3153 89.8807 28.5085 89.3807C28.7017 88.8769 28.7983 88.2955 28.7983 87.6364C28.7983 86.9848 28.7036 86.4148 28.5142 85.9261C28.3248 85.4337 28.0445 85.0511 27.6733 84.7784C27.3021 84.5019 26.8438 84.3636 26.2983 84.3636C25.7301 84.3636 25.2566 84.5095 24.8778 84.8011C24.5028 85.089 24.2206 85.4811 24.0312 85.9773C23.8456 86.4697 23.7528 87.0227 23.7528 87.6364C23.7528 88.2576 23.8475 88.822 24.0369 89.3295C24.2301 89.8333 24.5142 90.2348 24.8892 90.5341C25.268 90.8295 25.7377 90.9773 26.2983 90.9773ZM36.4176 92.1818C35.5767 92.1818 34.8513 91.9962 34.2415 91.625C33.6354 91.25 33.1676 90.7273 32.8381 90.0568C32.5123 89.3826 32.3494 88.5985 32.3494 87.7045C32.3494 86.8106 32.5123 86.0227 32.8381 85.3409C33.1676 84.6553 33.6259 84.1212 34.2131 83.7386C34.804 83.3523 35.4934 83.1591 36.2812 83.1591C36.7358 83.1591 37.1847 83.2348 37.6278 83.3864C38.071 83.5379 38.4744 83.7841 38.8381 84.125C39.2017 84.4621 39.4915 84.9091 39.7074 85.4659C39.9233 86.0227 40.0312 86.7083 40.0312 87.5227V88.0909H33.304V86.9318H38.6676C38.6676 86.4394 38.5691 86 38.3722 85.6136C38.179 85.2273 37.9025 84.9223 37.5426 84.6989C37.1866 84.4754 36.7661 84.3636 36.2812 84.3636C35.7472 84.3636 35.285 84.4962 34.8949 84.7614C34.5085 85.0227 34.2112 85.3636 34.0028 85.7841C33.7945 86.2045 33.6903 86.6553 33.6903 87.1364V87.9091C33.6903 88.5682 33.804 89.1269 34.0312 89.5852C34.2623 90.0398 34.5824 90.3864 34.9915 90.625C35.4006 90.8598 35.8759 90.9773 36.4176 90.9773C36.7699 90.9773 37.0881 90.928 37.3722 90.8295C37.66 90.7273 37.9081 90.5758 38.1165 90.375C38.3248 90.1705 38.4858 89.9167 38.5994 89.6136L39.8949 89.9773C39.7585 90.4167 39.5294 90.803 39.2074 91.1364C38.8854 91.4659 38.4877 91.7235 38.0142 91.9091C37.5407 92.0909 37.0085 92.1818 36.4176 92.1818ZM43.0483 92.0909C42.768 92.0909 42.5275 91.9905 42.3267 91.7898C42.1259 91.589 42.0256 91.3485 42.0256 91.0682C42.0256 90.7879 42.1259 90.5473 42.3267 90.3466C42.5275 90.1458 42.768 90.0455 43.0483 90.0455C43.3286 90.0455 43.5691 90.1458 43.7699 90.3466C43.9706 90.5473 44.071 90.7879 44.071 91.0682C44.071 91.2538 44.0237 91.4242 43.929 91.5795C43.8381 91.7348 43.715 91.8598 43.5597 91.9545C43.4081 92.0455 43.2377 92.0909 43.0483 92.0909ZM46.4773 83.2727H47.8182V92.6364C47.8182 93.1742 47.7254 93.6402 47.5398 94.0341C47.358 94.428 47.0814 94.733 46.7102 94.9489C46.3428 95.1648 45.8788 95.2727 45.3182 95.2727C45.2727 95.2727 45.2273 95.2727 45.1818 95.2727C45.1364 95.2727 45.0909 95.2727 45.0455 95.2727V94.0227C45.0909 94.0227 45.1326 94.0227 45.1705 94.0227C45.2083 94.0227 45.25 94.0227 45.2955 94.0227C45.7045 94.0227 46.0038 93.9015 46.1932 93.6591C46.3826 93.4205 46.4773 93.0795 46.4773 92.6364V83.2727ZM47.1364 81.8182C46.875 81.8182 46.6496 81.7292 46.4602 81.5511C46.2746 81.3731 46.1818 81.1591 46.1818 80.9091C46.1818 80.6591 46.2746 80.4451 46.4602 80.267C46.6496 80.089 46.875 80 47.1364 80C47.3977 80 47.6212 80.089 47.8068 80.267C47.9962 80.4451 48.0909 80.6591 48.0909 80.9091C48.0909 81.1591 47.9962 81.3731 47.8068 81.5511C47.6212 81.7292 47.3977 81.8182 47.1364 81.8182ZM56.456 85.2273L55.2514 85.5682C55.1757 85.3674 55.0639 85.1723 54.9162 84.983C54.7723 84.7898 54.5753 84.6307 54.3253 84.5057C54.0753 84.3807 53.7552 84.3182 53.3651 84.3182C52.831 84.3182 52.3859 84.4413 52.0298 84.6875C51.6776 84.9299 51.5014 85.2386 51.5014 85.6136C51.5014 85.947 51.6226 86.2102 51.8651 86.4034C52.1075 86.5966 52.4863 86.7576 53.0014 86.8864L54.2969 87.2045C55.0772 87.3939 55.6586 87.6837 56.0412 88.0739C56.4238 88.4602 56.6151 88.9583 56.6151 89.5682C56.6151 90.0682 56.4711 90.5152 56.1832 90.9091C55.8991 91.303 55.5014 91.6136 54.9901 91.8409C54.4787 92.0682 53.884 92.1818 53.206 92.1818C52.3158 92.1818 51.5791 91.9886 50.9957 91.6023C50.4124 91.2159 50.0431 90.6515 49.8878 89.9091L51.1605 89.5909C51.2817 90.0606 51.5109 90.4129 51.848 90.6477C52.1889 90.8826 52.634 91 53.1832 91C53.8082 91 54.3045 90.8674 54.6719 90.6023C55.0431 90.3333 55.2287 90.0114 55.2287 89.6364C55.2287 89.3333 55.1226 89.0795 54.9105 88.875C54.6984 88.6667 54.3726 88.5114 53.9332 88.4091L52.4787 88.0682C51.6795 87.8788 51.0923 87.5852 50.7173 87.1875C50.3461 86.786 50.1605 86.2841 50.1605 85.6818C50.1605 85.1894 50.2988 84.7538 50.5753 84.375C50.8556 83.9962 51.2363 83.6989 51.7173 83.483C52.2022 83.267 52.7514 83.1591 53.3651 83.1591C54.2287 83.1591 54.9067 83.3485 55.3991 83.7273C55.8954 84.1061 56.2476 84.6061 56.456 85.2273Z" fill="#4B5563"/>
<defs>
<clipPath id="clip0_327_505">
<rect width="56.32" height="64" fill="white" transform="translate(0.840088 2)"/>
</clipPath>
</defs>
</svg>
