<svg width="78" height="96" viewBox="0 0 70 96" fill="none" xmlns="http://www.w3.org/2000/svg">
<g clip-path="url(#clip0_327_487)">
<g clip-path="url(#clip1_327_487)">
<path d="M35.091 38.7725C38.7633 38.7725 41.7404 35.7404 41.7404 32C41.7404 28.2597 38.7633 25.2275 35.091 25.2275C31.4187 25.2275 28.4417 28.2597 28.4417 32C28.4417 35.7404 31.4187 38.7725 35.091 38.7725Z" fill="#087EA4"/>
<path d="M35.091 47.2382C53.4527 47.2382 68.3378 40.4158 68.3378 32.0001C68.3378 23.5843 53.4527 16.762 35.091 16.762C16.7293 16.762 1.84424 23.5843 1.84424 32.0001C1.84424 40.4158 16.7293 47.2382 35.091 47.2382Z" stroke="#087EA4" stroke-width="3"/>
<path d="M22.1344 39.619C31.3153 55.8152 44.5587 65.5336 51.7144 61.3257C58.8702 57.1178 57.2285 40.5771 48.0477 24.3809C38.8669 8.18475 25.6234 -1.53366 18.4677 2.67422C11.3119 6.88211 12.9536 23.4228 22.1344 39.619Z" stroke="#087EA4" stroke-width="3"/>
<path d="M22.1342 24.3808C12.9534 40.577 11.3118 57.1177 18.4675 61.3256C25.6233 65.5335 38.8667 55.8151 48.0475 39.6189C57.2284 23.4228 58.87 6.88205 51.7143 2.67416C44.5585 -1.53372 31.3151 8.18469 22.1342 24.3808Z" stroke="#087EA4" stroke-width="3"/>
</g>
<path d="M14.5002 90V78.3636H18.432C19.3411 78.3636 20.0873 78.5189 20.6706 78.8295C21.2539 79.1364 21.6858 79.5587 21.9661 80.0966C22.2464 80.6345 22.3865 81.2462 22.3865 81.9318C22.3865 82.6174 22.2464 83.2254 21.9661 83.7557C21.6858 84.286 21.2558 84.7027 20.6763 85.0057C20.0967 85.3049 19.3562 85.4545 18.4547 85.4545H15.2729V84.1818H18.4092C19.0305 84.1818 19.5305 84.0909 19.9092 83.9091C20.2918 83.7273 20.5683 83.4697 20.7388 83.1364C20.913 82.7992 21.0002 82.3977 21.0002 81.9318C21.0002 81.4659 20.913 81.0587 20.7388 80.7102C20.5645 80.3617 20.2861 80.0928 19.9036 79.9034C19.521 79.7102 19.0153 79.6136 18.3865 79.6136H15.9092V90H14.5002ZM19.9774 84.7727L22.8411 90H21.2047L18.3865 84.7727H19.9774ZM28.1181 90.1818C27.2771 90.1818 26.5518 89.9962 25.9419 89.625C25.3359 89.25 24.8681 88.7273 24.5385 88.0568C24.2128 87.3826 24.0499 86.5985 24.0499 85.7045C24.0499 84.8106 24.2128 84.0227 24.5385 83.3409C24.8681 82.6553 25.3264 82.1212 25.9135 81.7386C26.5044 81.3523 27.1938 81.1591 27.9817 81.1591C28.4362 81.1591 28.8851 81.2348 29.3283 81.3864C29.7715 81.5379 30.1749 81.7841 30.5385 82.125C30.9021 82.4621 31.1919 82.9091 31.4078 83.4659C31.6237 84.0227 31.7317 84.7083 31.7317 85.5227V86.0909H25.0044V84.9318H30.3681C30.3681 84.4394 30.2696 84 30.0726 83.6136C29.8794 83.2273 29.6029 82.9223 29.2431 82.6989C28.887 82.4754 28.4665 82.3636 27.9817 82.3636C27.4476 82.3636 26.9855 82.4962 26.5953 82.7614C26.209 83.0227 25.9116 83.3636 25.7033 83.7841C25.4949 84.2045 25.3908 84.6553 25.3908 85.1364V85.9091C25.3908 86.5682 25.5044 87.1269 25.7317 87.5852C25.9628 88.0398 26.2828 88.3864 26.6919 88.625C27.101 88.8598 27.5764 88.9773 28.1181 88.9773C28.4703 88.9773 28.7885 88.928 29.0726 88.8295C29.3605 88.7273 29.6086 88.5758 29.8169 88.375C30.0253 88.1705 30.1862 87.9167 30.2999 87.6136L31.5953 87.9773C31.459 88.4167 31.2298 88.803 30.9078 89.1364C30.5859 89.4659 30.1881 89.7235 29.7146 89.9091C29.2412 90.0909 28.709 90.1818 28.1181 90.1818ZM36.3396 90.2045C35.7866 90.2045 35.2847 90.1004 34.834 89.892C34.3832 89.6799 34.0253 89.375 33.7601 88.9773C33.4949 88.5758 33.3624 88.0909 33.3624 87.5227C33.3624 87.0227 33.4609 86.6174 33.6578 86.3068C33.8548 85.9924 34.1181 85.7462 34.4476 85.5682C34.7771 85.3902 35.1408 85.2576 35.5385 85.1705C35.94 85.0795 36.3434 85.0076 36.7487 84.9545C37.279 84.8864 37.709 84.8352 38.0385 84.8011C38.3718 84.7633 38.6143 84.7008 38.7658 84.6136C38.9211 84.5265 38.9987 84.375 38.9987 84.1591V84.1136C38.9987 83.553 38.8453 83.1174 38.5385 82.8068C38.2355 82.4962 37.7753 82.3409 37.1578 82.3409C36.5177 82.3409 36.0158 82.4811 35.6521 82.7614C35.2885 83.0417 35.0328 83.3409 34.8851 83.6591L33.6124 83.2045C33.8396 82.6742 34.1427 82.2614 34.5215 81.9659C34.904 81.6667 35.3207 81.4583 35.7715 81.3409C36.226 81.2197 36.673 81.1591 37.1124 81.1591C37.3927 81.1591 37.7146 81.1932 38.0783 81.2614C38.4457 81.3258 38.7999 81.4602 39.1408 81.6648C39.4855 81.8693 39.7715 82.178 39.9987 82.5909C40.226 83.0038 40.3396 83.5568 40.3396 84.25V90H38.9987V88.8182H38.9306C38.8396 89.0076 38.6881 89.2102 38.476 89.4261C38.2639 89.642 37.9817 89.8258 37.6294 89.9773C37.2771 90.1288 36.8472 90.2045 36.3396 90.2045ZM36.5442 89C37.0745 89 37.5215 88.8958 37.8851 88.6875C38.2525 88.4792 38.529 88.2102 38.7146 87.8807C38.904 87.5511 38.9987 87.2045 38.9987 86.8409V85.6136C38.9419 85.6818 38.8169 85.7443 38.6237 85.8011C38.4343 85.8542 38.2146 85.9015 37.9646 85.9432C37.7184 85.9811 37.4779 86.0152 37.2431 86.0455C37.012 86.072 36.8245 86.0947 36.6806 86.1136C36.3321 86.1591 36.0063 86.233 35.7033 86.3352C35.404 86.4337 35.1616 86.5833 34.976 86.7841C34.7942 86.9811 34.7033 87.25 34.7033 87.5909C34.7033 88.0568 34.8756 88.4091 35.2203 88.6477C35.5688 88.8826 36.0101 89 36.5442 89ZM46.3325 90.1818C45.5144 90.1818 44.8098 89.9886 44.2189 89.6023C43.628 89.2159 43.1735 88.6837 42.8553 88.0057C42.5371 87.3277 42.378 86.553 42.378 85.6818C42.378 84.7955 42.5409 84.0133 42.8666 83.3352C43.1962 82.6534 43.6545 82.1212 44.2416 81.7386C44.8325 81.3523 45.5219 81.1591 46.3098 81.1591C46.9235 81.1591 47.4765 81.2727 47.9689 81.5C48.4613 81.7273 48.8647 82.0455 49.1791 82.4545C49.4935 82.8636 49.6886 83.3409 49.7644 83.8864H48.4235C48.3212 83.4886 48.0939 83.1364 47.7416 82.8295C47.3931 82.5189 46.9235 82.3636 46.3325 82.3636C45.8098 82.3636 45.3515 82.5 44.9575 82.7727C44.5674 83.0417 44.2625 83.4223 44.0428 83.9148C43.8269 84.4034 43.7189 84.9773 43.7189 85.6364C43.7189 86.3106 43.825 86.8977 44.0371 87.3977C44.253 87.8977 44.556 88.286 44.9462 88.5625C45.3401 88.839 45.8022 88.9773 46.3325 88.9773C46.681 88.9773 46.9973 88.9167 47.2814 88.7955C47.5655 88.6742 47.806 88.5 48.003 88.2727C48.2 88.0455 48.3401 87.7727 48.4235 87.4545H49.7644C49.6886 87.9697 49.5011 88.4337 49.2019 88.8466C48.9064 89.2557 48.5144 89.5814 48.0257 89.8239C47.5409 90.0625 46.9765 90.1818 46.3325 90.1818ZM55.52 81.2727V82.4091H50.9973V81.2727H55.52ZM52.3155 79.1818H53.6564V87.5C53.6564 87.8788 53.7113 88.1629 53.8212 88.3523C53.9348 88.5379 54.0788 88.6629 54.253 88.7273C54.431 88.7879 54.6185 88.8182 54.8155 88.8182C54.9632 88.8182 55.0844 88.8106 55.1791 88.7955C55.2738 88.7765 55.3496 88.7614 55.4064 88.75L55.6791 89.9545C55.5882 89.9886 55.4613 90.0227 55.2985 90.0568C55.1356 90.0947 54.9291 90.1136 54.6791 90.1136C54.3003 90.1136 53.9291 90.0322 53.5655 89.8693C53.2056 89.7064 52.9064 89.4583 52.6678 89.125C52.4329 88.7917 52.3155 88.3712 52.3155 87.8636V79.1818Z" fill="#4B5563"/>
</g>
<defs>
<clipPath id="clip0_327_487">
<rect width="69.8182" height="96" fill="white" transform="translate(0.181885)"/>
</clipPath>
<clipPath id="clip1_327_487">
<rect width="69.8182" height="64" fill="white" transform="translate(0.181885)"/>
</clipPath>
</defs>
</svg>
