<svg width="78" height="96" viewBox="0 0 79 96" fill="none" xmlns="http://www.w3.org/2000/svg">
<g clip-path="url(#clip0_327_530)">
<path d="M60.7925 34.6079C58.7418 34.6186 56.9658 35.1106 55.4778 35.8452C54.9338 34.7586 54.3818 33.8026 54.2898 33.0919C54.1818 32.2626 54.0565 31.7666 54.1871 30.7786C54.3178 29.7906 54.8898 28.3906 54.8818 28.2852C54.8738 28.1799 54.7538 27.6772 53.5711 27.6679C52.3885 27.6599 51.3765 27.8959 51.2578 28.2079C51.1392 28.5199 50.9111 29.2226 50.7698 29.9559C50.5631 31.0279 48.4085 34.8532 47.1858 36.8532C46.7858 36.0719 46.4458 35.3839 46.3752 34.8399C46.2672 34.0106 46.1418 33.5146 46.2725 32.5266C46.4032 31.5386 46.9752 30.1386 46.9672 30.0332C46.9592 29.9279 46.8391 29.4252 45.6565 29.4159C44.4738 29.4079 43.4618 29.6439 43.3432 29.9559C43.2245 30.2679 43.0965 30.9972 42.8552 31.7039C42.6125 32.4092 39.7498 38.7892 38.9992 40.4439C38.6165 41.2866 38.2845 41.9639 38.0498 42.4252L38.0485 42.4226C38.0485 42.4226 38.0338 42.4532 38.0098 42.5052C37.8085 42.8986 37.6898 43.1159 37.6898 43.1159C37.6898 43.1159 37.6912 43.1186 37.6938 43.1239C37.5338 43.4132 37.3632 43.6812 37.2792 43.6812C37.2205 43.6812 37.1018 42.9119 37.3045 41.8559C37.7312 39.6426 38.7538 36.1919 38.7445 36.0719C38.7392 36.0106 38.9352 35.4092 38.0765 35.0946C37.2418 34.7892 36.9445 35.2986 36.8685 35.2999C36.7952 35.3012 36.7405 35.4799 36.7405 35.4799C36.7405 35.4799 37.6698 31.5986 34.9672 31.5986C33.2765 31.5986 30.9352 33.4479 29.7818 35.1239C29.0538 35.5212 27.4952 36.3719 25.8432 37.2799C25.2085 37.6292 24.5605 37.9852 23.9458 38.3239C23.9045 38.2772 23.8618 38.2319 23.8192 38.1852C20.5405 34.6879 14.4818 32.2146 14.7378 27.5119C14.8312 25.8026 15.4258 21.3012 26.3818 15.8426C35.3565 11.3706 42.5418 12.6012 43.7832 15.3279C45.5565 19.2252 39.9432 26.4666 30.6232 27.5119C27.0725 27.9106 25.2018 26.5332 24.7365 26.0212C24.2472 25.4812 24.1738 25.4572 23.9912 25.5586C23.6938 25.7239 23.8818 26.1999 23.9912 26.4839C24.2698 27.2079 25.4112 28.4919 27.3578 29.1319C29.0712 29.6946 33.2405 30.0026 38.2818 28.0519C43.9298 25.8679 48.3392 19.7906 47.0432 14.7119C45.7258 9.54658 37.1605 7.84791 29.0538 10.7279C24.2232 12.4426 19.0005 15.1332 15.2445 18.6452C10.7792 22.8212 10.0672 26.4572 10.3605 27.9759C11.4032 33.3732 18.8418 36.8879 21.8205 39.4919C21.6738 39.5732 21.5352 39.6492 21.4098 39.7186C19.9165 40.4572 14.2458 43.4252 12.8272 46.5599C11.2178 50.1159 13.0832 52.6679 14.3178 53.0119C18.1432 54.0759 22.0685 52.1612 24.1792 49.0146C26.2885 45.8692 26.0312 41.7719 25.0632 39.9026C25.0512 39.8799 25.0378 39.8572 25.0258 39.8332C25.4112 39.6052 25.8045 39.3732 26.1938 39.1439C26.9538 38.6972 27.7005 38.2812 28.3472 37.9292C27.9845 38.9212 27.7192 40.1119 27.5818 41.8306C27.4192 43.8492 28.2472 46.4586 29.3298 47.4852C29.8072 47.9372 30.3805 47.9479 30.7432 47.9479C32.0032 47.9479 32.5778 46.8999 33.2112 45.6599C33.9872 44.1399 34.6765 42.3692 34.6765 42.3692C34.6765 42.3692 33.8125 47.1506 36.1672 47.1506C37.0258 47.1506 37.8885 46.0372 38.2738 45.4706C38.2752 45.4772 38.2752 45.4799 38.2752 45.4799C38.2752 45.4799 38.2978 45.4426 38.3418 45.3692C38.4312 45.2332 38.4818 45.1466 38.4818 45.1466C38.4818 45.1466 38.4832 45.1372 38.4858 45.1212C38.8312 44.5226 39.5965 43.1572 40.7432 40.9052C42.2258 37.9959 43.6472 34.3506 43.6472 34.3506C43.6472 34.3506 43.7792 35.2412 44.2125 36.7159C44.4672 37.5826 45.0085 38.5412 45.4365 39.4612C45.0925 39.9386 44.8818 40.2119 44.8818 40.2119C44.8818 40.2119 44.8832 40.2172 44.8871 40.2266C44.6125 40.5919 44.3045 40.9852 43.9818 41.3692C42.8112 42.7626 41.4178 44.3546 41.2312 44.8132C41.0112 45.3546 41.0632 45.7519 41.4885 46.0732C41.7992 46.3066 42.3512 46.3439 42.9285 46.3052C43.9805 46.2346 44.7192 45.9732 45.0845 45.8146C45.6538 45.6132 46.3165 45.2972 46.9378 44.8399C48.0858 43.9959 48.7778 42.7892 48.7112 41.1892C48.6738 40.3079 48.3938 39.4346 48.0378 38.6106C48.1418 38.4612 48.2458 38.3092 48.3512 38.1572C50.1605 35.5119 51.5645 32.6052 51.5645 32.6052C51.5645 32.6052 51.6965 33.4959 52.1298 34.9706C52.3485 35.7159 52.7818 36.5306 53.1712 37.3279C51.4698 38.7106 50.4152 40.3172 50.0485 41.3706C49.3712 43.3199 49.9018 44.2026 50.8965 44.4039C51.3472 44.4946 51.9845 44.2879 52.4632 44.0852C53.0592 43.8879 53.7751 43.5586 54.4445 43.0666C55.5925 42.2226 56.6965 41.0412 56.6298 39.4426C56.5991 38.7146 56.4018 37.9919 56.1338 37.2986C57.5765 36.6972 59.4431 36.3639 61.8218 36.6412C66.9245 37.2372 67.9245 40.4226 67.7338 41.7559C67.5418 43.0892 66.4725 43.8226 66.1138 44.0439C65.7565 44.2652 65.6471 44.3426 65.6765 44.5066C65.7205 44.7452 65.8858 44.7372 66.1911 44.6852C66.6111 44.6146 68.8698 43.6012 68.9671 41.1399C69.0885 38.0119 66.0951 34.5799 60.7925 34.6079ZM21.4632 47.8666C19.7725 49.7106 17.4125 50.4066 16.3992 49.8199C15.3058 49.1866 15.7392 46.4719 17.8125 44.5146C19.0765 43.3226 20.7085 42.2239 21.7912 41.5479C22.0378 41.3999 22.3992 41.1826 22.8392 40.9186C22.9125 40.8772 22.9538 40.8546 22.9538 40.8546L22.9525 40.8519C23.0378 40.8012 23.1245 40.7492 23.2138 40.6946C23.9698 43.4799 23.2378 45.9319 21.4632 47.8666ZM33.7765 39.4972C33.1885 40.9319 31.9565 44.6039 31.2058 44.4066C30.5618 44.2372 30.1698 41.4466 31.0778 38.6999C31.5338 37.3172 32.5098 35.6652 33.0832 35.0239C34.0058 33.9919 35.0218 33.6546 35.2685 34.0732C35.5818 34.6066 34.1458 38.5972 33.7765 39.4972ZM43.9485 44.3506C43.6992 44.4812 43.4698 44.5626 43.3645 44.4999C43.2858 44.4532 43.4672 44.2812 43.4672 44.2812C43.4672 44.2812 44.7392 42.9119 45.2405 42.2892C45.5325 41.9266 45.8698 41.4959 46.2378 41.0159C46.2405 41.0639 46.2418 41.1119 46.2418 41.1586C46.2392 42.7986 44.6552 43.9052 43.9485 44.3506ZM51.7845 42.5639C51.5978 42.4319 51.6298 42.0039 52.2418 40.6692C52.4818 40.1452 53.0311 39.2639 53.9831 38.4212C54.0938 38.7679 54.1605 39.0999 54.1591 39.4092C54.1471 41.4732 52.6752 42.2439 51.7845 42.5639Z" fill="#F06292"/>
<path d="M8.4092 81.2727C8.34102 80.697 8.06451 80.25 7.57966 79.9318C7.09481 79.6136 6.50011 79.4545 5.79557 79.4545C5.28041 79.4545 4.82966 79.5379 4.44329 79.7045C4.06072 79.8712 3.76147 80.1004 3.54557 80.392C3.33344 80.6837 3.22738 81.0152 3.22738 81.3864C3.22738 81.697 3.30125 81.964 3.44897 82.1875C3.60049 82.4072 3.79367 82.5909 4.02852 82.7386C4.26337 82.8826 4.50958 83.0019 4.76716 83.0966C5.02473 83.1875 5.26147 83.2614 5.47738 83.3182L6.6592 83.6364C6.96223 83.7159 7.29935 83.8258 7.67057 83.9659C8.04557 84.1061 8.40352 84.2973 8.74443 84.5398C9.08913 84.7784 9.37322 85.0852 9.5967 85.4602C9.82019 85.8352 9.93193 86.2955 9.93193 86.8409C9.93193 87.4697 9.76716 88.0379 9.43761 88.5455C9.11185 89.053 8.63458 89.4564 8.00579 89.7557C7.38079 90.0549 6.62132 90.2045 5.72738 90.2045C4.89405 90.2045 4.17246 90.0701 3.56261 89.8011C2.95655 89.5322 2.47928 89.1572 2.13079 88.6761C1.7861 88.1951 1.59102 87.6364 1.54557 87H3.00011C3.03799 87.4394 3.18572 87.803 3.44329 88.0909C3.70466 88.375 4.0342 88.5871 4.43193 88.7273C4.83344 88.8636 5.26526 88.9318 5.72738 88.9318C6.26526 88.9318 6.74822 88.8447 7.17625 88.6705C7.60428 88.4924 7.94329 88.2462 8.19329 87.9318C8.44329 87.6136 8.56829 87.2424 8.56829 86.8182C8.56829 86.4318 8.46034 86.1174 8.24443 85.875C8.02852 85.6326 7.74443 85.4356 7.39216 85.2841C7.03988 85.1326 6.6592 85 6.25011 84.8864L4.81829 84.4773C3.9092 84.2159 3.18951 83.8428 2.6592 83.358C2.1289 82.8731 1.86375 82.2386 1.86375 81.4545C1.86375 80.803 2.03988 80.2348 2.39216 79.75C2.74822 79.2614 3.22549 78.8826 3.82397 78.6136C4.42625 78.3409 5.0986 78.2045 5.84102 78.2045C6.59102 78.2045 7.25769 78.339 7.84102 78.608C8.42435 78.8731 8.88647 79.2367 9.22738 79.6989C9.57208 80.161 9.7539 80.6856 9.77284 81.2727H8.4092ZM14.6351 90.2045C14.082 90.2045 13.5801 90.1004 13.1294 89.892C12.6786 89.6799 12.3207 89.375 12.0555 88.9773C11.7904 88.5758 11.6578 88.0909 11.6578 87.5227C11.6578 87.0227 11.7563 86.6174 11.9532 86.3068C12.1502 85.9924 12.4135 85.7462 12.743 85.5682C13.0726 85.3902 13.4362 85.2576 13.8339 85.1705C14.2354 85.0795 14.6388 85.0076 15.0441 84.9545C15.5744 84.8864 16.0044 84.8352 16.3339 84.8011C16.6673 84.7633 16.9097 84.7008 17.0612 84.6136C17.2165 84.5265 17.2941 84.375 17.2941 84.1591V84.1136C17.2941 83.553 17.1407 83.1174 16.8339 82.8068C16.5309 82.4962 16.0707 82.3409 15.4532 82.3409C14.8131 82.3409 14.3112 82.4811 13.9476 82.7614C13.5839 83.0417 13.3282 83.3409 13.1805 83.6591L11.9078 83.2045C12.1351 82.6742 12.4381 82.2614 12.8169 81.9659C13.1994 81.6667 13.6161 81.4583 14.0669 81.3409C14.5214 81.2197 14.9684 81.1591 15.4078 81.1591C15.6881 81.1591 16.0101 81.1932 16.3737 81.2614C16.7411 81.3258 17.0953 81.4602 17.4362 81.6648C17.7809 81.8693 18.0669 82.178 18.2941 82.5909C18.5214 83.0038 18.6351 83.5568 18.6351 84.25V90H17.2941V88.8182H17.226C17.1351 89.0076 16.9835 89.2102 16.7714 89.4261C16.5593 89.642 16.2771 89.8258 15.9248 89.9773C15.5726 90.1288 15.1426 90.2045 14.6351 90.2045ZM14.8396 89C15.3699 89 15.8169 88.8958 16.1805 88.6875C16.5479 88.4792 16.8244 88.2102 17.0101 87.8807C17.1994 87.5511 17.2941 87.2045 17.2941 86.8409V85.6136C17.2373 85.6818 17.1123 85.7443 16.9191 85.8011C16.7298 85.8542 16.5101 85.9015 16.2601 85.9432C16.0138 85.9811 15.7733 86.0152 15.5385 86.0455C15.3074 86.072 15.1199 86.0947 14.976 86.1136C14.6275 86.1591 14.3017 86.233 13.9987 86.3352C13.6994 86.4337 13.457 86.5833 13.2714 86.7841C13.0896 86.9811 12.9987 87.25 12.9987 87.5909C12.9987 88.0568 13.171 88.4091 13.5157 88.6477C13.8642 88.8826 14.3055 89 14.8396 89ZM27.2643 83.2273L26.0598 83.5682C25.984 83.3674 25.8723 83.1723 25.7245 82.983C25.5806 82.7898 25.3836 82.6307 25.1336 82.5057C24.8836 82.3807 24.5636 82.3182 24.1734 82.3182C23.6393 82.3182 23.1942 82.4413 22.8382 82.6875C22.4859 82.9299 22.3098 83.2386 22.3098 83.6136C22.3098 83.947 22.431 84.2102 22.6734 84.4034C22.9158 84.5966 23.2946 84.7576 23.8098 84.8864L25.1052 85.2045C25.8855 85.3939 26.467 85.6837 26.8495 86.0739C27.2321 86.4602 27.4234 86.9583 27.4234 87.5682C27.4234 88.0682 27.2795 88.5152 26.9916 88.9091C26.7075 89.303 26.3098 89.6136 25.7984 89.8409C25.287 90.0682 24.6923 90.1818 24.0143 90.1818C23.1242 90.1818 22.3874 89.9886 21.8041 89.6023C21.2208 89.2159 20.8514 88.6515 20.6961 87.9091L21.9689 87.5909C22.0901 88.0606 22.3192 88.4129 22.6564 88.6477C22.9973 88.8826 23.4423 89 23.9916 89C24.6166 89 25.1128 88.8674 25.4802 88.6023C25.8514 88.3333 26.037 88.0114 26.037 87.6364C26.037 87.3333 25.931 87.0795 25.7189 86.875C25.5067 86.6667 25.181 86.5114 24.7416 86.4091L23.287 86.0682C22.4878 85.8788 21.9007 85.5852 21.5257 85.1875C21.1545 84.786 20.9689 84.2841 20.9689 83.6818C20.9689 83.1894 21.1071 82.7538 21.3836 82.375C21.6639 81.9962 22.0446 81.6989 22.5257 81.483C23.0105 81.267 23.5598 81.1591 24.1734 81.1591C25.037 81.1591 25.7151 81.3485 26.2075 81.7273C26.7037 82.1061 27.056 82.6061 27.2643 83.2273ZM35.6237 83.2273L34.4191 83.5682C34.3434 83.3674 34.2316 83.1723 34.0839 82.983C33.94 82.7898 33.743 82.6307 33.493 82.5057C33.243 82.3807 32.9229 82.3182 32.5328 82.3182C31.9987 82.3182 31.5536 82.4413 31.1976 82.6875C30.8453 82.9299 30.6691 83.2386 30.6691 83.6136C30.6691 83.947 30.7904 84.2102 31.0328 84.4034C31.2752 84.5966 31.654 84.7576 32.1691 84.8864L33.4646 85.2045C34.2449 85.3939 34.8263 85.6837 35.2089 86.0739C35.5915 86.4602 35.7828 86.9583 35.7828 87.5682C35.7828 88.0682 35.6388 88.5152 35.351 88.9091C35.0669 89.303 34.6691 89.6136 34.1578 89.8409C33.6464 90.0682 33.0517 90.1818 32.3737 90.1818C31.4835 90.1818 30.7468 89.9886 30.1635 89.6023C29.5801 89.2159 29.2108 88.6515 29.0555 87.9091L30.3282 87.5909C30.4494 88.0606 30.6786 88.4129 31.0157 88.6477C31.3566 88.8826 31.8017 89 32.351 89C32.976 89 33.4722 88.8674 33.8396 88.6023C34.2108 88.3333 34.3964 88.0114 34.3964 87.6364C34.3964 87.3333 34.2904 87.0795 34.0782 86.875C33.8661 86.6667 33.5404 86.5114 33.101 86.4091L31.6464 86.0682C30.8472 85.8788 30.2601 85.5852 29.8851 85.1875C29.5138 84.786 29.3282 84.2841 29.3282 83.6818C29.3282 83.1894 29.4665 82.7538 29.743 82.375C30.0233 81.9962 30.404 81.6989 30.8851 81.483C31.3699 81.267 31.9191 81.1591 32.5328 81.1591C33.3964 81.1591 34.0744 81.3485 34.5669 81.7273C35.0631 82.1061 35.4154 82.6061 35.6237 83.2273ZM41.9149 77.8182L38.1649 91.75H36.9376L40.6876 77.8182H41.9149ZM50.0498 81.2727C49.9816 80.697 49.7051 80.25 49.2203 79.9318C48.7354 79.6136 48.1407 79.4545 47.4362 79.4545C46.921 79.4545 46.4703 79.5379 46.0839 79.7045C45.7013 79.8712 45.4021 80.1004 45.1862 80.392C44.9741 80.6837 44.868 81.0152 44.868 81.3864C44.868 81.697 44.9419 81.964 45.0896 82.1875C45.2411 82.4072 45.4343 82.5909 45.6691 82.7386C45.904 82.8826 46.1502 83.0019 46.4078 83.0966C46.6654 83.1875 46.9021 83.2614 47.118 83.3182L48.2998 83.6364C48.6029 83.7159 48.94 83.8258 49.3112 83.9659C49.6862 84.1061 50.0441 84.2973 50.3851 84.5398C50.7298 84.7784 51.0138 85.0852 51.2373 85.4602C51.4608 85.8352 51.5726 86.2955 51.5726 86.8409C51.5726 87.4697 51.4078 88.0379 51.0782 88.5455C50.7525 89.053 50.2752 89.4564 49.6464 89.7557C49.0214 90.0549 48.2619 90.2045 47.368 90.2045C46.5347 90.2045 45.8131 90.0701 45.2032 89.8011C44.5972 89.5322 44.1199 89.1572 43.7714 88.6761C43.4267 88.1951 43.2316 87.6364 43.1862 87H44.6407C44.6786 87.4394 44.8263 87.803 45.0839 88.0909C45.3453 88.375 45.6748 88.5871 46.0726 88.7273C46.4741 88.8636 46.9059 88.9318 47.368 88.9318C47.9059 88.9318 48.3888 88.8447 48.8169 88.6705C49.2449 88.4924 49.5839 88.2462 49.8339 87.9318C50.0839 87.6136 50.2089 87.2424 50.2089 86.8182C50.2089 86.4318 50.101 86.1174 49.8851 85.875C49.6691 85.6326 49.3851 85.4356 49.0328 85.2841C48.6805 85.1326 48.2998 85 47.8907 84.8864L46.4589 84.4773C45.5498 84.2159 44.8301 83.8428 44.2998 83.358C43.7695 82.8731 43.5044 82.2386 43.5044 81.4545C43.5044 80.803 43.6805 80.2348 44.0328 79.75C44.3888 79.2614 44.8661 78.8826 45.4646 78.6136C46.0669 78.3409 46.7392 78.2045 47.4816 78.2045C48.2316 78.2045 48.8983 78.339 49.4816 78.608C50.065 78.8731 50.5271 79.2367 50.868 79.6989C51.2127 80.161 51.3945 80.6856 51.4135 81.2727H50.0498ZM57.253 90.1818C56.4348 90.1818 55.7302 89.9886 55.1393 89.6023C54.5484 89.2159 54.0939 88.6837 53.7757 88.0057C53.4575 87.3277 53.2984 86.553 53.2984 85.6818C53.2984 84.7955 53.4613 84.0133 53.787 83.3352C54.1166 82.6534 54.5749 82.1212 55.162 81.7386C55.753 81.3523 56.4423 81.1591 57.2302 81.1591C57.8439 81.1591 58.3969 81.2727 58.8893 81.5C59.3817 81.7273 59.7851 82.0455 60.0995 82.4545C60.4139 82.8636 60.609 83.3409 60.6848 83.8864H59.3439C59.2416 83.4886 59.0143 83.1364 58.662 82.8295C58.3136 82.5189 57.8439 82.3636 57.253 82.3636C56.7302 82.3636 56.2719 82.5 55.878 82.7727C55.4878 83.0417 55.1829 83.4223 54.9632 83.9148C54.7473 84.4034 54.6393 84.9773 54.6393 85.6364C54.6393 86.3106 54.7454 86.8977 54.9575 87.3977C55.1734 87.8977 55.4764 88.286 55.8666 88.5625C56.2605 88.839 56.7226 88.9773 57.253 88.9773C57.6014 88.9773 57.9177 88.9167 58.2018 88.7955C58.4859 88.6742 58.7264 88.5 58.9234 88.2727C59.1204 88.0455 59.2605 87.7727 59.3439 87.4545H60.6848C60.609 87.9697 60.4215 88.4337 60.1223 88.8466C59.8268 89.2557 59.4348 89.5814 58.9461 89.8239C58.4613 90.0625 57.8969 90.1818 57.253 90.1818ZM68.8268 83.2273L67.6223 83.5682C67.5465 83.3674 67.4348 83.1723 67.287 82.983C67.1431 82.7898 66.9461 82.6307 66.6961 82.5057C66.4461 82.3807 66.1261 82.3182 65.7359 82.3182C65.2018 82.3182 64.7567 82.4413 64.4007 82.6875C64.0484 82.9299 63.8723 83.2386 63.8723 83.6136C63.8723 83.947 63.9935 84.2102 64.2359 84.4034C64.4783 84.5966 64.8571 84.7576 65.3723 84.8864L66.6677 85.2045C67.448 85.3939 68.0295 85.6837 68.412 86.0739C68.7946 86.4602 68.9859 86.9583 68.9859 87.5682C68.9859 88.0682 68.842 88.5152 68.5541 88.9091C68.27 89.303 67.8723 89.6136 67.3609 89.8409C66.8495 90.0682 66.2548 90.1818 65.5768 90.1818C64.6867 90.1818 63.9499 89.9886 63.3666 89.6023C62.7833 89.2159 62.4139 88.6515 62.2586 87.9091L63.5314 87.5909C63.6526 88.0606 63.8817 88.4129 64.2189 88.6477C64.5598 88.8826 65.0048 89 65.5541 89C66.1791 89 66.6753 88.8674 67.0427 88.6023C67.4139 88.3333 67.5995 88.0114 67.5995 87.6364C67.5995 87.3333 67.4935 87.0795 67.2814 86.875C67.0692 86.6667 66.7435 86.5114 66.3041 86.4091L64.8495 86.0682C64.0503 85.8788 63.4632 85.5852 63.0882 85.1875C62.717 84.786 62.5314 84.2841 62.5314 83.6818C62.5314 83.1894 62.6696 82.7538 62.9461 82.375C63.2264 81.9962 63.6071 81.6989 64.0882 81.483C64.573 81.267 65.1223 81.1591 65.7359 81.1591C66.5995 81.1591 67.2776 81.3485 67.77 81.7273C68.2662 82.1061 68.6185 82.6061 68.8268 83.2273ZM77.1862 83.2273L75.9816 83.5682C75.9059 83.3674 75.7941 83.1723 75.6464 82.983C75.5025 82.7898 75.3055 82.6307 75.0555 82.5057C74.8055 82.3807 74.4854 82.3182 74.0953 82.3182C73.5612 82.3182 73.1161 82.4413 72.7601 82.6875C72.4078 82.9299 72.2316 83.2386 72.2316 83.6136C72.2316 83.947 72.3529 84.2102 72.5953 84.4034C72.8377 84.5966 73.2165 84.7576 73.7316 84.8864L75.0271 85.2045C75.8074 85.3939 76.3888 85.6837 76.7714 86.0739C77.154 86.4602 77.3453 86.9583 77.3453 87.5682C77.3453 88.0682 77.2013 88.5152 76.9135 88.9091C76.6294 89.303 76.2316 89.6136 75.7203 89.8409C75.2089 90.0682 74.6142 90.1818 73.9362 90.1818C73.046 90.1818 72.3093 89.9886 71.726 89.6023C71.1426 89.2159 70.7733 88.6515 70.618 87.9091L71.8907 87.5909C72.0119 88.0606 72.2411 88.4129 72.5782 88.6477C72.9191 88.8826 73.3642 89 73.9135 89C74.5385 89 75.0347 88.8674 75.4021 88.6023C75.7733 88.3333 75.9589 88.0114 75.9589 87.6364C75.9589 87.3333 75.8529 87.0795 75.6407 86.875C75.4286 86.6667 75.1029 86.5114 74.6635 86.4091L73.2089 86.0682C72.4097 85.8788 71.8226 85.5852 71.4476 85.1875C71.0763 84.786 70.8907 84.2841 70.8907 83.6818C70.8907 83.1894 71.029 82.7538 71.3055 82.375C71.5858 81.9962 71.9665 81.6989 72.4476 81.483C72.9324 81.267 73.4816 81.1591 74.0953 81.1591C74.9589 81.1591 75.6369 81.3485 76.1294 81.7273C76.6256 82.1061 76.9779 82.6061 77.1862 83.2273Z" fill="#4B5563"/>
</g>
<defs>
<clipPath id="clip0_327_530">
<rect width="78" height="96" fill="white" transform="translate(0.636475)"/>
</clipPath>
</defs>
</svg>
