<svg width="78" height="96" viewBox="0 0 71 100" fill="none" xmlns="http://www.w3.org/2000/svg">
<g clip-path="url(#clip0_327_518)">
<path d="M67.5201 33.295C67.3461 22.595 61.3801 12.177 52.1501 6.69099C44.8781 2.16199 35.6921 0.942987 27.4181 3.03299C14.9651 6.16799 5.03711 17.446 3.77511 30.3C2.20711 42.44 8.34711 55.066 18.8401 61.292C29.1161 67.736 43.0931 67.475 53.1401 60.692C62.1971 54.814 67.8141 44.092 67.5101 33.304L67.5201 33.295ZM37.3021 61.25C22.7591 62.687 8.69511 50.365 8.30211 35.778C7.20211 23.935 15.0071 12.222 26.1541 8.30299C41.7861 2.03299 60.9881 13.615 62.5991 30.38C65.1251 45.444 52.5851 60.78 37.3021 61.25ZM27.7321 32.38L48.7621 15.18L37.3981 32.423C34.1761 32.423 30.9541 32.424 27.7321 32.38ZM33.6451 35.56L43.3111 35.604L22.2811 52.847L33.6451 35.56Z" fill="#010101"/>
</g>
<path d="M8.30495 83.2727C8.23677 82.697 7.96026 82.25 7.47541 81.9318C6.99056 81.6136 6.39586 81.4545 5.69132 81.4545C5.17617 81.4545 4.72541 81.5379 4.33904 81.7045C3.95647 81.8712 3.65723 82.1004 3.44132 82.392C3.2292 82.6837 3.12314 83.0152 3.12314 83.3864C3.12314 83.697 3.197 83.964 3.34473 84.1875C3.49624 84.4072 3.68942 84.5909 3.92427 84.7386C4.15912 84.8826 4.40533 85.0019 4.66291 85.0966C4.92048 85.1875 5.15723 85.2614 5.37314 85.3182L6.55495 85.6364C6.85798 85.7159 7.19511 85.8258 7.56632 85.9659C7.94132 86.1061 8.29927 86.2973 8.64018 86.5398C8.98488 86.7784 9.26897 87.0852 9.49245 87.4602C9.71594 87.8352 9.82768 88.2955 9.82768 88.8409C9.82768 89.4697 9.66291 90.0379 9.33336 90.5455C9.00761 91.053 8.53033 91.4564 7.90155 91.7557C7.27655 92.0549 6.51708 92.2045 5.62314 92.2045C4.7898 92.2045 4.06821 92.0701 3.45836 91.8011C2.8523 91.5322 2.37503 91.1572 2.02654 90.6761C1.68185 90.1951 1.48677 89.6364 1.44132 89H2.89586C2.93374 89.4394 3.08147 89.803 3.33904 90.0909C3.60041 90.375 3.92995 90.5871 4.32768 90.7273C4.7292 90.8636 5.16101 90.9318 5.62314 90.9318C6.16101 90.9318 6.64397 90.8447 7.072 90.6705C7.50003 90.4924 7.83905 90.2462 8.08905 89.9318C8.33905 89.6136 8.46405 89.2424 8.46405 88.8182C8.46405 88.4318 8.35609 88.1174 8.14018 87.875C7.92427 87.6326 7.64018 87.4356 7.28791 87.2841C6.93564 87.1326 6.55495 87 6.14586 86.8864L4.71405 86.4773C3.80495 86.2159 3.08526 85.8428 2.55495 85.358C2.02465 84.8731 1.7595 84.2386 1.7595 83.4545C1.7595 82.803 1.93564 82.2348 2.28791 81.75C2.64397 81.2614 3.12124 80.8826 3.71973 80.6136C4.322 80.3409 4.99435 80.2045 5.73677 80.2045C6.48677 80.2045 7.15344 80.339 7.73677 80.608C8.32011 80.8731 8.78223 81.2367 9.12314 81.6989C9.46783 82.161 9.64965 82.6856 9.66859 83.2727H8.30495ZM15.5081 92.1818C14.7202 92.1818 14.0289 91.9943 13.4342 91.6193C12.8433 91.2443 12.3812 90.7197 12.0479 90.0455C11.7183 89.3712 11.5535 88.5833 11.5535 87.6818C11.5535 86.7727 11.7183 85.9792 12.0479 85.3011C12.3812 84.6231 12.8433 84.0966 13.4342 83.7216C14.0289 83.3466 14.7202 83.1591 15.5081 83.1591C16.296 83.1591 16.9854 83.3466 17.5763 83.7216C18.171 84.0966 18.6331 84.6231 18.9626 85.3011C19.296 85.9792 19.4626 86.7727 19.4626 87.6818C19.4626 88.5833 19.296 89.3712 18.9626 90.0455C18.6331 90.7197 18.171 91.2443 17.5763 91.6193C16.9854 91.9943 16.296 92.1818 15.5081 92.1818ZM15.5081 90.9773C16.1066 90.9773 16.599 90.8239 16.9854 90.517C17.3717 90.2102 17.6577 89.8068 17.8433 89.3068C18.0289 88.8068 18.1217 88.2652 18.1217 87.6818C18.1217 87.0985 18.0289 86.5549 17.8433 86.0511C17.6577 85.5473 17.3717 85.1402 16.9854 84.8295C16.599 84.5189 16.1066 84.3636 15.5081 84.3636C14.9096 84.3636 14.4172 84.5189 14.0308 84.8295C13.6444 85.1402 13.3585 85.5473 13.1729 86.0511C12.9872 86.5549 12.8944 87.0985 12.8944 87.6818C12.8944 88.2652 12.9872 88.8068 13.1729 89.3068C13.3585 89.8068 13.6444 90.2102 14.0308 90.517C14.4172 90.8239 14.9096 90.9773 15.5081 90.9773ZM25.055 92.1818C24.2368 92.1818 23.5322 91.9886 22.9413 91.6023C22.3504 91.2159 21.8959 90.6837 21.5777 90.0057C21.2595 89.3277 21.1004 88.553 21.1004 87.6818C21.1004 86.7955 21.2633 86.0133 21.589 85.3352C21.9186 84.6534 22.3769 84.1212 22.964 83.7386C23.555 83.3523 24.2443 83.1591 25.0322 83.1591C25.6459 83.1591 26.1989 83.2727 26.6913 83.5C27.1837 83.7273 27.5872 84.0455 27.9015 84.4545C28.2159 84.8636 28.411 85.3409 28.4868 85.8864H27.1459C27.0436 85.4886 26.8163 85.1364 26.464 84.8295C26.1156 84.5189 25.6459 84.3636 25.055 84.3636C24.5322 84.3636 24.0739 84.5 23.68 84.7727C23.2898 85.0417 22.9849 85.4223 22.7652 85.9148C22.5493 86.4034 22.4413 86.9773 22.4413 87.6364C22.4413 88.3106 22.5474 88.8977 22.7595 89.3977C22.9754 89.8977 23.2784 90.286 23.6686 90.5625C24.0625 90.839 24.5247 90.9773 25.055 90.9773C25.4034 90.9773 25.7197 90.9167 26.0038 90.7955C26.2879 90.6742 26.5284 90.5 26.7254 90.2727C26.9224 90.0455 27.0625 89.7727 27.1459 89.4545H28.4868C28.411 89.9697 28.2235 90.4337 27.9243 90.8466C27.6288 91.2557 27.2368 91.5814 26.7481 91.8239C26.2633 92.0625 25.6989 92.1818 25.055 92.1818ZM31.697 88.8182L31.6743 87.1591H31.947L35.7652 83.2727H37.4243L33.3561 87.3864H33.2425L31.697 88.8182ZM30.447 92V80.3636H31.7879V92H30.447ZM35.9925 92L32.5834 87.6818L33.5379 86.75L37.697 92H35.9925ZM42.4498 92.1818C41.6089 92.1818 40.8836 91.9962 40.2737 91.625C39.6676 91.25 39.1998 90.7273 38.8703 90.0568C38.5445 89.3826 38.3817 88.5985 38.3817 87.7045C38.3817 86.8106 38.5445 86.0227 38.8703 85.3409C39.1998 84.6553 39.6582 84.1212 40.2453 83.7386C40.8362 83.3523 41.5256 83.1591 42.3135 83.1591C42.768 83.1591 43.2169 83.2348 43.6601 83.3864C44.1032 83.5379 44.5067 83.7841 44.8703 84.125C45.2339 84.4621 45.5237 84.9091 45.7396 85.4659C45.9555 86.0227 46.0635 86.7083 46.0635 87.5227V88.0909H39.3362V86.9318H44.6998C44.6998 86.4394 44.6014 86 44.4044 85.6136C44.2112 85.2273 43.9347 84.9223 43.5748 84.6989C43.2188 84.4754 42.7983 84.3636 42.3135 84.3636C41.7794 84.3636 41.3173 84.4962 40.9271 84.7614C40.5407 85.0227 40.2434 85.3636 40.0351 85.7841C39.8267 86.2045 39.7226 86.6553 39.7226 87.1364V87.9091C39.7226 88.5682 39.8362 89.1269 40.0635 89.5852C40.2945 90.0398 40.6146 90.3864 41.0237 90.625C41.4328 90.8598 41.9082 90.9773 42.4498 90.9773C42.8021 90.9773 43.1203 90.928 43.4044 90.8295C43.6923 90.7273 43.9404 90.5758 44.1487 90.375C44.357 90.1705 44.518 89.9167 44.6317 89.6136L45.9271 89.9773C45.7907 90.4167 45.5616 90.803 45.2396 91.1364C44.9176 91.4659 44.5199 91.7235 44.0464 91.9091C43.5729 92.0909 43.0407 92.1818 42.4498 92.1818ZM51.8987 83.2727V84.4091H47.376V83.2727H51.8987ZM48.6942 81.1818H50.0351V89.5C50.0351 89.8788 50.09 90.1629 50.1998 90.3523C50.3135 90.5379 50.4574 90.6629 50.6317 90.7273C50.8097 90.7879 50.9972 90.8182 51.1942 90.8182C51.3419 90.8182 51.4631 90.8106 51.5578 90.7955C51.6525 90.7765 51.7282 90.7614 51.7851 90.75L52.0578 91.9545C51.9669 91.9886 51.84 92.0227 51.6771 92.0568C51.5142 92.0947 51.3078 92.1136 51.0578 92.1136C50.679 92.1136 50.3078 92.0322 49.9442 91.8693C49.5843 91.7064 49.2851 91.4583 49.0464 91.125C48.8116 90.7917 48.6942 90.3712 48.6942 89.8636V81.1818ZM54.893 92.0909C54.6127 92.0909 54.3722 91.9905 54.1714 91.7898C53.9707 91.589 53.8703 91.3485 53.8703 91.0682C53.8703 90.7879 53.9707 90.5473 54.1714 90.3466C54.3722 90.1458 54.6127 90.0455 54.893 90.0455C55.1733 90.0455 55.4139 90.1458 55.6146 90.3466C55.8154 90.5473 55.9157 90.7879 55.9157 91.0682C55.9157 91.2538 55.8684 91.4242 55.7737 91.5795C55.6828 91.7348 55.5597 91.8598 55.4044 91.9545C55.2529 92.0455 55.0824 92.0909 54.893 92.0909ZM58.322 92V83.2727H59.6629V92H58.322ZM59.0038 81.8182C58.7425 81.8182 58.5171 81.7292 58.3277 81.5511C58.1421 81.3731 58.0493 81.1591 58.0493 80.9091C58.0493 80.6591 58.1421 80.4451 58.3277 80.267C58.5171 80.089 58.7425 80 59.0038 80C59.2652 80 59.4887 80.089 59.6743 80.267C59.8637 80.4451 59.9584 80.6591 59.9584 80.9091C59.9584 81.1591 59.8637 81.3731 59.6743 81.5511C59.4887 81.7292 59.2652 81.8182 59.0038 81.8182ZM65.6643 92.1818C64.8765 92.1818 64.1852 91.9943 63.5905 91.6193C62.9996 91.2443 62.5374 90.7197 62.2041 90.0455C61.8746 89.3712 61.7098 88.5833 61.7098 87.6818C61.7098 86.7727 61.8746 85.9792 62.2041 85.3011C62.5374 84.6231 62.9996 84.0966 63.5905 83.7216C64.1852 83.3466 64.8765 83.1591 65.6643 83.1591C66.4522 83.1591 67.1416 83.3466 67.7325 83.7216C68.3272 84.0966 68.7893 84.6231 69.1189 85.3011C69.4522 85.9792 69.6189 86.7727 69.6189 87.6818C69.6189 88.5833 69.4522 89.3712 69.1189 90.0455C68.7893 90.7197 68.3272 91.2443 67.7325 91.6193C67.1416 91.9943 66.4522 92.1818 65.6643 92.1818ZM65.6643 90.9773C66.2628 90.9773 66.7552 90.8239 67.1416 90.517C67.528 90.2102 67.814 89.8068 67.9996 89.3068C68.1852 88.8068 68.278 88.2652 68.278 87.6818C68.278 87.0985 68.1852 86.5549 67.9996 86.0511C67.814 85.5473 67.528 85.1402 67.1416 84.8295C66.7552 84.5189 66.2628 84.3636 65.6643 84.3636C65.0658 84.3636 64.5734 84.5189 64.1871 84.8295C63.8007 85.1402 63.5147 85.5473 63.3291 86.0511C63.1435 86.5549 63.0507 87.0985 63.0507 87.6818C63.0507 88.2652 63.1435 88.8068 63.3291 89.3068C63.5147 89.8068 63.8007 90.2102 64.1871 90.517C64.5734 90.8239 65.0658 90.9773 65.6643 90.9773Z" fill="#4B5563"/>
<defs>
<clipPath id="clip0_327_518">
<rect width="64" height="64" fill="white" transform="translate(3.53223 2)"/>
</clipPath>
</defs>
</svg>
