<svg width="78" height="96" viewBox="0 0 79 96" fill="none" xmlns="http://www.w3.org/2000/svg">
<g clip-path="url(#clip0_327_559)">
<path fill-rule="evenodd" clip-rule="evenodd" d="M18.7627 55.604L17.0267 9.37595C16.9721 7.84929 18.1454 6.55729 19.6694 6.46395L50.4801 4.53729L52.8334 5.33329L55.8934 4.19862L58.9814 4.00529C60.5321 3.90662 61.8694 5.08395 61.9694 6.63462C61.9734 6.69462 61.9747 6.75595 61.9747 6.81729V57.1866C61.9734 58.7426 60.7107 60.0026 59.1547 60.0013C59.1134 60.0013 59.0721 60 59.0321 59.9986L21.4507 58.3106C19.9867 58.2453 18.8187 57.0693 18.7627 55.604Z" fill="#FF4081"/>
<path fill-rule="evenodd" clip-rule="evenodd" d="M55.8907 4.19873L50.4814 4.53473L50.2187 10.8827C50.2094 11.1147 50.3894 11.3094 50.6214 11.3201C50.7187 11.3241 50.8134 11.2947 50.8907 11.2361L53.3547 9.3654L55.4374 11.0067C55.6187 11.1507 55.884 11.1201 56.0267 10.9387C56.088 10.8601 56.12 10.7627 56.1174 10.6627L55.8933 4.20006L55.8907 4.19873ZM51.68 25.4507C50.692 26.2201 43.3107 26.7441 43.3107 25.6494C43.468 21.4694 41.5974 21.2867 40.556 21.2867C39.5707 21.2867 37.9067 21.5841 37.9067 23.8241C37.9067 26.1054 40.3373 27.3934 43.1907 28.9054C47.2427 31.0534 52.1507 33.6547 52.1507 40.1947C52.1507 46.4667 47.0547 49.9281 40.5587 49.9281C33.8534 49.9281 27.992 47.2147 28.6533 37.8094C28.9133 36.7067 37.44 36.9694 37.44 37.8094C37.3334 41.6907 38.2187 42.8321 40.4534 42.8321C42.1694 42.8321 42.948 41.8854 42.948 40.2947C42.948 37.8841 40.4174 36.4614 37.5027 34.8267C33.5574 32.6121 28.9147 30.0054 28.9147 24.0214C28.9147 18.0521 33.02 14.0707 40.3493 14.0707C47.6787 14.0707 51.68 17.9921 51.68 25.4507Z" fill="white"/>
<path d="M7.77273 81.2727C7.70455 80.697 7.42803 80.25 6.94318 79.9318C6.45833 79.6136 5.86364 79.4545 5.15909 79.4545C4.64394 79.4545 4.19318 79.5379 3.80682 79.7045C3.42424 79.8712 3.125 80.1004 2.90909 80.392C2.69697 80.6837 2.59091 81.0152 2.59091 81.3864C2.59091 81.697 2.66477 81.964 2.8125 82.1875C2.96402 82.4072 3.1572 82.5909 3.39205 82.7386C3.62689 82.8826 3.87311 83.0019 4.13068 83.0966C4.38826 83.1875 4.625 83.2614 4.84091 83.3182L6.02273 83.6364C6.32576 83.7159 6.66288 83.8258 7.03409 83.9659C7.40909 84.1061 7.76705 84.2973 8.10795 84.5398C8.45265 84.7784 8.73674 85.0852 8.96023 85.4602C9.18371 85.8352 9.29545 86.2955 9.29545 86.8409C9.29545 87.4697 9.13068 88.0379 8.80114 88.5455C8.47538 89.053 7.99811 89.4564 7.36932 89.7557C6.74432 90.0549 5.98485 90.2045 5.09091 90.2045C4.25758 90.2045 3.53598 90.0701 2.92614 89.8011C2.32008 89.5322 1.8428 89.1572 1.49432 88.6761C1.14962 88.1951 0.954545 87.6364 0.909091 87H2.36364C2.40152 87.4394 2.54924 87.803 2.80682 88.0909C3.06818 88.375 3.39773 88.5871 3.79545 88.7273C4.19697 88.8636 4.62879 88.9318 5.09091 88.9318C5.62879 88.9318 6.11174 88.8447 6.53977 88.6705C6.9678 88.4924 7.30682 88.2462 7.55682 87.9318C7.80682 87.6136 7.93182 87.2424 7.93182 86.8182C7.93182 86.4318 7.82386 86.1174 7.60795 85.875C7.39205 85.6326 7.10795 85.4356 6.75568 85.2841C6.40341 85.1326 6.02273 85 5.61364 84.8864L4.18182 84.4773C3.27273 84.2159 2.55303 83.8428 2.02273 83.358C1.49242 82.8731 1.22727 82.2386 1.22727 81.4545C1.22727 80.803 1.40341 80.2348 1.75568 79.75C2.11174 79.2614 2.58902 78.8826 3.1875 78.6136C3.78977 78.3409 4.46212 78.2045 5.20455 78.2045C5.95455 78.2045 6.62121 78.339 7.20455 78.608C7.78788 78.8731 8.25 79.2367 8.59091 79.6989C8.93561 80.161 9.11742 80.6856 9.13636 81.2727H7.77273ZM15.2259 81.2727V82.4091H10.7031V81.2727H15.2259ZM12.0213 79.1818H13.3622V87.5C13.3622 87.8788 13.4171 88.1629 13.527 88.3523C13.6406 88.5379 13.7846 88.6629 13.9588 88.7273C14.1368 88.7879 14.3243 88.8182 14.5213 88.8182C14.669 88.8182 14.7902 88.8106 14.8849 88.7955C14.9796 88.7765 15.0554 88.7614 15.1122 88.75L15.3849 89.9545C15.294 89.9886 15.1671 90.0227 15.0043 90.0568C14.8414 90.0947 14.6349 90.1136 14.3849 90.1136C14.0062 90.1136 13.6349 90.0322 13.2713 89.8693C12.9115 89.7064 12.6122 89.4583 12.3736 89.125C12.1387 88.7917 12.0213 88.3712 12.0213 87.8636V79.1818ZM20.6946 90.1818C19.9067 90.1818 19.2154 89.9943 18.6207 89.6193C18.0298 89.2443 17.5677 88.7197 17.2344 88.0455C16.9048 87.3712 16.7401 86.5833 16.7401 85.6818C16.7401 84.7727 16.9048 83.9792 17.2344 83.3011C17.5677 82.6231 18.0298 82.0966 18.6207 81.7216C19.2154 81.3466 19.9067 81.1591 20.6946 81.1591C21.4825 81.1591 22.1719 81.3466 22.7628 81.7216C23.3575 82.0966 23.8196 82.6231 24.1491 83.3011C24.4825 83.9792 24.6491 84.7727 24.6491 85.6818C24.6491 86.5833 24.4825 87.3712 24.1491 88.0455C23.8196 88.7197 23.3575 89.2443 22.7628 89.6193C22.1719 89.9943 21.4825 90.1818 20.6946 90.1818ZM20.6946 88.9773C21.2931 88.9773 21.7855 88.8239 22.1719 88.517C22.5582 88.2102 22.8442 87.8068 23.0298 87.3068C23.2154 86.8068 23.3082 86.2652 23.3082 85.6818C23.3082 85.0985 23.2154 84.5549 23.0298 84.0511C22.8442 83.5473 22.5582 83.1402 22.1719 82.8295C21.7855 82.5189 21.2931 82.3636 20.6946 82.3636C20.0961 82.3636 19.6037 82.5189 19.2173 82.8295C18.831 83.1402 18.545 83.5473 18.3594 84.0511C18.1738 84.5549 18.081 85.0985 18.081 85.6818C18.081 86.2652 18.1738 86.8068 18.3594 87.3068C18.545 87.8068 18.831 88.2102 19.2173 88.517C19.6037 88.8239 20.0961 88.9773 20.6946 88.9773ZM26.696 90V81.2727H27.9915V82.5909H28.0824C28.2415 82.1591 28.5294 81.8087 28.946 81.5398C29.3627 81.2708 29.8324 81.1364 30.3551 81.1364C30.4536 81.1364 30.5767 81.1383 30.7244 81.142C30.8722 81.1458 30.9839 81.1515 31.0597 81.1591V82.5227C31.0142 82.5114 30.91 82.4943 30.7472 82.4716C30.5881 82.4451 30.4195 82.4318 30.2415 82.4318C29.8172 82.4318 29.4384 82.5208 29.1051 82.6989C28.7756 82.8731 28.5142 83.1155 28.321 83.4261C28.1316 83.733 28.0369 84.0833 28.0369 84.4773V90H26.696ZM33.7784 93.2727C33.5511 93.2727 33.3485 93.2538 33.1705 93.2159C32.9924 93.1818 32.8693 93.1477 32.8011 93.1136L33.142 91.9318C33.4678 92.0152 33.7557 92.0455 34.0057 92.0227C34.2557 92 34.4773 91.8883 34.6705 91.6875C34.8674 91.4905 35.0473 91.1705 35.2102 90.7273L35.4602 90.0455L32.233 81.2727H33.6875L36.0966 88.2273H36.1875L38.5966 81.2727H40.0511L36.3466 91.2727C36.1799 91.7235 35.9735 92.0966 35.7273 92.392C35.4811 92.6913 35.1951 92.9129 34.8693 93.0568C34.5473 93.2008 34.1837 93.2727 33.7784 93.2727ZM42.0028 90V78.3636H43.3438V82.6591H43.4574C43.5559 82.5076 43.6922 82.3144 43.8665 82.0795C44.0445 81.8409 44.2983 81.6288 44.6278 81.4432C44.9612 81.2538 45.4119 81.1591 45.9801 81.1591C46.715 81.1591 47.3627 81.3428 47.9233 81.7102C48.4839 82.0777 48.9214 82.5985 49.2358 83.2727C49.5502 83.947 49.7074 84.7424 49.7074 85.6591C49.7074 86.5833 49.5502 87.3845 49.2358 88.0625C48.9214 88.7367 48.4858 89.2595 47.929 89.6307C47.3722 89.9981 46.7301 90.1818 46.0028 90.1818C45.4422 90.1818 44.9934 90.089 44.6562 89.9034C44.3191 89.714 44.0597 89.5 43.8778 89.2614C43.696 89.0189 43.5559 88.8182 43.4574 88.6591H43.2983V90H42.0028ZM43.321 85.6364C43.321 86.2955 43.4176 86.8769 43.6108 87.3807C43.804 87.8807 44.0862 88.2727 44.4574 88.5568C44.8286 88.8371 45.2831 88.9773 45.821 88.9773C46.3816 88.9773 46.8494 88.8295 47.2244 88.5341C47.6032 88.2348 47.8873 87.8333 48.0767 87.3295C48.2699 86.822 48.3665 86.2576 48.3665 85.6364C48.3665 85.0227 48.2718 84.4697 48.0824 83.9773C47.8968 83.4811 47.6146 83.089 47.2358 82.8011C46.8608 82.5095 46.3892 82.3636 45.821 82.3636C45.2756 82.3636 44.8172 82.5019 44.446 82.7784C44.0748 83.0511 43.7945 83.4337 43.6051 83.9261C43.4157 84.4148 43.321 84.9848 43.321 85.6364ZM55.304 90.1818C54.5161 90.1818 53.8248 89.9943 53.2301 89.6193C52.6392 89.2443 52.1771 88.7197 51.8438 88.0455C51.5142 87.3712 51.3494 86.5833 51.3494 85.6818C51.3494 84.7727 51.5142 83.9792 51.8438 83.3011C52.1771 82.6231 52.6392 82.0966 53.2301 81.7216C53.8248 81.3466 54.5161 81.1591 55.304 81.1591C56.0919 81.1591 56.7813 81.3466 57.3722 81.7216C57.9669 82.0966 58.429 82.6231 58.7585 83.3011C59.0919 83.9792 59.2585 84.7727 59.2585 85.6818C59.2585 86.5833 59.0919 87.3712 58.7585 88.0455C58.429 88.7197 57.9669 89.2443 57.3722 89.6193C56.7813 89.9943 56.0919 90.1818 55.304 90.1818ZM55.304 88.9773C55.9025 88.9773 56.3949 88.8239 56.7812 88.517C57.1676 88.2102 57.4536 87.8068 57.6392 87.3068C57.8248 86.8068 57.9176 86.2652 57.9176 85.6818C57.9176 85.0985 57.8248 84.5549 57.6392 84.0511C57.4536 83.5473 57.1676 83.1402 56.7812 82.8295C56.3949 82.5189 55.9025 82.3636 55.304 82.3636C54.7055 82.3636 54.2131 82.5189 53.8267 82.8295C53.4403 83.1402 53.1544 83.5473 52.9688 84.0511C52.7831 84.5549 52.6903 85.0985 52.6903 85.6818C52.6903 86.2652 52.7831 86.8068 52.9688 87.3068C53.1544 87.8068 53.4403 88.2102 53.8267 88.517C54.2131 88.8239 54.7055 88.9773 55.304 88.9773ZM64.8509 90.1818C64.063 90.1818 63.3717 89.9943 62.777 89.6193C62.1861 89.2443 61.724 88.7197 61.3906 88.0455C61.0611 87.3712 60.8963 86.5833 60.8963 85.6818C60.8963 84.7727 61.0611 83.9792 61.3906 83.3011C61.724 82.6231 62.1861 82.0966 62.777 81.7216C63.3717 81.3466 64.063 81.1591 64.8509 81.1591C65.6387 81.1591 66.3281 81.3466 66.919 81.7216C67.5137 82.0966 67.9759 82.6231 68.3054 83.3011C68.6387 83.9792 68.8054 84.7727 68.8054 85.6818C68.8054 86.5833 68.6387 87.3712 68.3054 88.0455C67.9759 88.7197 67.5137 89.2443 66.919 89.6193C66.3281 89.9943 65.6387 90.1818 64.8509 90.1818ZM64.8509 88.9773C65.4493 88.9773 65.9418 88.8239 66.3281 88.517C66.7145 88.2102 67.0005 87.8068 67.1861 87.3068C67.3717 86.8068 67.4645 86.2652 67.4645 85.6818C67.4645 85.0985 67.3717 84.5549 67.1861 84.0511C67.0005 83.5473 66.7145 83.1402 66.3281 82.8295C65.9418 82.5189 65.4493 82.3636 64.8509 82.3636C64.2524 82.3636 63.7599 82.5189 63.3736 82.8295C62.9872 83.1402 62.7012 83.5473 62.5156 84.0511C62.33 84.5549 62.2372 85.0985 62.2372 85.6818C62.2372 86.2652 62.33 86.8068 62.5156 87.3068C62.7012 87.8068 62.9872 88.2102 63.3736 88.517C63.7599 88.8239 64.2524 88.9773 64.8509 88.9773ZM72.1023 86.8182L72.0795 85.1591H72.3523L76.1705 81.2727H77.8295L73.7614 85.3864H73.6477L72.1023 86.8182ZM70.8523 90V78.3636H72.1932V90H70.8523ZM76.3977 90L72.9886 85.6818L73.9432 84.75L78.1023 90H76.3977Z" fill="#4B5563"/>
</g>
<defs>
<clipPath id="clip0_327_559">
<rect width="79" height="96" fill="white"/>
</clipPath>
</defs>
</svg>
