<svg width="78" height="96" viewBox="0 0 105 96" fill="none" xmlns="http://www.w3.org/2000/svg">
<g clip-path="url(#clip0_327_534)">
<g clip-path="url(#clip1_327_534)">
<mask id="mask0_327_534" style="mask-type:luminance" maskUnits="userSpaceOnUse" x="0" y="0" width="105" height="63">
<path d="M0.272705 0H105V62.8364H0.272705V0Z" fill="white"/>
</mask>
<g mask="url(#mask0_327_534)">
<path fill-rule="evenodd" clip-rule="evenodd" d="M52.6363 0C38.6727 0 29.9454 6.98182 26.4545 20.9455C31.6909 13.9636 37.8 11.3455 44.7818 13.0909C48.7653 14.0858 51.6123 16.9775 54.7639 20.1755C59.8974 25.3867 65.8397 31.4182 78.8182 31.4182C92.7818 31.4182 101.509 24.4364 105 10.4727C99.7636 17.4545 93.6545 20.0727 86.6727 18.3273C82.6892 17.3324 79.8422 14.4407 76.6906 11.2427C71.5571 6.03151 65.6148 0 52.6363 0ZM26.4545 31.4182C12.4909 31.4182 3.76361 38.4 0.272705 52.3636C5.50907 45.3818 11.6182 42.7636 18.6 44.5091C22.5835 45.5059 25.4305 48.3956 28.582 51.5937C33.7156 56.8048 39.6579 62.8364 52.6363 62.8364C66.6 62.8364 75.3272 55.8545 78.8182 41.8909C73.5818 48.8727 67.4727 51.4909 60.4909 49.7455C56.5074 48.7505 53.6603 45.8589 50.5088 42.6608C45.3752 37.4497 39.4329 31.4182 26.4545 31.4182Z" fill="#38BDF8"/>
</g>
</g>
<path d="M9.40896 79.6136V78.3636H18.1362V79.6136H14.4771V90H13.068V79.6136H9.40896ZM21.5098 90.2045C20.9568 90.2045 20.4549 90.1004 20.0041 89.892C19.5534 89.6799 19.1954 89.375 18.9303 88.9773C18.6651 88.5758 18.5325 88.0909 18.5325 87.5227C18.5325 87.0227 18.631 86.6174 18.828 86.3068C19.025 85.9924 19.2882 85.7462 19.6178 85.5682C19.9473 85.3902 20.3109 85.2576 20.7087 85.1705C21.1102 85.0795 21.5136 85.0076 21.9189 84.9545C22.4492 84.8864 22.8791 84.8352 23.2087 84.8011C23.542 84.7633 23.7844 84.7008 23.9359 84.6136C24.0912 84.5265 24.1689 84.375 24.1689 84.1591V84.1136C24.1689 83.553 24.0155 83.1174 23.7087 82.8068C23.4056 82.4962 22.9454 82.3409 22.328 82.3409C21.6878 82.3409 21.1859 82.4811 20.8223 82.7614C20.4587 83.0417 20.203 83.3409 20.0553 83.6591L18.7825 83.2045C19.0098 82.6742 19.3128 82.2614 19.6916 81.9659C20.0742 81.6667 20.4909 81.4583 20.9416 81.3409C21.3962 81.2197 21.8431 81.1591 22.2825 81.1591C22.5628 81.1591 22.8848 81.1932 23.2484 81.2614C23.6159 81.3258 23.97 81.4602 24.3109 81.6648C24.6556 81.8693 24.9416 82.178 25.1689 82.5909C25.3962 83.0038 25.5098 83.5568 25.5098 84.25V90H24.1689V88.8182H24.1007C24.0098 89.0076 23.8583 89.2102 23.6462 89.4261C23.4341 89.642 23.1519 89.8258 22.7996 89.9773C22.4473 90.1288 22.0174 90.2045 21.5098 90.2045ZM21.7144 89C22.2447 89 22.6916 88.8958 23.0553 88.6875C23.4227 88.4792 23.6992 88.2102 23.8848 87.8807C24.0742 87.5511 24.1689 87.2045 24.1689 86.8409V85.6136C24.1121 85.6818 23.9871 85.7443 23.7939 85.8011C23.6045 85.8542 23.3848 85.9015 23.1348 85.9432C22.8886 85.9811 22.6481 86.0152 22.4132 86.0455C22.1822 86.072 21.9947 86.0947 21.8507 86.1136C21.5022 86.1591 21.1765 86.233 20.8734 86.3352C20.5742 86.4337 20.3318 86.5833 20.1462 86.7841C19.9644 86.9811 19.8734 87.25 19.8734 87.5909C19.8734 88.0568 20.0458 88.4091 20.3905 88.6477C20.739 88.8826 21.1803 89 21.7144 89ZM27.9573 90V81.2727H29.2982V90H27.9573ZM28.6391 79.8182C28.3777 79.8182 28.1523 79.7292 27.9629 79.5511C27.7773 79.3731 27.6845 79.1591 27.6845 78.9091C27.6845 78.6591 27.7773 78.4451 27.9629 78.267C28.1523 78.089 28.3777 78 28.6391 78C28.9004 78 29.1239 78.089 29.3095 78.267C29.4989 78.4451 29.5936 78.6591 29.5936 78.9091C29.5936 79.1591 29.4989 79.3731 29.3095 79.5511C29.1239 79.7292 28.9004 79.8182 28.6391 79.8182ZM33.095 78.3636V90H31.7541V78.3636H33.095ZM37.5283 90L34.8692 81.2727H36.2783L38.1646 87.9545H38.2555L40.1192 81.2727H41.551L43.3919 87.9318H43.4828L45.3692 81.2727H46.7783L44.1192 90H42.801L40.8919 83.2955H40.7555L38.8465 90H37.5283ZM48.551 90V81.2727H49.8919V90H48.551ZM49.2328 79.8182C48.9715 79.8182 48.7461 79.7292 48.5567 79.5511C48.3711 79.3731 48.2783 79.1591 48.2783 78.9091C48.2783 78.6591 48.3711 78.4451 48.5567 78.267C48.7461 78.089 48.9715 78 49.2328 78C49.4942 78 49.7177 78.089 49.9033 78.267C50.0927 78.4451 50.1874 78.6591 50.1874 78.9091C50.1874 79.1591 50.0927 79.3731 49.9033 79.5511C49.7177 79.7292 49.4942 79.8182 49.2328 79.8182ZM53.6888 84.75V90H52.3479V81.2727H53.6433V82.6364H53.757C53.9615 82.1932 54.2721 81.8371 54.6888 81.5682C55.1055 81.2955 55.6433 81.1591 56.3024 81.1591C56.8933 81.1591 57.4104 81.2803 57.8536 81.5227C58.2967 81.7614 58.6414 82.125 58.8877 82.6136C59.1339 83.0985 59.257 83.7121 59.257 84.4545V90H57.9161V84.5455C57.9161 83.8598 57.738 83.3258 57.382 82.9432C57.0259 82.5568 56.5373 82.3636 55.9161 82.3636C55.488 82.3636 55.1055 82.4564 54.7683 82.642C54.435 82.8277 54.1717 83.0985 53.9786 83.4545C53.7854 83.8106 53.6888 84.2424 53.6888 84.75ZM65.0027 90.1818C64.2754 90.1818 63.6334 89.9981 63.0766 89.6307C62.5198 89.2595 62.0841 88.7367 61.7698 88.0625C61.4554 87.3845 61.2982 86.5833 61.2982 85.6591C61.2982 84.7424 61.4554 83.947 61.7698 83.2727C62.0841 82.5985 62.5216 82.0777 63.0823 81.7102C63.6429 81.3428 64.2906 81.1591 65.0254 81.1591C65.5936 81.1591 66.0425 81.2538 66.372 81.4432C66.7054 81.6288 66.9591 81.8409 67.1334 82.0795C67.3114 82.3144 67.4497 82.5076 67.5482 82.6591H67.6618V78.3636H69.0027V90H67.7073V88.6591H67.5482C67.4497 88.8182 67.3095 89.0189 67.1277 89.2614C66.9459 89.5 66.6864 89.714 66.3493 89.9034C66.0122 90.089 65.5633 90.1818 65.0027 90.1818ZM65.1845 88.9773C65.7224 88.9773 66.177 88.8371 66.5482 88.5568C66.9194 88.2727 67.2016 87.8807 67.3948 87.3807C67.5879 86.8769 67.6845 86.2955 67.6845 85.6364C67.6845 84.9848 67.5898 84.4148 67.4004 83.9261C67.211 83.4337 66.9307 83.0511 66.5595 82.7784C66.1883 82.5019 65.73 82.3636 65.1845 82.3636C64.6163 82.3636 64.1429 82.5095 63.7641 82.8011C63.3891 83.089 63.1069 83.4811 62.9175 83.9773C62.7319 84.4697 62.6391 85.0227 62.6391 85.6364C62.6391 86.2576 62.7338 86.822 62.9232 87.3295C63.1163 87.8333 63.4004 88.2348 63.7754 88.5341C64.1542 88.8295 64.6239 88.9773 65.1845 88.9773ZM75.1902 90.1818C74.372 90.1818 73.6675 89.9886 73.0766 89.6023C72.4857 89.2159 72.0311 88.6837 71.7129 88.0057C71.3948 87.3277 71.2357 86.553 71.2357 85.6818C71.2357 84.7955 71.3985 84.0133 71.7243 83.3352C72.0538 82.6534 72.5122 82.1212 73.0993 81.7386C73.6902 81.3523 74.3796 81.1591 75.1675 81.1591C75.7811 81.1591 76.3341 81.2727 76.8266 81.5C77.319 81.7273 77.7224 82.0455 78.0368 82.4545C78.3512 82.8636 78.5463 83.3409 78.622 83.8864H77.2811C77.1788 83.4886 76.9516 83.1364 76.5993 82.8295C76.2508 82.5189 75.7811 82.3636 75.1902 82.3636C74.6675 82.3636 74.2091 82.5 73.8152 82.7727C73.4251 83.0417 73.1201 83.4223 72.9004 83.9148C72.6845 84.4034 72.5766 84.9773 72.5766 85.6364C72.5766 86.3106 72.6826 86.8977 72.8948 87.3977C73.1107 87.8977 73.4137 88.286 73.8038 88.5625C74.1978 88.839 74.6599 88.9773 75.1902 88.9773C75.5387 88.9773 75.855 88.9167 76.1391 88.7955C76.4232 88.6742 76.6637 88.5 76.8607 88.2727C77.0576 88.0455 77.1978 87.7727 77.2811 87.4545H78.622C78.5463 87.9697 78.3588 88.4337 78.0595 88.8466C77.7641 89.2557 77.372 89.5814 76.8834 89.8239C76.3985 90.0625 75.8341 90.1818 75.1902 90.1818ZM86.7641 83.2273L85.5595 83.5682C85.4838 83.3674 85.372 83.1723 85.2243 82.983C85.0804 82.7898 84.8834 82.6307 84.6334 82.5057C84.3834 82.3807 84.0633 82.3182 83.6732 82.3182C83.1391 82.3182 82.694 82.4413 82.3379 82.6875C81.9857 82.9299 81.8095 83.2386 81.8095 83.6136C81.8095 83.947 81.9307 84.2102 82.1732 84.4034C82.4156 84.5966 82.7944 84.7576 83.3095 84.8864L84.605 85.2045C85.3853 85.3939 85.9667 85.6837 86.3493 86.0739C86.7319 86.4602 86.9232 86.9583 86.9232 87.5682C86.9232 88.0682 86.7792 88.5152 86.4913 88.9091C86.2073 89.303 85.8095 89.6136 85.2982 89.8409C84.7868 90.0682 84.1921 90.1818 83.5141 90.1818C82.6239 90.1818 81.8872 89.9886 81.3038 89.6023C80.7205 89.2159 80.3512 88.6515 80.1959 87.9091L81.4686 87.5909C81.5898 88.0606 81.819 88.4129 82.1561 88.6477C82.497 88.8826 82.9421 89 83.4913 89C84.1163 89 84.6126 88.8674 84.98 88.6023C85.3512 88.3333 85.5368 88.0114 85.5368 87.6364C85.5368 87.3333 85.4307 87.0795 85.2186 86.875C85.0065 86.6667 84.6807 86.5114 84.2413 86.4091L82.7868 86.0682C81.9876 85.8788 81.4004 85.5852 81.0254 85.1875C80.6542 84.786 80.4686 84.2841 80.4686 83.6818C80.4686 83.1894 80.6069 82.7538 80.8834 82.375C81.1637 81.9962 81.5444 81.6989 82.0254 81.483C82.5103 81.267 83.0595 81.1591 83.6732 81.1591C84.5368 81.1591 85.2148 81.3485 85.7073 81.7273C86.2035 82.1061 86.5557 82.6061 86.7641 83.2273ZM95.1234 83.2273L93.9189 83.5682C93.8431 83.3674 93.7314 83.1723 93.5837 82.983C93.4397 82.7898 93.2428 82.6307 92.9928 82.5057C92.7428 82.3807 92.4227 82.3182 92.0325 82.3182C91.4984 82.3182 91.0534 82.4413 90.6973 82.6875C90.345 82.9299 90.1689 83.2386 90.1689 83.6136C90.1689 83.947 90.2901 84.2102 90.5325 84.4034C90.775 84.5966 91.1537 84.7576 91.6689 84.8864L92.9644 85.2045C93.7447 85.3939 94.3261 85.6837 94.7087 86.0739C95.0912 86.4602 95.2825 86.9583 95.2825 87.5682C95.2825 88.0682 95.1386 88.5152 94.8507 88.9091C94.5666 89.303 94.1689 89.6136 93.6575 89.8409C93.1462 90.0682 92.5515 90.1818 91.8734 90.1818C90.9833 90.1818 90.2466 89.9886 89.6632 89.6023C89.0799 89.2159 88.7106 88.6515 88.5553 87.9091L89.828 87.5909C89.9492 88.0606 90.1784 88.4129 90.5155 88.6477C90.8564 88.8826 91.3015 89 91.8507 89C92.4757 89 92.9719 88.8674 93.3394 88.6023C93.7106 88.3333 93.8962 88.0114 93.8962 87.6364C93.8962 87.3333 93.7901 87.0795 93.578 86.875C93.3659 86.6667 93.0401 86.5114 92.6007 86.4091L91.1462 86.0682C90.3469 85.8788 89.7598 85.5852 89.3848 85.1875C89.0136 84.786 88.828 84.2841 88.828 83.6818C88.828 83.1894 88.9662 82.7538 89.2428 82.375C89.5231 81.9962 89.9037 81.6989 90.3848 81.483C90.8697 81.267 91.4189 81.1591 92.0325 81.1591C92.8962 81.1591 93.5742 81.3485 94.0666 81.7273C94.5628 82.1061 94.9151 82.6061 95.1234 83.2273Z" fill="#4B5563"/>
</g>
<defs>
<clipPath id="clip0_327_534">
<rect width="104.727" height="96" fill="white" transform="translate(0.272705)"/>
</clipPath>
<clipPath id="clip1_327_534">
<rect width="104.727" height="64" fill="white" transform="translate(0.272705)"/>
</clipPath>
</defs>
</svg>
