<svg width="78" height="96" viewBox="0 0 78 96" fill="none" xmlns="http://www.w3.org/2000/svg">
<g clip-path="url(#clip0_327_477)">
<path d="M7 64V0H71V64H7Z" fill="#FFD600"/>
<path d="M48.8454 47.9057C50.0756 49.9039 51.4125 51.8186 54.2445 51.8186C56.6231 51.8186 57.8712 50.6363 57.8712 49.0008C57.8712 47.0434 56.5805 46.3483 53.9636 45.2088L52.5289 44.5972C48.3885 42.8408 45.6347 40.6399 45.6347 35.991C45.6347 31.7066 48.9147 28.4461 54.04 28.4461C57.6898 28.4461 60.312 29.7101 62.2036 33.0203L57.7343 35.8772C56.7511 34.1208 55.688 33.4292 54.04 33.4292C52.3583 33.4292 51.2934 34.4906 51.2934 35.8772C51.2934 37.591 52.36 38.2843 54.8223 39.3457L56.2569 39.9572C61.1369 42.0354 63.8889 44.1581 63.8889 48.9297C63.8889 54.071 59.8285 56.8888 54.3778 56.8888C49.0463 56.8888 46.0187 54.2132 44.3334 50.9012L48.8454 47.9057ZM28.248 48.0514C29.1476 49.6621 30.5147 50.9012 32.4809 50.9012C34.3618 50.9012 35.4445 50.1581 35.4445 47.2692V28.4443H41.3698V48.1795C41.3698 54.1652 37.8978 56.8888 32.8276 56.8888C28.2463 56.8888 24.9396 53.7848 23.592 50.9012L28.248 48.0514Z" fill="#000001"/>
<path d="M5.86364 78.3636H7.27273V86.6818C7.27273 87.4242 7.13636 88.0549 6.86364 88.5739C6.59091 89.0928 6.20644 89.4867 5.71023 89.7557C5.21402 90.0246 4.62879 90.1591 3.95455 90.1591C3.31818 90.1591 2.75189 90.0436 2.25568 89.8125C1.75947 89.5777 1.36932 89.2443 1.08523 88.8125C0.801136 88.3807 0.659091 87.8674 0.659091 87.2727H2.04545C2.04545 87.6023 2.12689 87.8902 2.28977 88.1364C2.45644 88.3788 2.68371 88.5682 2.97159 88.7045C3.25947 88.8409 3.58712 88.9091 3.95455 88.9091C4.35985 88.9091 4.70455 88.8239 4.98864 88.6534C5.27273 88.483 5.48864 88.233 5.63636 87.9034C5.78788 87.5701 5.86364 87.1629 5.86364 86.6818V78.3636ZM12.483 90.2045C11.9299 90.2045 11.428 90.1004 10.9773 89.892C10.5265 89.6799 10.1686 89.375 9.90341 88.9773C9.63826 88.5758 9.50568 88.0909 9.50568 87.5227C9.50568 87.0227 9.60417 86.6174 9.80114 86.3068C9.99811 85.9924 10.2614 85.7462 10.5909 85.5682C10.9205 85.3902 11.2841 85.2576 11.6818 85.1705C12.0833 85.0795 12.4867 85.0076 12.892 84.9545C13.4223 84.8864 13.8523 84.8352 14.1818 84.8011C14.5152 84.7633 14.7576 84.7008 14.9091 84.6136C15.0644 84.5265 15.142 84.375 15.142 84.1591V84.1136C15.142 83.553 14.9886 83.1174 14.6818 82.8068C14.3788 82.4962 13.9186 82.3409 13.3011 82.3409C12.661 82.3409 12.1591 82.4811 11.7955 82.7614C11.4318 83.0417 11.1761 83.3409 11.0284 83.6591L9.75568 83.2045C9.98295 82.6742 10.286 82.2614 10.6648 81.9659C11.0473 81.6667 11.464 81.4583 11.9148 81.3409C12.3693 81.2197 12.8163 81.1591 13.2557 81.1591C13.536 81.1591 13.858 81.1932 14.2216 81.2614C14.589 81.3258 14.9432 81.4602 15.2841 81.6648C15.6288 81.8693 15.9148 82.178 16.142 82.5909C16.3693 83.0038 16.483 83.5568 16.483 84.25V90H15.142V88.8182H15.0739C14.983 89.0076 14.8314 89.2102 14.6193 89.4261C14.4072 89.642 14.125 89.8258 13.7727 89.9773C13.4205 90.1288 12.9905 90.2045 12.483 90.2045ZM12.6875 89C13.2178 89 13.6648 88.8958 14.0284 88.6875C14.3958 88.4792 14.6723 88.2102 14.858 87.8807C15.0473 87.5511 15.142 87.2045 15.142 86.8409V85.6136C15.0852 85.6818 14.9602 85.7443 14.767 85.8011C14.5777 85.8542 14.358 85.9015 14.108 85.9432C13.8617 85.9811 13.6212 86.0152 13.3864 86.0455C13.1553 86.072 12.9678 86.0947 12.8239 86.1136C12.4754 86.1591 12.1496 86.233 11.8466 86.3352C11.5473 86.4337 11.3049 86.5833 11.1193 86.7841C10.9375 86.9811 10.8466 87.25 10.8466 87.5909C10.8466 88.0568 11.0189 88.4091 11.3636 88.6477C11.7121 88.8826 12.1534 89 12.6875 89ZM25.7543 81.2727L22.527 90H21.1634L17.9361 81.2727H19.3906L21.7997 88.2273H21.8906L24.2997 81.2727H25.7543ZM29.8267 90.2045C29.2737 90.2045 28.7718 90.1004 28.321 89.892C27.8703 89.6799 27.5123 89.375 27.2472 88.9773C26.982 88.5758 26.8494 88.0909 26.8494 87.5227C26.8494 87.0227 26.9479 86.6174 27.1449 86.3068C27.3419 85.9924 27.6051 85.7462 27.9347 85.5682C28.2642 85.3902 28.6278 85.2576 29.0256 85.1705C29.4271 85.0795 29.8305 85.0076 30.2358 84.9545C30.7661 84.8864 31.196 84.8352 31.5256 84.8011C31.8589 84.7633 32.1013 84.7008 32.2528 84.6136C32.4081 84.5265 32.4858 84.375 32.4858 84.1591V84.1136C32.4858 83.553 32.3324 83.1174 32.0256 82.8068C31.7225 82.4962 31.2623 82.3409 30.6449 82.3409C30.0047 82.3409 29.5028 82.4811 29.1392 82.7614C28.7756 83.0417 28.5199 83.3409 28.3722 83.6591L27.0994 83.2045C27.3267 82.6742 27.6297 82.2614 28.0085 81.9659C28.3911 81.6667 28.8078 81.4583 29.2585 81.3409C29.7131 81.2197 30.16 81.1591 30.5994 81.1591C30.8797 81.1591 31.2017 81.1932 31.5653 81.2614C31.9328 81.3258 32.2869 81.4602 32.6278 81.6648C32.9725 81.8693 33.2585 82.178 33.4858 82.5909C33.7131 83.0038 33.8267 83.5568 33.8267 84.25V90H32.4858V88.8182H32.4176C32.3267 89.0076 32.1752 89.2102 31.9631 89.4261C31.7509 89.642 31.4688 89.8258 31.1165 89.9773C30.7642 90.1288 30.3343 90.2045 29.8267 90.2045ZM30.0312 89C30.5616 89 31.0085 88.8958 31.3722 88.6875C31.7396 88.4792 32.0161 88.2102 32.2017 87.8807C32.3911 87.5511 32.4858 87.2045 32.4858 86.8409V85.6136C32.429 85.6818 32.304 85.7443 32.1108 85.8011C31.9214 85.8542 31.7017 85.9015 31.4517 85.9432C31.2055 85.9811 30.965 86.0152 30.7301 86.0455C30.4991 86.072 30.3116 86.0947 30.1676 86.1136C29.8191 86.1591 29.4934 86.233 29.1903 86.3352C28.8911 86.4337 28.6487 86.5833 28.4631 86.7841C28.2813 86.9811 28.1903 87.25 28.1903 87.5909C28.1903 88.0568 28.3627 88.4091 28.7074 88.6477C29.0559 88.8826 29.4972 89 30.0312 89ZM42.456 83.2273L41.2514 83.5682C41.1757 83.3674 41.0639 83.1723 40.9162 82.983C40.7723 82.7898 40.5753 82.6307 40.3253 82.5057C40.0753 82.3807 39.7552 82.3182 39.3651 82.3182C38.831 82.3182 38.3859 82.4413 38.0298 82.6875C37.6776 82.9299 37.5014 83.2386 37.5014 83.6136C37.5014 83.947 37.6226 84.2102 37.8651 84.4034C38.1075 84.5966 38.4863 84.7576 39.0014 84.8864L40.2969 85.2045C41.0772 85.3939 41.6586 85.6837 42.0412 86.0739C42.4238 86.4602 42.6151 86.9583 42.6151 87.5682C42.6151 88.0682 42.4711 88.5152 42.1832 88.9091C41.8991 89.303 41.5014 89.6136 40.9901 89.8409C40.4787 90.0682 39.884 90.1818 39.206 90.1818C38.3158 90.1818 37.5791 89.9886 36.9957 89.6023C36.4124 89.2159 36.0431 88.6515 35.8878 87.9091L37.1605 87.5909C37.2817 88.0606 37.5109 88.4129 37.848 88.6477C38.1889 88.8826 38.634 89 39.1832 89C39.8082 89 40.3045 88.8674 40.6719 88.6023C41.0431 88.3333 41.2287 88.0114 41.2287 87.6364C41.2287 87.3333 41.1226 87.0795 40.9105 86.875C40.6984 86.6667 40.3726 86.5114 39.9332 86.4091L38.4787 86.0682C37.6795 85.8788 37.0923 85.5852 36.7173 85.1875C36.3461 84.786 36.1605 84.2841 36.1605 83.6818C36.1605 83.1894 36.2988 82.7538 36.5753 82.375C36.8556 81.9962 37.2363 81.6989 37.7173 81.483C38.2022 81.267 38.7514 81.1591 39.3651 81.1591C40.2287 81.1591 40.9067 81.3485 41.3991 81.7273C41.8954 82.1061 42.2476 82.6061 42.456 83.2273ZM48.179 90.1818C47.3608 90.1818 46.6563 89.9886 46.0653 89.6023C45.4744 89.2159 45.0199 88.6837 44.7017 88.0057C44.3835 87.3277 44.2244 86.553 44.2244 85.6818C44.2244 84.7955 44.3873 84.0133 44.7131 83.3352C45.0426 82.6534 45.5009 82.1212 46.0881 81.7386C46.679 81.3523 47.3684 81.1591 48.1562 81.1591C48.7699 81.1591 49.3229 81.2727 49.8153 81.5C50.3078 81.7273 50.7112 82.0455 51.0256 82.4545C51.34 82.8636 51.535 83.3409 51.6108 83.8864H50.2699C50.1676 83.4886 49.9403 83.1364 49.5881 82.8295C49.2396 82.5189 48.7699 82.3636 48.179 82.3636C47.6563 82.3636 47.1979 82.5 46.804 82.7727C46.4138 83.0417 46.1089 83.4223 45.8892 83.9148C45.6733 84.4034 45.5653 84.9773 45.5653 85.6364C45.5653 86.3106 45.6714 86.8977 45.8835 87.3977C46.0994 87.8977 46.4025 88.286 46.7926 88.5625C47.1866 88.839 47.6487 88.9773 48.179 88.9773C48.5275 88.9773 48.8438 88.9167 49.1278 88.7955C49.4119 88.6742 49.6525 88.5 49.8494 88.2727C50.0464 88.0455 50.1866 87.7727 50.2699 87.4545H51.6108C51.535 87.9697 51.3475 88.4337 51.0483 88.8466C50.7528 89.2557 50.3608 89.5814 49.8722 89.8239C49.3873 90.0625 48.8229 90.1818 48.179 90.1818ZM53.571 90V81.2727H54.8665V82.5909H54.9574C55.1165 82.1591 55.4044 81.8087 55.821 81.5398C56.2377 81.2708 56.7074 81.1364 57.2301 81.1364C57.3286 81.1364 57.4517 81.1383 57.5994 81.142C57.7472 81.1458 57.8589 81.1515 57.9347 81.1591V82.5227C57.8892 82.5114 57.785 82.4943 57.6222 82.4716C57.4631 82.4451 57.2945 82.4318 57.1165 82.4318C56.6922 82.4318 56.3134 82.5208 55.9801 82.6989C55.6506 82.8731 55.3892 83.1155 55.196 83.4261C55.0066 83.733 54.9119 84.0833 54.9119 84.4773V90H53.571ZM59.5241 90V81.2727H60.8651V90H59.5241ZM60.206 79.8182C59.9446 79.8182 59.7192 79.7292 59.5298 79.5511C59.3442 79.3731 59.2514 79.1591 59.2514 78.9091C59.2514 78.6591 59.3442 78.4451 59.5298 78.267C59.7192 78.089 59.9446 78 60.206 78C60.4673 78 60.6908 78.089 60.8764 78.267C61.0658 78.4451 61.1605 78.6591 61.1605 78.9091C61.1605 79.1591 61.0658 79.3731 60.8764 79.5511C60.6908 79.7292 60.4673 79.8182 60.206 79.8182ZM63.321 93.2727V81.2727H64.6165V82.6591H64.7756C64.8741 82.5076 65.0104 82.3144 65.1847 82.0795C65.3627 81.8409 65.6165 81.6288 65.946 81.4432C66.2794 81.2538 66.7301 81.1591 67.2983 81.1591C68.0331 81.1591 68.6809 81.3428 69.2415 81.7102C69.8021 82.0777 70.2396 82.5985 70.554 83.2727C70.8684 83.947 71.0256 84.7424 71.0256 85.6591C71.0256 86.5833 70.8684 87.3845 70.554 88.0625C70.2396 88.7367 69.804 89.2595 69.2472 89.6307C68.6903 89.9981 68.0483 90.1818 67.321 90.1818C66.7604 90.1818 66.3116 90.089 65.9744 89.9034C65.6373 89.714 65.3778 89.5 65.196 89.2614C65.0142 89.0189 64.8741 88.8182 64.7756 88.6591H64.6619V93.2727H63.321ZM64.6392 85.6364C64.6392 86.2955 64.7358 86.8769 64.929 87.3807C65.1222 87.8807 65.4044 88.2727 65.7756 88.5568C66.1468 88.8371 66.6013 88.9773 67.1392 88.9773C67.6998 88.9773 68.1676 88.8295 68.5426 88.5341C68.9214 88.2348 69.2055 87.8333 69.3949 87.3295C69.5881 86.822 69.6847 86.2576 69.6847 85.6364C69.6847 85.0227 69.59 84.4697 69.4006 83.9773C69.215 83.4811 68.9328 83.089 68.554 82.8011C68.179 82.5095 67.7074 82.3636 67.1392 82.3636C66.5938 82.3636 66.1354 82.5019 65.7642 82.7784C65.393 83.0511 65.1127 83.4337 64.9233 83.9261C64.7339 84.4148 64.6392 84.9848 64.6392 85.6364ZM76.8665 81.2727V82.4091H72.3438V81.2727H76.8665ZM73.6619 79.1818H75.0028V87.5C75.0028 87.8788 75.0578 88.1629 75.1676 88.3523C75.2813 88.5379 75.4252 88.6629 75.5994 88.7273C75.7775 88.7879 75.965 88.8182 76.1619 88.8182C76.3097 88.8182 76.4309 88.8106 76.5256 88.7955C76.6203 88.7765 76.696 88.7614 76.7528 88.75L77.0256 89.9545C76.9347 89.9886 76.8078 90.0227 76.6449 90.0568C76.482 90.0947 76.2756 90.1136 76.0256 90.1136C75.6468 90.1136 75.2756 90.0322 74.9119 89.8693C74.5521 89.7064 74.2528 89.4583 74.0142 89.125C73.7794 88.7917 73.6619 88.3712 73.6619 87.8636V79.1818Z" fill="#4B5563"/>
</g>
<defs>
<clipPath id="clip0_327_477">
<rect width="78" height="96" fill="white"/>
</clipPath>
</defs>
</svg>
