<svg width="78" height="96" viewBox="0 0 81 96" fill="none" xmlns="http://www.w3.org/2000/svg">
<g clip-path="url(#clip0_327_482)">
<g clip-path="url(#clip1_327_482)">
<path d="M69.5908 0H11.5908C9.93397 0 8.59082 1.34315 8.59082 3V61C8.59082 62.6569 9.93397 64 11.5908 64H69.5908C71.2477 64 72.5908 62.6569 72.5908 61V3C72.5908 1.34315 71.2477 0 69.5908 0Z" fill="#3178C6"/>
<path fill-rule="evenodd" clip-rule="evenodd" d="M45.7219 49.734V56.747C46.8581 57.331 48.2018 57.7695 49.7532 58.0615C51.3045 58.354 52.9396 58.5 54.6584 58.5C56.3336 58.5 57.9249 58.3395 59.4323 58.018C60.9403 57.6965 62.2618 57.167 63.3983 56.429C64.5343 55.691 65.4338 54.727 66.0968 53.536C66.7593 52.3455 67.0908 50.8735 67.0908 49.1203C67.0908 47.8493 66.9013 46.7353 66.5228 45.7783C66.1438 44.8214 65.5978 43.9704 64.8838 43.2252C64.1703 42.4801 63.3143 41.8117 62.3168 41.22C61.3188 40.6283 60.1938 40.0694 58.9408 39.5435C58.0232 39.1636 57.2002 38.7947 56.4719 38.4368C55.7436 38.0788 55.1245 37.7136 54.6147 37.341C54.1049 36.9684 53.7116 36.574 53.4348 36.1576C53.1581 35.7413 53.0197 35.27 53.0197 34.7441C53.0197 34.2619 53.1435 33.8273 53.3911 33.4402C53.6388 33.053 53.9884 32.7206 54.4399 32.443C54.8915 32.1655 55.445 31.95 56.1005 31.7966C56.756 31.6431 57.4843 31.5664 58.2854 31.5664C58.8683 31.5664 59.4833 31.6103 60.1318 31.6979C60.7798 31.7856 61.4318 31.9207 62.0873 32.1034C62.7428 32.286 63.3798 32.5161 63.9993 32.7937C64.6183 33.0713 65.1898 33.3927 65.7143 33.7579V27.2054C64.6508 26.7963 63.4893 26.4931 62.2293 26.2959C60.9693 26.0986 59.5238 26 57.8921 26C56.2316 26 54.6584 26.1789 53.1726 26.5369C51.6869 26.8948 50.3795 27.4537 49.2506 28.2134C48.1217 28.9731 47.2295 29.941 46.5741 31.1171C45.9186 32.2932 45.5908 33.6995 45.5908 35.3358C45.5908 37.4251 46.1917 39.2074 47.3934 40.683C48.5952 42.1587 50.4196 43.4079 52.8667 44.4305C53.8281 44.825 54.724 45.2122 55.5542 45.592C56.3845 45.9719 57.1019 46.3664 57.7064 46.7755C58.3109 47.1846 58.7878 47.6302 59.1373 48.1123C59.4873 48.5944 59.6618 49.1423 59.6618 49.7559C59.6618 50.209 59.5528 50.629 59.3343 51.016C59.1158 51.403 58.7843 51.739 58.3401 52.024C57.8958 52.309 57.3423 52.532 56.6795 52.6925C56.0167 52.853 55.2411 52.9335 54.3525 52.9335C52.8376 52.9335 51.3373 52.667 49.8515 52.1335C48.3657 51.6005 46.9892 50.8005 45.7219 49.734ZM33.9421 32.2772H43.0908V26.5H17.5908V32.2772H26.6948V58H33.9421V32.2772Z" fill="white"/>
</g>
<path d="M1.36355 79.6136V78.3636H10.0908V79.6136H6.43173V90H5.02264V79.6136H1.36355ZM11.9474 93.2727C11.7201 93.2727 11.5174 93.2538 11.3394 93.2159C11.1614 93.1818 11.0383 93.1477 10.9701 93.1136L11.311 91.9318C11.6367 92.0152 11.9246 92.0455 12.1746 92.0227C12.4246 92 12.6462 91.8883 12.8394 91.6875C13.0364 91.4905 13.2163 91.1705 13.3792 90.7273L13.6292 90.0455L10.4019 81.2727H11.8564L14.2655 88.2273H14.3564L16.7655 81.2727H18.2201L14.5155 91.2727C14.3489 91.7235 14.1424 92.0966 13.8962 92.392C13.65 92.6913 13.364 92.9129 13.0383 93.0568C12.7163 93.2008 12.3527 93.2727 11.9474 93.2727ZM19.99 93.2727V81.2727H21.2854V82.6591H21.4445C21.543 82.5076 21.6794 82.3144 21.8536 82.0795C22.0316 81.8409 22.2854 81.6288 22.615 81.4432C22.9483 81.2538 23.3991 81.1591 23.9672 81.1591C24.7021 81.1591 25.3498 81.3428 25.9104 81.7102C26.471 82.0777 26.9085 82.5985 27.2229 83.2727C27.5373 83.947 27.6945 84.7424 27.6945 85.6591C27.6945 86.5833 27.5373 87.3845 27.2229 88.0625C26.9085 88.7367 26.4729 89.2595 25.9161 89.6307C25.3593 89.9981 24.7172 90.1818 23.99 90.1818C23.4294 90.1818 22.9805 90.089 22.6434 89.9034C22.3063 89.714 22.0468 89.5 21.865 89.2614C21.6831 89.0189 21.543 88.8182 21.4445 88.6591H21.3309V93.2727H19.99ZM21.3081 85.6364C21.3081 86.2955 21.4047 86.8769 21.5979 87.3807C21.7911 87.8807 22.0733 88.2727 22.4445 88.5568C22.8157 88.8371 23.2703 88.9773 23.8081 88.9773C24.3688 88.9773 24.8366 88.8295 25.2116 88.5341C25.5903 88.2348 25.8744 87.8333 26.0638 87.3295C26.257 86.822 26.3536 86.2576 26.3536 85.6364C26.3536 85.0227 26.2589 84.4697 26.0695 83.9773C25.8839 83.4811 25.6017 83.089 25.2229 82.8011C24.8479 82.5095 24.3763 82.3636 23.8081 82.3636C23.2627 82.3636 22.8044 82.5019 22.4332 82.7784C22.0619 83.0511 21.7816 83.4337 21.5922 83.9261C21.4028 84.4148 21.3081 84.9848 21.3081 85.6364ZM33.3991 90.1818C32.5581 90.1818 31.8328 89.9962 31.2229 89.625C30.6169 89.25 30.1491 88.7273 29.8195 88.0568C29.4938 87.3826 29.3309 86.5985 29.3309 85.7045C29.3309 84.8106 29.4938 84.0227 29.8195 83.3409C30.1491 82.6553 30.6074 82.1212 31.1945 81.7386C31.7854 81.3523 32.4748 81.1591 33.2627 81.1591C33.7172 81.1591 34.1661 81.2348 34.6093 81.3864C35.0525 81.5379 35.4559 81.7841 35.8195 82.125C36.1832 82.4621 36.4729 82.9091 36.6888 83.4659C36.9047 84.0227 37.0127 84.7083 37.0127 85.5227V86.0909H30.2854V84.9318H35.6491C35.6491 84.4394 35.5506 84 35.3536 83.6136C35.1604 83.2273 34.8839 82.9223 34.5241 82.6989C34.168 82.4754 33.7475 82.3636 33.2627 82.3636C32.7286 82.3636 32.2665 82.4962 31.8763 82.7614C31.49 83.0227 31.1926 83.3636 30.9843 83.7841C30.776 84.2045 30.6718 84.6553 30.6718 85.1364V85.9091C30.6718 86.5682 30.7854 87.1269 31.0127 87.5852C31.2438 88.0398 31.5638 88.3864 31.9729 88.625C32.382 88.8598 32.8574 88.9773 33.3991 88.9773C33.7513 88.9773 34.0695 88.928 34.3536 88.8295C34.6415 88.7273 34.8896 88.5758 35.0979 88.375C35.3063 88.1705 35.4672 87.9167 35.5809 87.6136L36.8763 87.9773C36.74 88.4167 36.5108 88.803 36.1888 89.1364C35.8669 89.4659 35.4691 89.7235 34.9956 89.9091C34.5222 90.0909 33.99 90.1818 33.3991 90.1818ZM45.2343 83.2273L44.0297 83.5682C43.954 83.3674 43.8422 83.1723 43.6945 82.983C43.5506 82.7898 43.3536 82.6307 43.1036 82.5057C42.8536 82.3807 42.5335 82.3182 42.1434 82.3182C41.6093 82.3182 41.1642 82.4413 40.8082 82.6875C40.4559 82.9299 40.2797 83.2386 40.2797 83.6136C40.2797 83.947 40.401 84.2102 40.6434 84.4034C40.8858 84.5966 41.2646 84.7576 41.7797 84.8864L43.0752 85.2045C43.8555 85.3939 44.4369 85.6837 44.8195 86.0739C45.2021 86.4602 45.3934 86.9583 45.3934 87.5682C45.3934 88.0682 45.2494 88.5152 44.9616 88.9091C44.6775 89.303 44.2797 89.6136 43.7684 89.8409C43.257 90.0682 42.6623 90.1818 41.9843 90.1818C41.0941 90.1818 40.3574 89.9886 39.7741 89.6023C39.1907 89.2159 38.8214 88.6515 38.6661 87.9091L39.9388 87.5909C40.06 88.0606 40.2892 88.4129 40.6263 88.6477C40.9672 88.8826 41.4123 89 41.9616 89C42.5866 89 43.0828 88.8674 43.4502 88.6023C43.8214 88.3333 44.007 88.0114 44.007 87.6364C44.007 87.3333 43.901 87.0795 43.6888 86.875C43.4767 86.6667 43.151 86.5114 42.7116 86.4091L41.257 86.0682C40.4578 85.8788 39.8706 85.5852 39.4956 85.1875C39.1244 84.786 38.9388 84.2841 38.9388 83.6818C38.9388 83.1894 39.0771 82.7538 39.3536 82.375C39.6339 81.9962 40.0146 81.6989 40.4957 81.483C40.9805 81.267 41.5297 81.1591 42.1434 81.1591C43.007 81.1591 43.685 81.3485 44.1775 81.7273C44.6737 82.1061 45.026 82.6061 45.2343 83.2273ZM50.9573 90.1818C50.1391 90.1818 49.4346 89.9886 48.8437 89.6023C48.2528 89.2159 47.7982 88.6837 47.48 88.0057C47.1618 87.3277 47.0028 86.553 47.0028 85.6818C47.0028 84.7955 47.1656 84.0133 47.4914 83.3352C47.8209 82.6534 48.2793 82.1212 48.8664 81.7386C49.4573 81.3523 50.1467 81.1591 50.9346 81.1591C51.5482 81.1591 52.1012 81.2727 52.5937 81.5C53.0861 81.7273 53.4895 82.0455 53.8039 82.4545C54.1183 82.8636 54.3134 83.3409 54.3891 83.8864H53.0482C52.9459 83.4886 52.7187 83.1364 52.3664 82.8295C52.0179 82.5189 51.5482 82.3636 50.9573 82.3636C50.4346 82.3636 49.9762 82.5 49.5823 82.7727C49.1921 83.0417 48.8872 83.4223 48.6675 83.9148C48.4516 84.4034 48.3437 84.9773 48.3437 85.6364C48.3437 86.3106 48.4497 86.8977 48.6618 87.3977C48.8778 87.8977 49.1808 88.286 49.5709 88.5625C49.9649 88.839 50.427 88.9773 50.9573 88.9773C51.3058 88.9773 51.6221 88.9167 51.9062 88.7955C52.1903 88.6742 52.4308 88.5 52.6278 88.2727C52.8247 88.0455 52.9649 87.7727 53.0482 87.4545H54.3891C54.3134 87.9697 54.1259 88.4337 53.8266 88.8466C53.5312 89.2557 53.1391 89.5814 52.6505 89.8239C52.1656 90.0625 51.6012 90.1818 50.9573 90.1818ZM56.3493 90V81.2727H57.6448V82.5909H57.7357C57.8948 82.1591 58.1827 81.8087 58.5993 81.5398C59.016 81.2708 59.4857 81.1364 60.0084 81.1364C60.1069 81.1364 60.23 81.1383 60.3778 81.142C60.5255 81.1458 60.6372 81.1515 60.713 81.1591V82.5227C60.6675 82.5114 60.5634 82.4943 60.4005 82.4716C60.2414 82.4451 60.0728 82.4318 59.8948 82.4318C59.4706 82.4318 59.0918 82.5208 58.7584 82.6989C58.4289 82.8731 58.1675 83.1155 57.9743 83.4261C57.7849 83.733 57.6903 84.0833 57.6903 84.4773V90H56.3493ZM62.3025 90V81.2727H63.6434V90H62.3025ZM62.9843 79.8182C62.7229 79.8182 62.4975 79.7292 62.3081 79.5511C62.1225 79.3731 62.0297 79.1591 62.0297 78.9091C62.0297 78.6591 62.1225 78.4451 62.3081 78.267C62.4975 78.089 62.7229 78 62.9843 78C63.2456 78 63.4691 78.089 63.6547 78.267C63.8441 78.4451 63.9388 78.6591 63.9388 78.9091C63.9388 79.1591 63.8441 79.3731 63.6547 79.5511C63.4691 79.7292 63.2456 79.8182 62.9843 79.8182ZM66.0993 93.2727V81.2727H67.3948V82.6591H67.5539C67.6524 82.5076 67.7887 82.3144 67.963 82.0795C68.141 81.8409 68.3948 81.6288 68.7243 81.4432C69.0577 81.2538 69.5084 81.1591 70.0766 81.1591C70.8115 81.1591 71.4592 81.3428 72.0198 81.7102C72.5804 82.0777 73.0179 82.5985 73.3323 83.2727C73.6467 83.947 73.8039 84.7424 73.8039 85.6591C73.8039 86.5833 73.6467 87.3845 73.3323 88.0625C73.0179 88.7367 72.5823 89.2595 72.0255 89.6307C71.4687 89.9981 70.8266 90.1818 70.0993 90.1818C69.5387 90.1818 69.0899 90.089 68.7528 89.9034C68.4156 89.714 68.1562 89.5 67.9743 89.2614C67.7925 89.0189 67.6524 88.8182 67.5539 88.6591H67.4403V93.2727H66.0993ZM67.4175 85.6364C67.4175 86.2955 67.5141 86.8769 67.7073 87.3807C67.9005 87.8807 68.1827 88.2727 68.5539 88.5568C68.9251 88.8371 69.3796 88.9773 69.9175 88.9773C70.4781 88.9773 70.9459 88.8295 71.3209 88.5341C71.6997 88.2348 71.9838 87.8333 72.1732 87.3295C72.3664 86.822 72.463 86.2576 72.463 85.6364C72.463 85.0227 72.3683 84.4697 72.1789 83.9773C71.9933 83.4811 71.7111 83.089 71.3323 82.8011C70.9573 82.5095 70.4857 82.3636 69.9175 82.3636C69.3721 82.3636 68.9137 82.5019 68.5425 82.7784C68.1713 83.0511 67.891 83.4337 67.7016 83.9261C67.5122 84.4148 67.4175 84.9848 67.4175 85.6364ZM79.6448 81.2727V82.4091H75.1221V81.2727H79.6448ZM76.4403 79.1818H77.7812V87.5C77.7812 87.8788 77.8361 88.1629 77.9459 88.3523C78.0596 88.5379 78.2035 88.6629 78.3778 88.7273C78.5558 88.7879 78.7433 88.8182 78.9403 88.8182C79.088 88.8182 79.2092 88.8106 79.3039 88.7955C79.3986 88.7765 79.4743 88.7614 79.5312 88.75L79.8039 89.9545C79.713 89.9886 79.5861 90.0227 79.4232 90.0568C79.2603 90.0947 79.0539 90.1136 78.8039 90.1136C78.4251 90.1136 78.0539 90.0322 77.6903 89.8693C77.3304 89.7064 77.0312 89.4583 76.7925 89.125C76.5577 88.7917 76.4403 88.3712 76.4403 87.8636V79.1818Z" fill="#4B5563"/>
</g>
<defs>
<clipPath id="clip0_327_482">
<rect width="80" height="96" fill="white" transform="translate(0.59082)"/>
</clipPath>
<clipPath id="clip1_327_482">
<rect width="64" height="64" fill="white" transform="translate(8.59082)"/>
</clipPath>
</defs>
</svg>
